<svg width="410" height="466" viewBox="0 0 410 466" fill="none" xmlns="http://www.w3.org/2000/svg">
<g style="mix-blend-mode:multiply" opacity="0.3">
<path d="M199.113 293.434L386.601 402.097L410 388.539L222.512 279.877L199.113 293.434Z" fill="#0077E4"/>
</g>
<g style="mix-blend-mode:multiply" opacity="0.3">
<path d="M150.915 437.035L190.767 460.136C204.235 467.941 226.05 467.941 239.518 460.136C252.986 452.331 252.986 439.68 239.518 431.875L199.666 408.773C186.198 400.968 164.365 400.968 150.915 408.773C137.465 416.579 137.447 429.23 150.915 437.035Z" fill="#0077E4"/>
</g>
<g style="mix-blend-mode:multiply" opacity="0.3">
<path d="M76.0377 347.275L64.1723 376.203C60.1742 385.968 44.4213 392.294 29.0184 390.352C13.6156 388.41 4.34806 378.921 8.34618 369.156L20.2115 340.228C24.2097 330.463 39.9626 324.119 55.3839 326.061C70.8052 328.003 80.0358 337.509 76.0377 347.275Z" fill="#0077E4"/>
</g>
<path d="M207.22 20.9182V126.214C207.22 136.979 214.793 150.111 224.079 155.493L377.002 244.273L391.115 262.768L405.062 254.649C408.121 252.892 410 249.1 410 243.718V129.599C410 118.816 402.446 105.684 393.16 100.302L224.079 2.27448C219.528 -0.388903 215.216 -0.592361 212.158 1.12774L198.266 9.17338L207.22 20.9182Z" fill="#0060B8"/>
<path d="M379.268 108.348C388.48 113.73 396.126 126.843 396.126 137.645V251.782C396.126 262.547 388.572 266.93 379.268 261.548L210.186 163.52C200.974 158.138 193.346 145.025 193.346 134.242V20.1046C193.346 9.34004 200.901 4.95656 210.186 10.3388L379.268 108.348Z" fill="#0077E4"/>
<path d="M208.639 19.8829C209.175 20.0834 209.693 20.331 210.186 20.6228L379.286 118.65C381.602 120.185 383.524 122.245 384.897 124.665C386.27 127.085 387.056 129.796 387.19 132.577V246.715C387.195 247.286 387.139 247.856 387.025 248.416C386.324 252.263 383.1 253.614 379.194 251.357L210.113 153.33C207.79 151.805 205.856 149.753 204.467 147.341C203.078 144.928 202.273 142.221 202.117 139.439V25.3022C202.209 20.7522 204.954 18.6067 208.639 19.8829Z" fill="#0060B8"/>
<path d="M208.639 19.8828C209.175 20.0833 209.693 20.3309 210.186 20.6226L379.286 118.65C381.601 120.185 383.524 122.245 384.897 124.665C386.27 127.085 387.056 129.796 387.19 132.577V246.715C387.195 247.286 387.139 247.856 387.025 248.416C386.49 248.234 385.977 247.992 385.495 247.695L216.395 149.667C214.073 148.144 212.14 146.092 210.754 143.679C209.368 141.266 208.568 138.559 208.418 135.777V21.6029C208.44 21.0241 208.514 20.4485 208.639 19.8828Z" fill="#0077E4"/>
<path d="M208.639 19.8828C209.175 20.0833 209.693 20.3309 210.186 20.6226L379.286 118.65C381.601 120.185 383.524 122.245 384.897 124.665C386.27 127.085 387.056 129.796 387.19 132.577V246.715C387.195 247.286 387.139 247.856 387.025 248.416C386.493 248.226 385.981 247.985 385.495 247.695L216.395 149.667C214.073 148.144 212.14 146.092 210.754 143.679C209.368 141.266 208.568 138.559 208.418 135.777V21.6029C208.44 21.0241 208.514 20.4485 208.639 19.8828Z" fill="#0077E4"/>
<path d="M283.534 139.975L229.772 108.81C227.194 107.12 225.049 104.845 223.509 102.168C221.97 99.4917 221.079 96.4891 220.91 93.4031V91.1466C220.91 85.4869 224.889 83.175 229.772 86.0048L283.534 117.17C286.107 118.866 288.248 121.142 289.787 123.818C291.326 126.493 292.22 129.493 292.397 132.577V134.852C292.397 140.512 288.398 142.824 283.534 139.975Z" fill="#FBB03B"/>
<path d="M287.477 142.121C285.918 142.073 284.4 141.614 283.074 140.79L229.311 109.624C226.599 107.848 224.341 105.456 222.722 102.641C221.102 99.8261 220.166 96.6678 219.988 93.4219V91.147C219.768 89.8712 219.944 88.5584 220.491 87.3859C221.038 86.2133 221.93 85.2375 223.047 84.5901C224.164 83.9427 225.452 83.6551 226.737 83.7659C228.022 83.8767 229.242 84.3807 230.232 85.2098L284.013 116.375C286.726 118.151 288.983 120.543 290.603 123.358C292.223 126.173 293.159 129.332 293.336 132.577V134.852C293.459 136.121 293.238 137.399 292.697 138.552C292.155 139.704 291.313 140.689 290.259 141.4C289.411 141.882 288.452 142.131 287.477 142.121ZM284.013 139.199C284.721 139.864 285.623 140.284 286.586 140.395C287.549 140.505 288.522 140.302 289.362 139.814C290.201 139.327 290.861 138.581 291.245 137.687C291.629 136.794 291.716 135.8 291.494 134.852V132.577C291.309 129.657 290.455 126.818 288.998 124.284C287.54 121.749 285.519 119.587 283.092 117.966L229.33 86.8005C228.622 86.1349 227.72 85.7156 226.757 85.6048C225.794 85.4939 224.82 85.6973 223.981 86.1849C223.142 86.6724 222.482 87.4183 222.098 88.3119C221.714 89.2056 221.627 90.1997 221.849 91.147V93.4219C222.03 96.3436 222.882 99.1835 224.34 101.719C225.797 104.254 227.821 106.415 230.251 108.034L284.013 139.199Z" fill="white"/>
<path d="M369.927 190.061L316.146 158.896C313.571 157.203 311.428 154.927 309.889 152.251C308.35 149.575 307.457 146.574 307.283 143.489V141.214C307.283 135.554 311.281 133.242 316.146 136.072L369.927 167.238C372.498 168.933 374.637 171.21 376.173 173.886C377.709 176.561 378.599 179.561 378.77 182.644V184.919C378.77 190.579 374.791 192.891 369.927 190.061Z" fill="#ED1C24"/>
<path d="M373.851 192.207C372.297 192.149 370.785 191.683 369.466 190.857L315.685 159.692C312.973 157.916 310.715 155.523 309.095 152.708C307.476 149.894 306.539 146.735 306.362 143.489V141.214C306.142 139.939 306.318 138.626 306.864 137.453C307.411 136.281 308.303 135.305 309.42 134.658C310.537 134.01 311.825 133.722 313.11 133.833C314.395 133.944 315.616 134.448 316.606 135.277L370.387 166.443C373.077 168.233 375.311 170.631 376.911 173.445C378.511 176.259 379.432 179.409 379.599 182.645V184.92C379.72 186.186 379.501 187.462 378.962 188.614C378.424 189.765 377.588 190.751 376.541 191.467C375.722 191.941 374.796 192.195 373.851 192.207ZM312.221 135.795C311.577 135.785 310.942 135.944 310.379 136.258C309.618 136.822 309.019 137.577 308.641 138.447C308.262 139.317 308.118 140.271 308.223 141.214V143.489C308.408 146.41 309.262 149.248 310.719 151.783C312.177 154.317 314.198 156.48 316.625 158.101L370.406 189.266C371.119 189.885 372.008 190.263 372.947 190.348C373.886 190.434 374.828 190.222 375.641 189.743C376.454 189.263 377.097 188.54 377.48 187.675C377.863 186.81 377.966 185.847 377.775 184.92V182.645C377.594 179.725 376.744 176.888 375.289 174.353C373.835 171.818 371.817 169.655 369.392 168.033L315.611 136.868C314.592 136.223 313.424 135.854 312.221 135.795Z" fill="white"/>
<path d="M283.534 173.083L229.772 141.918C227.193 140.229 225.047 137.954 223.507 135.277C221.968 132.6 221.078 129.597 220.91 126.511V124.236C220.91 118.595 224.889 116.283 229.772 119.094L283.534 150.259C286.107 151.955 288.248 154.231 289.787 156.907C291.326 159.582 292.22 162.582 292.397 165.666V167.96C292.397 173.601 288.398 175.913 283.534 173.083Z" fill="#39B54A"/>
<path d="M287.477 175.229C285.915 175.182 284.395 174.716 283.074 173.878L229.311 142.732C226.597 140.953 224.339 138.557 222.72 135.739C221.1 132.921 220.164 129.76 219.988 126.511V124.236C219.768 122.96 219.944 121.647 220.491 120.475C221.038 119.302 221.93 118.326 223.047 117.679C224.164 117.032 225.452 116.744 226.737 116.855C228.022 116.966 229.242 117.47 230.232 118.299L284.013 149.464C286.726 151.24 288.983 153.632 290.603 156.447C292.223 159.262 293.159 162.42 293.336 165.666V167.96C293.458 169.225 293.236 170.501 292.694 171.65C292.153 172.8 291.311 173.78 290.259 174.489C289.418 174.988 288.455 175.244 287.477 175.229ZM284.013 172.288C284.72 172.95 285.62 173.368 286.58 173.478C287.541 173.589 288.511 173.387 289.349 172.902C290.186 172.418 290.847 171.676 291.233 170.786C291.619 169.896 291.711 168.906 291.494 167.96V165.666C291.309 162.746 290.455 159.907 288.998 157.373C287.54 154.838 285.519 152.676 283.092 151.055L229.33 119.908C228.623 119.245 227.723 118.828 226.763 118.717C225.802 118.607 224.832 118.809 223.994 119.293C223.156 119.778 222.496 120.52 222.11 121.409C221.724 122.299 221.632 123.29 221.849 124.236V126.511C222.027 129.433 222.878 132.274 224.336 134.81C225.794 137.345 227.819 139.506 230.251 141.122L284.013 172.288Z" fill="white"/>
<path d="M369.927 223.206L316.146 192.04C313.569 190.349 311.424 188.074 309.885 185.397C308.346 182.721 307.454 179.719 307.283 176.633V174.358C307.283 168.717 311.281 166.405 316.146 169.217L369.927 200.382C372.498 202.077 374.637 204.354 376.173 207.03C377.709 209.706 378.599 212.706 378.77 215.789V218.082C378.77 223.668 374.791 225.98 369.927 223.206Z" fill="#FBB03B"/>
<path d="M373.851 225.296C372.298 225.245 370.786 224.786 369.466 223.964L315.685 192.799C312.972 191.019 310.715 188.623 309.095 185.805C307.476 182.988 306.539 179.827 306.362 176.578V174.303C306.142 173.027 306.318 171.715 306.864 170.542C307.411 169.37 308.303 168.394 309.42 167.746C310.537 167.099 311.825 166.811 313.11 166.922C314.395 167.033 315.616 167.537 316.606 168.366L370.387 199.531C373.077 201.322 375.311 203.72 376.911 206.534C378.511 209.347 379.432 212.498 379.599 215.734V218.027C379.718 219.293 379.498 220.568 378.96 221.72C378.422 222.871 377.587 223.857 376.541 224.575C375.72 225.042 374.794 225.29 373.851 225.296ZM312.221 168.884C311.576 168.88 310.94 169.045 310.379 169.365C309.617 169.924 309.016 170.675 308.638 171.542C308.259 172.41 308.116 173.362 308.223 174.303V176.578C308.405 179.5 309.258 182.339 310.715 184.874C312.173 187.409 314.196 189.571 316.625 191.19L370.406 222.355C371.118 222.971 372.005 223.348 372.941 223.433C373.878 223.519 374.818 223.308 375.629 222.832C376.441 222.355 377.084 221.636 377.469 220.774C377.854 219.913 377.961 218.953 377.775 218.027V215.808C377.597 212.89 376.747 210.054 375.293 207.522C373.838 204.99 371.818 202.831 369.392 201.215L315.611 170.049C314.6 169.374 313.432 168.972 312.221 168.884Z" fill="white"/>
<path d="M275.428 66.6952L252.655 53.4893V59.5559L275.428 72.7618V66.6952Z" fill="white"/>
<path d="M328.324 97.3428L283.369 71.3008V77.3674L328.324 103.409V97.3428Z" fill="white"/>
<path d="M335.491 101.504V107.571L349.365 115.617V109.55L335.491 101.504Z" fill="white"/>
<path d="M300.43 92.4045L252.655 64.7349V70.783L300.43 98.4711V92.4045Z" fill="white"/>
<path d="M309.716 97.8052V103.872L349.365 126.843V120.777L309.716 97.8052Z" fill="white"/>
<path d="M275.814 89.3713L252.655 75.9619V82.0285L275.814 95.4379V89.3713Z" fill="white"/>
<path d="M283.369 93.7549V99.8215L340.54 132.966V126.899L283.369 93.7549Z" fill="white"/>
<path d="M276.533 127.251L236.755 104.186V98.7671L276.533 121.813V127.251Z" fill="white"/>
<path d="M276.533 160.339L236.754 137.275V131.855L276.533 154.92V160.339Z" fill="white"/>
<path d="M362.317 176.966L322.539 153.902V148.483L362.317 171.547V176.966Z" fill="white"/>
<path d="M362.317 210.055L322.539 187.01V181.572L362.317 204.636V210.055Z" fill="white"/>
<path d="M231.393 59.8148V58.4831C231.253 57.2766 231.416 56.054 231.866 54.9267C232.317 53.7994 233.041 52.8029 233.973 52.028C235.354 50.9183 236.497 49.9565 236.497 48.3289C236.44 47.3055 236.116 46.3151 235.556 45.4578C234.996 44.6004 234.221 43.9065 233.309 43.446C232.024 42.6382 230.504 42.2925 228.998 42.4657L227.524 36.1032C230.139 36.0616 232.707 36.809 234.894 38.2487C237.266 39.462 239.283 41.2724 240.749 43.5029C242.215 45.7333 243.08 48.3075 243.258 50.9738C243.304 52.2726 242.982 53.5578 242.33 54.6806C241.677 55.8033 240.722 56.7177 239.574 57.3178C238.787 57.8786 238.164 58.6415 237.772 59.5266C237.38 60.4117 237.232 61.3865 237.344 62.3487V63.255L231.393 59.8148ZM230.251 66.1218C230.251 63.4584 231.872 62.4226 234.138 63.7728C235.306 64.505 236.275 65.5171 236.957 66.7181C237.638 67.919 238.012 69.2713 238.044 70.6533C238.044 73.2796 236.478 74.3524 234.138 72.9837C232.975 72.2523 232.011 71.2425 231.333 70.0449C230.654 68.8472 230.282 67.4992 230.251 66.1218Z" fill="#FBB03B"/>
<path d="M362.797 135.98V134.649C362.664 133.444 362.829 132.226 363.275 131.101C363.722 129.975 364.437 128.977 365.358 128.194C366.758 127.084 367.9 126.122 367.9 124.494C367.837 123.475 367.509 122.49 366.95 121.637C366.391 120.784 365.62 120.092 364.713 119.63C363.427 118.824 361.908 118.478 360.401 118.65L358.909 112.287C361.524 112.246 364.092 112.993 366.279 114.433C368.651 115.646 370.668 117.456 372.134 119.687C373.6 121.917 374.465 124.492 374.643 127.158C374.689 128.457 374.367 129.742 373.715 130.865C373.062 131.987 372.107 132.902 370.959 133.502C370.177 134.062 369.559 134.823 369.17 135.704C368.781 136.586 368.635 137.557 368.748 138.514V139.439L362.797 135.98ZM361.673 142.287C361.673 139.624 363.276 138.588 365.542 139.938C366.715 140.666 367.689 141.676 368.375 142.878C369.06 144.08 369.435 145.434 369.466 146.819C369.466 149.445 367.9 150.518 365.542 149.131C364.382 148.401 363.422 147.394 362.746 146.2C362.071 145.005 361.702 143.661 361.673 142.287Z" fill="#FBB03B"/>
<path d="M134.922 225.536L136.341 243.644C136.454 245.615 136.979 247.541 137.88 249.297C138.781 251.052 140.04 252.598 141.574 253.835C146.032 257.22 152.334 257.127 156.903 257.275C158.05 257.296 159.194 257.389 160.33 257.552L161.712 236.911L153.623 197.312C139.602 196.942 135.07 209.168 134.922 225.536Z" fill="#ED1C24"/>
<g style="mix-blend-mode:multiply" opacity="0.5">
<path d="M141.574 253.835C146.032 257.22 152.334 257.127 156.903 257.275V245.604L142.163 224.833L141.574 253.835Z" fill="#851014"/>
</g>
<path d="M183.563 205.506L186.087 202.768L185.111 206.763C185.005 206.951 184.971 207.171 185.015 207.382C185.059 207.593 185.178 207.781 185.35 207.91C185.563 208.101 185.838 208.207 186.124 208.207C186.409 208.207 186.685 208.101 186.898 207.91C187.021 207.783 187.126 207.64 187.211 207.485L188.777 204.266L190.749 207.207L192.591 209.889C195.031 213.171 198.248 215.79 201.951 217.509L205.341 222.096L208.712 222.799L208.528 213.329L199.316 201.178L197.087 199.162L194.562 196.942L189.238 196.535L184.816 199.698L181.923 204.211C181.186 205.635 182.679 206.56 183.563 205.506Z" fill="#F5BCA6"/>
<g style="mix-blend-mode:multiply" opacity="0.5">
<path d="M183.563 205.506L186.087 202.768L185.111 206.763C185.005 206.951 184.971 207.171 185.015 207.382C185.059 207.593 185.178 207.781 185.35 207.91H186.898C187.021 207.783 187.126 207.64 187.211 207.485L188.777 204.266L190.749 207.207L196.663 203.508L197.087 199.162L194.562 196.942L189.238 196.535L184.816 199.698L181.923 204.211C181.186 205.635 182.679 206.56 183.563 205.506Z" fill="#FFB294"/>
</g>
<path d="M184.779 404.464C193.144 406.202 194.507 412.75 191.301 418.428L181.886 431.837C178.349 437.997 173.595 440.9 167.368 439.865C161.841 437.553 161.03 433.854 162.596 429.507L162.909 420.259L168.529 403.058L184.779 404.464Z" fill="black"/>
<path d="M161.03 422.516C163.646 431.431 177.759 431.116 178.902 419.187L183.766 385.894L186.382 371.431L195.852 338.638L197.916 330.074L191.209 288.662L156.092 287.035C156.092 287.035 163.351 359.778 163.462 362.627C160.509 382.444 159.694 402.523 161.03 422.516Z" fill="#25435C"/>
<path d="M161.03 422.516C163.646 431.431 177.759 431.116 178.902 419.187L183.766 385.894L186.382 371.431L195.852 338.638L197.916 330.074L191.209 288.662L156.092 287.035C156.092 287.035 163.351 359.778 163.462 362.627C160.509 382.444 159.694 402.523 161.03 422.516Z" fill="#0060B8"/>
<path d="M184.963 435.296C181.573 441.03 183.121 450.611 185.129 454.957C191.043 457.177 196 457.621 199.427 455.253C210.61 454.587 216.856 456.086 222.604 454.439C228.721 452.701 232.885 450.851 236.018 444.729C236.315 443.796 236.403 442.808 236.276 441.837C236.148 440.865 235.808 439.934 235.28 439.11C234.751 438.287 234.048 437.59 233.22 437.072C232.392 436.553 231.46 436.225 230.49 436.11C221.278 435.722 212.876 434.963 208.381 432.67L200.458 418.132L186.069 429.526L184.963 435.296Z" fill="black"/>
<path d="M186.069 331.147C186.456 334.624 190.933 363.496 190.822 365.549C183.194 389.205 185.958 415.487 183.968 437.479C190.638 442.491 206.686 443.416 208.233 434.427L211.789 407.127C211.789 406.942 211.789 406.572 211.789 406.572L211.918 405.592L213.282 394.994L217.372 368.97C220.301 346.776 215.677 304.235 214.442 285.98L179.841 281.893C179.878 282.051 179.878 282.215 179.841 282.373C179.849 282.46 179.849 282.546 179.841 282.632C178.459 287.219 157.732 288.958 157.511 293.73C157.069 303.57 159.353 320.475 185.884 331.017L186.069 331.147Z" fill="#0077E4"/>
<path d="M185.848 331.054C185.977 331.054 186.05 331.054 186.069 331.147C195.981 334.753 204.493 339.562 208.528 348.551C211.531 397.029 212.213 397.029 211.789 407.035C211.789 406.942 211.789 406.572 211.789 406.572L211.918 405.592L213.282 394.994L217.372 368.971C220.301 346.776 215.677 304.235 214.442 285.98L179.841 281.893C179.878 282.051 179.878 282.215 179.841 282.373C179.849 282.46 179.849 282.546 179.841 282.632C178.459 287.219 157.732 288.958 157.511 293.73C157.032 303.607 159.335 320.512 185.848 331.054Z" fill="#0060B8"/>
<path d="M183.674 219.543L182.587 193.335L165.931 185.678L161.712 207.059L183.674 219.543Z" fill="#F5BCA6"/>
<path d="M155.539 266.837C156.074 269.63 155.374 274.735 154.489 279.396C153.829 282.81 154.25 286.346 155.694 289.507C157.138 292.669 159.533 295.297 162.541 297.022C175.438 304.42 192.407 307.935 204.161 302.571C207.345 301.145 210.144 298.976 212.324 296.245C214.668 293.195 215.885 289.424 215.769 285.573C215.612 270.5 213.196 255.535 208.602 241.184C206.777 235.243 203.852 229.702 199.979 224.852L175.309 208.409C166.594 202.99 163.112 199.753 155.042 197.404C142.974 196.424 138.681 216.214 144.153 232.934C144.098 232.934 154.397 260.918 155.539 266.837Z" fill="#ED1C24"/>
<path d="M180.836 204.525L185.203 202.675C186.703 202.019 188.043 201.042 189.128 199.812C190.214 198.582 191.018 197.129 191.486 195.555C193.162 189.802 195.005 180.425 191.909 173.619C187.174 163.132 180.707 160.783 170.426 164.519C160.145 168.255 156.295 176.042 159.372 187.453C162.449 198.865 165.396 197.293 165.396 197.293L180.836 204.525Z" fill="#F5BCA6"/>
<path d="M192.996 176.967L187.764 184.365L186.069 190.432L184.226 192.947L183.452 196.646C183.147 198.061 182.356 199.323 181.218 200.212C180.079 201.101 178.666 201.561 177.225 201.51C172.334 201.347 167.608 199.703 163.665 196.794C163.665 196.794 159.556 194.112 157.916 183.662C156.276 173.212 162.209 167.238 164.991 165.684C167.773 164.131 182.586 156.954 190.491 163.835C199.261 171.418 192.996 176.967 192.996 176.967Z" fill="black"/>
<path d="M184.742 186.048C184.471 186.079 184.209 186.168 183.974 186.308C183.739 186.448 183.536 186.637 183.379 186.862C183.053 187.303 182.821 187.806 182.697 188.341C182.103 190.386 182.021 192.546 182.458 194.63C182.542 195.169 182.737 195.686 183.029 196.146C183.183 196.372 183.386 196.56 183.621 196.698C183.857 196.835 184.12 196.919 184.392 196.942C184.659 196.918 184.918 196.837 185.15 196.702C185.382 196.568 185.583 196.385 185.737 196.165C186.027 195.724 186.239 195.236 186.364 194.722C186.861 192.984 188.574 185.844 184.742 186.048Z" fill="#F5BCA6"/>
<g style="mix-blend-mode:multiply" opacity="0.5">
<path d="M191.891 242.608C201.969 255.684 206.317 275.419 204.217 302.608C207.357 301.204 210.122 299.074 212.287 296.393C214.699 293.275 215.95 289.408 215.824 285.462C215.65 270.463 213.234 255.574 208.657 241.294L191.891 242.608Z" fill="#851014"/>
</g>
<path d="M199.979 225.055L211.034 235.635L201.914 217.528C201.914 213.939 207.054 211.424 208.491 213.348C208.491 213.348 233.309 235.08 231.946 250.912C230.656 265.709 221.904 263.471 212.397 258.033L192.443 246.769C181.205 239.075 183.618 216.122 199.979 225.055Z" fill="#ED1C24"/>
<g style="mix-blend-mode:multiply" opacity="0.5">
<path d="M211.052 235.543L221.002 242.09L203.793 221.153L211.052 235.543Z" fill="#851014"/>
</g>
<path d="M185.534 183.68C185.534 183.68 187.174 197.367 182.918 202.602C182.858 203.783 182.926 204.968 183.121 206.134C187.911 207.799 196.221 213.736 192.333 192.299C192.075 194.149 189.975 196.627 189.127 194.889C189.503 189.931 189.143 184.944 188.059 180.092L185.534 183.68Z" fill="black"/>
<path d="M118.764 133.317C118.924 140.362 117.207 147.322 113.79 153.478C113.14 154.65 112.381 155.759 111.523 156.788C105.204 164.187 91.8092 158.471 79.4648 152.83C76.8301 151.646 74.2506 150.444 71.8186 149.39L67.839 120.611C76.3695 120.259 84.8816 131.431 99.6396 137.053L107.378 125.956C110.639 127.584 118.764 133.317 118.764 133.317Z" fill="#ED1C24"/>
<path d="M107.746 124.938L108.981 119.63L110.142 117.651L112.445 115.21L117.714 111.104L122.633 112.953L128.161 118.354L129.487 122.053L126.558 125.179L123.333 129.729L118.764 133.428L113.44 134.353C111.505 134.945 105.462 128.379 107.746 124.938Z" fill="#F5BCA6"/>
<g style="mix-blend-mode:multiply" opacity="0.5">
<path d="M109.128 124.698L108.981 119.63L110.694 118.095L113.182 116.245L116.959 114.192L119.759 115.58L124.771 121.239L126.889 122.83L126.631 125.123L123.407 129.673L118.838 133.372L113.513 134.297C111.505 134.945 106.844 128.138 109.128 124.698Z" fill="#FFB294"/>
</g>
<path d="M110.823 132.725C113.255 133.613 116.166 128.009 115.006 124.698L114.029 122.22L114.748 118.705C114.766 117.581 114.623 116.46 114.324 115.376C114.002 114.71 113.489 114.156 112.85 113.786C111.873 113.305 111.358 114.581 111.358 114.581L110.399 117.133L108.981 119.63L107.802 127.713L110.823 132.725Z" fill="#F5BCA6"/>
<path d="M116.885 114.211L120.22 114.729C119.312 116.091 118.582 117.564 118.046 119.112C118.138 119.834 120.128 121.443 120.128 121.443C119.955 122.079 119.955 122.749 120.128 123.385C120.529 124.098 121.189 124.628 121.97 124.864C122.62 124.983 123.287 124.951 123.923 124.772C123.923 124.772 125.766 126.622 126.889 126.492C128.013 126.363 128.732 124.18 128.732 124.18L129.469 122.146L125.397 117.189L116.885 114.211Z" fill="#F5BCA6"/>
<path d="M115.227 114.174L116.94 111.992L121.952 106.147L128.861 103.132C131.145 102.022 133.467 104.334 130.501 106.184L124.973 109.365L121.878 113.915L119.538 115.561L115.227 114.174Z" fill="#F5BCA6"/>
<path d="M26.5311 329.889C25.0203 331.905 25.0203 336.548 25.3704 341.801C26.7891 347.09 31.8005 346.683 36.075 347.349C44.3107 348.644 48.4194 354.877 59.4004 354.859C65.9227 354.859 70.2709 353.453 71.6343 349.31C71.837 347.46 70.7315 345.463 68.41 343.502C68.41 343.502 53.4677 336.77 53.0808 336.511C50.5636 334.757 48.1519 332.854 45.8584 330.814C45.7294 330.296 43.279 318.773 43.279 318.773H27.176L26.5311 329.889Z" fill="black"/>
<path d="M18.7007 354.988C17.2083 359.76 16.8583 361.147 17.54 364.698C18.3667 366.426 19.0987 368.198 19.7325 370.006C20.6353 373.206 20.5063 378.533 25.2598 381.733C30.9162 386.209 41.8419 386.412 45.2689 381.733C44.8035 377.543 43.2885 373.541 40.8654 370.099L35.338 359.76L35.6881 350.049L19.7693 346.535L18.7007 354.988Z" fill="black"/>
<path d="M45.3057 206.245V271.11C40.11 289.92 30.0871 307.565 28.5026 326.375C28.5026 334.273 44.4766 336.011 48.5115 330.925C50.096 316.387 62.3484 296.634 69.7919 273.588C74.7112 250.413 78.8014 226.387 77.4196 207.003L45.3057 206.245Z" fill="#0060B8"/>
<path d="M76.959 208.761C77.4196 215.364 68.41 232.805 58.1107 240.573C57.6501 254.667 55.8445 279.082 53.4677 294.988C46.0979 317.96 39.2441 339.988 37.6595 354.526C34.988 357.91 26.9734 359.224 21.9435 357.355C21.5947 357.242 21.2557 357.099 20.9301 356.93L20.5985 356.764C19.7219 356.341 18.9809 355.681 18.4598 354.857C17.9387 354.033 17.6583 353.079 17.6505 352.103C18.0883 333.138 21.0123 314.314 26.3469 296.116L24.7808 212.626V210.296L76.959 208.761Z" fill="#0077E4"/>
<g style="mix-blend-mode:multiply" opacity="0.5">
<path d="M35.8724 297.892C26.0521 309.859 23.9702 333.589 21.9435 357.356L20.9301 356.93L20.5985 356.764C19.7219 356.341 18.9809 355.681 18.4598 354.857C17.9387 354.033 17.6583 353.079 17.6505 352.103C18.0883 333.138 21.0123 314.314 26.3469 296.116L24.7808 212.626L34.5274 219.303C28.4473 240.148 33.2929 268.558 35.8724 297.892Z" fill="#0060B8"/>
</g>
<path d="M79.5016 208.243C79.3174 209.797 79.0963 211.314 78.8199 212.682C78.0461 217.121 77.1065 213.089 77.1065 213.089C77.6408 214.939 40.8102 232.787 31.2479 228.219C30.0226 227.648 28.7533 227.178 27.4525 226.813C24.9238 225.858 22.6748 224.281 20.9118 222.226C18.6087 216.548 19.4931 217.898 19.5115 202.084L17.9639 181.314L15.016 143.878C23.8266 134.333 33.9079 126.055 44.9742 119.279L67.5626 120.352C76.3326 126.585 78.304 134.39 79.6674 144.914C79.6674 144.914 78.0093 186.77 79.4648 196.979C79.9561 200.717 79.9685 204.502 79.5016 208.243Z" fill="#FBB03B"/>
<path d="M47.6089 116.689L37.3096 124.365C31.7822 139.606 41.6578 146.357 49.5803 155.216L56.729 142.713L66.8993 147.596C67.1941 138.034 65.886 127.251 59.5295 120.574L47.6089 116.689Z" fill="white"/>
<path d="M55.4024 246.844C46.1902 250.21 38.673 249.822 34.509 247.842C33.4404 247.325 32.2244 246.807 30.8241 246.215C26.0029 244.453 21.5806 241.743 17.8165 238.243C15.5687 232.694 19.143 218.73 19.3457 203.434C19.3457 202.972 19.3457 202.509 19.3457 202.084L17.7796 181.295L15.016 143.878C21.2134 137.178 28.0578 131.113 35.4487 125.771C36.7937 124.809 38.1571 123.921 39.5389 122.904C36.0936 126.917 47.4431 140.863 49.6356 160.154C50.2804 165.703 50.87 171.252 51.478 176.985C51.9571 181.961 52.4176 186.936 52.823 191.893C53.3204 198.089 53.7811 204.267 54.168 210.259C54.9971 223.65 55.5498 236.264 55.4024 246.844Z" fill="#ED1C24"/>
<path d="M81.4546 227.793C81.4546 236.579 74.656 242.479 66.9177 244.44C67.1573 226.369 69.884 198.866 69.0549 173.915C68.2811 150.296 64.3015 128.952 52.0492 119.982C51.864 119.819 51.6669 119.671 51.4596 119.538H52.823L57.8897 118.706L70.0683 120.685C78.8384 126.918 78.3409 134.297 79.7043 144.729C78.6909 170.697 80.4044 218.49 81.4546 227.793Z" fill="#ED1C24"/>
<path d="M71.5975 133.483C72.3714 144.007 70.9342 158.582 69.0549 173.952C68.2811 150.333 64.3015 128.989 52.0492 120.018L52.823 119.63L57.8897 117.207C58.9829 118.132 60.0147 119.075 60.9851 120.037C64.1725 123.237 68.2627 125.715 70.1973 129.784L66.5124 133.335L71.5975 133.483Z" fill="#6B0D10"/>
<g style="mix-blend-mode:multiply" opacity="0.5">
<path d="M81.4545 209.76C81.2719 210.425 80.932 211.037 80.4637 211.542C79.9954 212.048 79.4125 212.432 78.7646 212.663C74.1584 214.846 64.3566 214.421 54.1494 210.296H53.9468C42.6341 212.146 36.6462 212.293 31.5794 219.359C28.6315 223.465 29.737 236.93 30.8793 246.289C26.0581 244.527 21.6358 241.817 17.8716 238.317C15.6238 232.768 19.1982 218.804 19.4009 203.508C19.4009 203.046 19.4009 202.583 19.4009 202.158L17.8348 181.369L34.5458 164.353C34.188 170.011 33.2934 175.622 31.8742 181.11C31.4873 182.497 45.1398 186.862 52.7676 192.004L53.652 192.633C61.9241 198.388 70.5382 203.632 79.4462 208.335C80.7544 208.983 81.5098 209.501 81.4545 209.76Z" fill="#851014"/>
</g>
<path d="M15.0159 143.878C9.24387 155.39 4.46071 167.376 0.718448 179.704C-0.471141 183.534 -0.166105 187.675 1.57175 191.288C3.3096 194.901 6.35038 197.715 10.0781 199.162C22.4351 203.76 35.3478 206.683 48.4747 207.855C52.5465 206.837 56.6183 196.221 53.6888 192.485L25.5178 183.144L32.3349 169.864C41.5287 154.661 24.9651 134.131 15.0159 143.878Z" fill="#ED1C24"/>
<path d="M50.2619 203.434C47.185 202.805 49.0643 192.669 52.1043 192.984L55.5312 194.075C58.8827 192.95 62.2972 192.024 65.7569 191.301L74.0663 193.52L78.3408 195.777L80.2754 196.35C82.7811 196.739 82.5231 198.884 80.1648 199.42L76.4799 199.217L71.4685 197.367L69.2759 198.403L77.6775 204.858L85.6 204.322C88.4189 204.322 88.3821 206.412 86.4844 207.004L83.2417 207.984L81.3992 209.834L79.4647 211.128L76.9958 212.201C73.3436 212.172 69.7164 211.592 66.2359 210.481L57.6317 205.432L50.2619 203.434Z" fill="#FFA473"/>
<path d="M108.446 170.104L94.7754 212.441L65.7016 215.012L67.0834 209.833L70.7131 196.276L71.0263 195.055L72.5739 189.248L77.18 172.01L108.446 170.104Z" fill="#0060B8"/>
<path d="M70.2893 197.866L69.2944 198.347L70.0313 198.902L66.9177 210.555L66.3096 210.388L57.7054 205.339L50.3356 203.489C47.2772 202.86 49.1565 192.725 52.1781 193.039L55.6418 194.13C58.9845 192.997 62.3933 192.07 65.849 191.356L71.708 192.91L70.2893 197.866Z" fill="#F5BCA6"/>
<path d="M86.5213 206.948L83.2601 207.928L81.4177 209.778L79.4831 211.054L77.0142 212.127C73.5724 212.115 70.1513 211.592 66.8624 210.573L69.9761 198.921L77.6775 204.821L85.5816 204.285C88.4374 204.285 88.419 206.356 86.5213 206.948Z" fill="#F5BCA6"/>
<path d="M46.6876 99.47C48.8064 100.062 53.1178 98.5452 56.8211 98.5452C62.1458 84.6919 46.485 81.5291 35.504 85.1173C29.4423 87.0963 33.6615 93.4589 37.3464 94.7166C39.1937 95.4593 40.9698 96.3694 42.6527 97.4355C43.908 98.2796 45.2635 98.9631 46.6876 99.47Z" fill="black"/>
<path d="M36.6095 116.69C37.2912 118.835 39.1889 125.031 40.1838 128.305C42.3395 135.389 50.8147 145.746 58.4056 142.158C64.6331 136.942 58.4056 115.783 56.8579 110.715C56.6368 110.068 34.3617 107.923 33.4957 108.736C31.598 110.641 35.9277 114.526 36.6095 116.69Z" fill="#F5BCA6"/>
<g style="mix-blend-mode:multiply" opacity="0.5">
<path d="M40.0548 117.54C40.0548 117.54 50.3172 139.439 59.8427 137.164C67.9126 135.315 57.7423 111.936 57.7423 111.936L40.0548 117.54Z" fill="#FFB294"/>
</g>
<path d="M61.4825 125.327C65.9044 120.629 61.8878 108.126 56.0657 97.1207C48.6959 83.3044 34.5643 86.7815 29.1107 92.4967C22.6068 99.3402 25.3152 115.043 34.509 118.391C36.6463 119.168 41.2156 120.333 42.7632 122.09C50.6673 131.319 58.7925 128.212 61.4825 125.327Z" fill="#F5BCA6"/>
<path d="M53.3204 93.0517C49.4697 104.149 41.3629 105.832 38.3229 107.33L43.2054 113.711L38.673 115.339L41.6946 123.033H39.0967C36.5726 123.033 35.854 121.424 33.901 119.833C30.9003 117.431 28.3059 114.558 26.218 111.325C23.0121 106.202 20.6907 96.9912 29.387 88.7237C38.0834 80.4561 53.7074 84.9875 53.3204 93.0517Z" fill="black"/>
<path d="M34.5275 112.232C34.1221 114.081 35.504 115.765 37.1806 117.041C38.8572 118.317 40.5891 119.723 41.9341 118.169C43.2791 116.615 39.1705 111.418 37.936 110.956C36.7016 110.493 34.9144 110.382 34.5275 112.232Z" fill="#F5BCA6"/>
<path d="M38.3229 149.963L43.2238 144.229L36.8305 145.746C36.0199 141.584 36.4989 137.941 35.2276 131.56C34.8609 129.637 34.9429 127.656 35.4672 125.771C36.8121 124.809 38.1756 123.921 39.5574 122.904C36.112 126.954 47.4615 140.9 49.654 160.191C50.2988 165.74 51.4965 178.372 52.1229 184.069C50.4278 174.211 38.3229 149.963 38.3229 149.963Z" fill="#6B0D10"/>
<g style="mix-blend-mode:multiply" opacity="0.5">
<path d="M113.789 153.477C113.139 154.65 112.381 155.758 111.523 156.788C105.204 164.186 91.8091 158.471 79.4647 152.83L79.2989 152.238L76.9589 140.456C76.9589 140.456 94.2411 161.097 113.789 153.477Z" fill="#851014"/>
</g>
</svg>
