<svg width="174" height="32" viewBox="0 0 174 32" fill="none" xmlns="http://www.w3.org/2000/svg">
<path d="M26.136 28.592C25.3893 29.5093 24.472 30.2027 23.384 30.672C22.3173 31.1627 21.144 31.408 19.864 31.408C18.6267 31.408 17.5067 31.248 16.504 30.928C15.5013 30.608 14.488 30.0747 13.464 29.328C12.4613 28.6027 11.3307 27.5787 10.072 26.256C8.13067 25.936 6.40267 25.2427 4.888 24.176C3.37333 23.1093 2.18933 21.7653 1.336 20.144C0.504 18.5227 0.0880001 16.7413 0.0880001 14.8C0.0880001 12.5813 0.621333 10.5867 1.688 8.816C2.776 7.04533 4.25867 5.65867 6.136 4.656C8.03467 3.65333 10.168 3.152 12.536 3.152C14.904 3.152 17.0267 3.65333 18.904 4.656C20.8027 5.65867 22.2853 7.04533 23.352 8.816C24.44 10.5867 24.984 12.5813 24.984 14.8C24.984 17.3173 24.2907 19.5467 22.904 21.488C21.5387 23.408 19.6933 24.784 17.368 25.616C17.7947 26.0853 18.2107 26.416 18.616 26.608C19.0427 26.8 19.5013 26.896 19.992 26.896C21.2507 26.896 22.3813 26.3733 23.384 25.328L26.136 28.592ZM6.488 14.8C6.488 16.0587 6.75467 17.1787 7.288 18.16C7.82133 19.12 8.54667 19.8667 9.464 20.4C10.3813 20.9333 11.4053 21.2 12.536 21.2C13.6667 21.2 14.6907 20.9333 15.608 20.4C16.5253 19.8667 17.2507 19.12 17.784 18.16C18.3173 17.1787 18.584 16.0587 18.584 14.8C18.584 13.5413 18.3173 12.432 17.784 11.472C17.2507 10.4907 16.5253 9.73333 15.608 9.2C14.6907 8.66667 13.6667 8.4 12.536 8.4C11.4053 8.4 10.3813 8.66667 9.464 9.2C8.54667 9.73333 7.82133 10.4907 7.288 11.472C6.75467 12.432 6.488 13.5413 6.488 14.8ZM28.0145 8.656H34.0945V26H28.0145V8.656ZM31.0545 6.736C29.9452 6.736 29.0492 6.42666 28.3665 5.808C27.6838 5.18933 27.3425 4.42133 27.3425 3.504C27.3425 2.58667 27.6838 1.81867 28.3665 1.2C29.0492 0.581333 29.9452 0.271999 31.0545 0.271999C32.1638 0.271999 33.0598 0.570666 33.7425 1.168C34.4252 1.744 34.7665 2.49067 34.7665 3.408C34.7665 4.368 34.4252 5.168 33.7425 5.808C33.0598 6.42666 32.1638 6.736 31.0545 6.736ZM53.1498 21.456V26H37.1497V22.416L45.1818 13.168H37.3738V8.656H52.8298V12.208L44.7978 21.456H53.1498ZM73.2995 26.448C71.4862 26.448 69.7262 26.224 68.0195 25.776C66.3128 25.328 64.9262 24.7307 63.8595 23.984L65.9395 19.312C66.9422 19.9733 68.1048 20.5067 69.4275 20.912C70.7502 21.3173 72.0515 21.52 73.3315 21.52C75.7635 21.52 76.9795 20.912 76.9795 19.696C76.9795 19.056 76.6275 18.5867 75.9235 18.288C75.2408 17.968 74.1315 17.6373 72.5955 17.296C70.9102 16.9333 69.5022 16.5493 68.3715 16.144C67.2408 15.7173 66.2702 15.0453 65.4595 14.128C64.6488 13.2107 64.2435 11.9733 64.2435 10.416C64.2435 9.05067 64.6168 7.824 65.3635 6.736C66.1102 5.62667 67.2195 4.752 68.6915 4.112C70.1848 3.472 72.0088 3.152 74.1635 3.152C75.6355 3.152 77.0862 3.32267 78.5155 3.664C79.9448 3.984 81.2035 4.464 82.2915 5.104L80.3395 9.808C78.2062 8.656 76.1368 8.08 74.1315 8.08C72.8728 8.08 71.9555 8.272 71.3795 8.656C70.8035 9.01867 70.5155 9.49867 70.5155 10.096C70.5155 10.6933 70.8568 11.1413 71.5395 11.44C72.2222 11.7387 73.3208 12.048 74.8355 12.368C76.5422 12.7307 77.9502 13.1253 79.0595 13.552C80.1902 13.9573 81.1608 14.6187 81.9715 15.536C82.8035 16.432 83.2195 17.6587 83.2195 19.216C83.2195 20.56 82.8462 21.776 82.0995 22.864C81.3528 23.952 80.2328 24.8267 78.7395 25.488C77.2462 26.128 75.4328 26.448 73.2995 26.448ZM97.8263 25.296C97.3143 25.616 96.6849 25.8613 95.9383 26.032C95.2129 26.2027 94.4343 26.288 93.6023 26.288C91.3409 26.288 89.6023 25.7333 88.3863 24.624C87.1703 23.5147 86.5623 21.8613 86.5623 19.664V13.84H84.0343V9.296H86.5623V4.784H92.6423V9.296H96.6103V13.84H92.6423V19.6C92.6423 20.2187 92.8023 20.7093 93.1223 21.072C93.4636 21.4133 93.9116 21.584 94.4663 21.584C95.1703 21.584 95.7889 21.4027 96.3223 21.04L97.8263 25.296ZM118.411 8.656V26H112.619V24.144C111.979 24.848 111.211 25.3813 110.315 25.744C109.419 26.1067 108.469 26.288 107.467 26.288C105.227 26.288 103.435 25.6267 102.091 24.304C100.768 22.9813 100.107 20.9973 100.107 18.352V8.656H106.187V17.36C106.187 18.6613 106.432 19.6107 106.923 20.208C107.413 20.8053 108.128 21.104 109.067 21.104C110.027 21.104 110.805 20.7733 111.403 20.112C112.021 19.4293 112.331 18.3947 112.331 17.008V8.656H118.411ZM140.759 2.256V26H134.967V24.272C133.836 25.616 132.14 26.288 129.879 26.288C128.3 26.288 126.86 25.9253 125.559 25.2C124.258 24.4533 123.223 23.3973 122.455 22.032C121.708 20.6667 121.335 19.088 121.335 17.296C121.335 15.504 121.708 13.936 122.455 12.592C123.223 11.2267 124.258 10.1813 125.559 9.456C126.86 8.73067 128.3 8.368 129.879 8.368C131.948 8.368 133.548 8.96533 134.679 10.16V2.256H140.759ZM131.159 21.456C132.204 21.456 133.068 21.0933 133.751 20.368C134.434 19.6213 134.775 18.5973 134.775 17.296C134.775 16.016 134.434 15.0133 133.751 14.288C133.09 13.5627 132.226 13.2 131.159 13.2C130.092 13.2 129.218 13.5627 128.535 14.288C127.852 15.0133 127.511 16.016 127.511 17.296C127.511 18.5973 127.852 19.6213 128.535 20.368C129.218 21.0933 130.092 21.456 131.159 21.456ZM144.671 8.656H150.751V26H144.671V8.656ZM147.711 6.736C146.601 6.736 145.705 6.42666 145.023 5.808C144.34 5.18933 143.999 4.42133 143.999 3.504C143.999 2.58667 144.34 1.81867 145.023 1.2C145.705 0.581333 146.601 0.271999 147.711 0.271999C148.82 0.271999 149.716 0.570666 150.399 1.168C151.081 1.744 151.423 2.49067 151.423 3.408C151.423 4.368 151.081 5.168 150.399 5.808C149.716 6.42666 148.82 6.736 147.711 6.736ZM163.406 26.288C161.55 26.288 159.875 25.904 158.382 25.136C156.889 24.368 155.715 23.3013 154.862 21.936C154.03 20.5707 153.614 19.024 153.614 17.296C153.614 15.5893 154.03 14.0533 154.862 12.688C155.715 11.3227 156.878 10.2667 158.35 9.52C159.843 8.752 161.529 8.368 163.406 8.368C165.283 8.368 166.969 8.752 168.462 9.52C169.955 10.2667 171.118 11.3227 171.95 12.688C172.782 14.032 173.198 15.568 173.198 17.296C173.198 19.024 172.782 20.5707 171.95 21.936C171.118 23.3013 169.955 24.368 168.462 25.136C166.969 25.904 165.283 26.288 163.406 26.288ZM163.406 21.456C164.473 21.456 165.347 21.0933 166.03 20.368C166.713 19.6213 167.054 18.5973 167.054 17.296C167.054 16.016 166.713 15.0133 166.03 14.288C165.347 13.5627 164.473 13.2 163.406 13.2C162.339 13.2 161.465 13.5627 160.782 14.288C160.099 15.0133 159.758 16.016 159.758 17.296C159.758 18.5973 160.099 19.6213 160.782 20.368C161.465 21.0933 162.339 21.456 163.406 21.456Z" fill="black"/>
</svg>
