<svg width="162" height="234" viewBox="0 0 162 234" fill="none" xmlns="http://www.w3.org/2000/svg">
<path d="M146.181 205.852V145.989H15.8309V205.852C15.8309 207.325 14.925 212.127 19.0364 212.564C22.7743 212.961 72.0275 200.757 81.0113 199.64C89.9979 200.752 139.251 212.961 142.986 212.564C147.087 212.127 146.181 207.333 146.181 205.852Z" fill="#880000"/>
<path d="M146.181 203.417V145.989H15.8309V203.417C15.8309 204.893 14.925 209.696 19.0364 210.132C22.7743 210.529 72.0275 198.326 81.0113 197.205C89.9979 198.317 139.251 210.529 142.986 210.132C147.087 209.696 146.181 204.893 146.181 203.417Z" fill="url(#paint0_linear_251_3772)"/>
<g style="mix-blend-mode:multiply" opacity="0.44">
<path d="M40.9004 205.854C56.6102 202.33 75.8989 197.831 81.195 197.172C86.491 197.831 105.777 202.341 121.487 205.852V146.653H40.9004V205.854Z" fill="#391356"/>
</g>
<path d="M111.212 221.374C111.212 221.374 88.5534 234.014 80.9995 234.014C73.4457 234.014 50.7869 221.388 50.7869 221.388C49.6915 221.388 48.7939 219.82 48.7939 217.905V145.989C48.7939 144.071 50.7925 145.989 51.888 145.989H108.899C109.994 145.989 113.205 144.071 113.205 145.989V217.894C113.205 219.806 112.308 221.374 111.212 221.374Z" fill="#880000"/>
<path d="M111.212 218.942C111.212 218.942 88.5534 231.565 80.9995 231.565C73.4457 231.565 50.7869 218.942 50.7869 218.942C49.6915 218.942 48.7939 217.374 48.7939 215.459V145.978C48.7939 144.06 50.7925 145.978 51.888 145.978H108.899C109.994 145.978 113.205 144.06 113.205 145.978V215.459C113.205 217.374 112.308 218.942 111.212 218.942Z" fill="url(#paint1_linear_251_3772)"/>
<path d="M104.325 212.869C104.325 212.869 86.8317 223.022 81.0004 223.022C75.1692 223.022 57.6755 212.869 57.6755 212.869C56.8393 212.869 56.1396 211.418 56.1396 209.645V146C56.1396 144.227 57.6811 146 58.5284 146H102.539C103.375 146 105.861 144.227 105.861 146V209.645C105.864 211.418 105.17 212.869 104.325 212.869Z" fill="url(#paint2_linear_251_3772)"/>
<g style="mix-blend-mode:multiply" opacity="0.44">
<path d="M108.899 150.914H105.864C105.864 149.141 103.386 150.914 102.541 150.914H58.5284C57.6922 150.914 56.1396 149.141 56.1396 150.914H51.8888C50.7934 150.914 48.7948 148.996 48.7948 150.914H15.8311V157.145L81.0087 194.665L146.192 157.145V150.914H113.206C113.206 149.007 109.995 150.914 108.899 150.914Z" fill="#391356"/>
</g>
<path d="M80.9967 8.19336L1.98242 53.6788V144.65L80.9967 190.138L160.014 144.65V144.583V53.6788L80.9967 8.19336Z" fill="#A54700"/>
<path d="M80.9967 1.69531L1.98242 47.1807V138.152L80.9967 183.64L160.014 138.152V47.1807L80.9967 1.69531ZM124.976 117.982L80.9967 143.299L37.0144 117.982V67.3498L80.9912 42.0335L124.971 67.3498L124.976 117.982Z" fill="url(#paint3_linear_251_3772)"/>
<g style="mix-blend-mode:multiply" opacity="0.53">
<path d="M80.9971 42.0335L124.977 67.3498V117.982L80.9971 143.299V183.64L160.014 138.152V47.1807L80.9971 1.69531V42.0335Z" fill="#D58D21"/>
</g>
<g style="mix-blend-mode:multiply">
<path d="M159.981 47.1611L145.508 55.5434L144.945 129.436L160.014 138.085V47.1806L159.981 47.1611Z" fill="#D58D21"/>
</g>
<g style="mix-blend-mode:overlay" opacity="0.51">
<path d="M17.0511 55.8103L2.01308 47.1613L1.98242 47.1807L80.9967 1.69531V18.999L17.0511 55.8103Z" fill="white"/>
</g>
<path d="M80.9974 18.999L17.0518 55.8104V129.436L80.9974 166.247L144.946 129.436V55.8104L80.9974 18.999ZM131.862 121.904L80.9974 151.192L30.133 121.904V63.3422L80.9974 34.0598L131.862 63.3422V121.904Z" fill="url(#paint4_linear_251_3772)"/>
<path d="M30.133 121.904V63.3422L80.9974 34.0598V18.999L17.0518 55.8104V129.436L80.9974 166.247V151.184L30.133 121.904Z" fill="#D58D21"/>
<path d="M138.404 125.67V59.576L80.9972 26.5278L23.5908 59.576V125.67L80.9972 158.715L138.404 125.67Z" fill="url(#paint5_linear_251_3772)"/>
<path d="M26.4535 60.4876L80.8802 29.5072L138.404 61.9495V59.576L80.9972 26.5278L23.5908 59.576V125.67L26.4535 127.318V60.4876Z" fill="#A54700"/>
<path d="M144.946 55.8102L143.909 128.53L80.9975 164.674L17.9884 128.53L7.24023 135.019L17.0519 130.433L80.6742 166.511L80.9975 183.206L81.4937 166.475L144.946 129.789L160.015 138.151L145.272 129.124L145.682 56.0548L160.015 47.1806L144.946 54.9347L81.4937 18.7043L80.9975 2.01758L80.5042 19.2824L144.946 55.8102Z" fill="#FAFF8F"/>
<path d="M0.5 46.6167V70.6879L28.0813 62.4835L0.5 46.6167Z" fill="#D58D21"/>
<path d="M0.5 46.6192L21.4473 34.6489L28.0227 62.5861L0.5 46.6192Z" fill="url(#paint6_linear_251_3772)"/>
<path d="M0.5 46.6193L1.12716 46.2607L28.0227 62.5861L0.5 47.3252V46.6193Z" fill="#FAFF8F"/>
<path d="M161.5 46.6167V70.6879L133.919 62.4835L161.5 46.6167Z" fill="#D58D21"/>
<path d="M161.5 46.6192L140.553 34.6489L133.978 62.5861L161.5 46.6192Z" fill="url(#paint7_linear_251_3772)"/>
<path d="M161.5 46.6193L160.873 46.2607L133.978 62.5861L161.5 47.3252V46.6193Z" fill="#FAFF8F"/>
<path d="M161.5 138.107V114.036L133.919 122.238L161.5 138.107Z" fill="url(#paint8_linear_251_3772)"/>
<path d="M161.5 138.104L140.553 150.075L133.978 122.135L161.5 138.104Z" fill="#D58D21"/>
<path d="M161.5 138.104L160.873 138.463L133.978 122.135L161.5 137.398V138.104Z" fill="#FAFF8F"/>
<path d="M80.4287 185.999L101.596 174.424L81.1172 154.257L80.4287 185.999Z" fill="url(#paint9_linear_251_3772)"/>
<path d="M80.4289 185.999L59.8301 173.446L81.2373 154.26L80.4289 185.999Z" fill="#D58D21"/>
<path d="M80.4285 185.999L79.8125 185.624L81.2369 154.26L81.0501 185.66L80.4285 185.999Z" fill="#FAFF8F"/>
<path d="M80.9976 0L59.8301 11.5756L80.3091 31.742L80.9976 0Z" fill="url(#paint10_linear_251_3772)"/>
<path d="M80.9968 0L101.596 12.5567L80.1885 31.742L80.9968 0Z" fill="#D58D21"/>
<path d="M80.9968 0L81.6128 0.37798L80.1885 31.742L80.3752 0.341849L80.9968 0Z" fill="#FAFF8F"/>
<path d="M0.5 138.107V114.036L28.0813 122.238L0.5 138.107Z" fill="url(#paint11_linear_251_3772)"/>
<path d="M0.5 138.104L21.4473 150.075L28.0227 122.135L0.5 138.104Z" fill="#D58D21"/>
<path d="M0.5 138.104L1.12716 138.463L28.0227 122.135L0.5 137.398V138.104Z" fill="#FAFF8F"/>
<defs>
<linearGradient id="paint0_linear_251_3772" x1="81.0002" y1="185.399" x2="81.0002" y2="241.207" gradientUnits="userSpaceOnUse">
<stop stop-color="#880000"/>
<stop offset="1" stop-color="#D60000"/>
</linearGradient>
<linearGradient id="paint1_linear_251_3772" x1="80.9995" y1="192.43" x2="80.9995" y2="230.067" gradientUnits="userSpaceOnUse">
<stop stop-color="#880000"/>
<stop offset="1" stop-color="#D60000"/>
</linearGradient>
<linearGradient id="paint2_linear_251_3772" x1="81.0004" y1="221.015" x2="81.0004" y2="178.692" gradientUnits="userSpaceOnUse">
<stop offset="0.25" stop-color="#F7E436"/>
<stop offset="1" stop-color="#D58D21"/>
</linearGradient>
<linearGradient id="paint3_linear_251_3772" x1="114.161" y1="157.351" x2="47.9005" y2="27.3521" gradientUnits="userSpaceOnUse">
<stop stop-color="#CE7C1D"/>
<stop offset="1" stop-color="#F7E436"/>
</linearGradient>
<linearGradient id="paint4_linear_251_3772" x1="110.786" y1="144.808" x2="52.176" y2="41.5278" gradientUnits="userSpaceOnUse">
<stop offset="0.25" stop-color="#F7E436"/>
<stop offset="1" stop-color="#D58D21"/>
</linearGradient>
<linearGradient id="paint5_linear_251_3772" x1="69.6275" y1="59.8679" x2="112.297" y2="183.5" gradientUnits="userSpaceOnUse">
<stop stop-color="#CE7C1D"/>
<stop offset="1" stop-color="#F7E436"/>
</linearGradient>
<linearGradient id="paint6_linear_251_3772" x1="14.5596" y1="54.2372" x2="31.4723" y2="33.336" gradientUnits="userSpaceOnUse">
<stop offset="0.25" stop-color="#F7E436"/>
<stop offset="1" stop-color="#D58D21"/>
</linearGradient>
<linearGradient id="paint7_linear_251_3772" x1="147.443" y1="54.2372" x2="130.531" y2="33.336" gradientUnits="userSpaceOnUse">
<stop offset="0.25" stop-color="#F7E436"/>
<stop offset="1" stop-color="#D58D21"/>
</linearGradient>
<linearGradient id="paint8_linear_251_3772" x1="138.814" y1="111.754" x2="169.992" y2="134.255" gradientUnits="userSpaceOnUse">
<stop offset="0.25" stop-color="#F7E436"/>
<stop offset="1" stop-color="#D58D21"/>
</linearGradient>
<linearGradient id="paint9_linear_251_3772" x1="92.6893" y1="153.493" x2="88.0271" y2="191.586" gradientUnits="userSpaceOnUse">
<stop offset="0.25" stop-color="#F7E436"/>
<stop offset="1" stop-color="#D58D21"/>
</linearGradient>
<linearGradient id="paint10_linear_251_3772" x1="68.7356" y1="32.527" x2="73.3978" y2="-5.56671" gradientUnits="userSpaceOnUse">
<stop offset="0.25" stop-color="#F7E436"/>
<stop offset="1" stop-color="#D58D21"/>
</linearGradient>
<linearGradient id="paint11_linear_251_3772" x1="18.1024" y1="115.376" x2="-12.7863" y2="137.879" gradientUnits="userSpaceOnUse">
<stop offset="0.25" stop-color="#F7E436"/>
<stop offset="1" stop-color="#D58D21"/>
</linearGradient>
</defs>
</svg>
