<svg width="297" height="298" viewBox="0 0 297 298" fill="none" xmlns="http://www.w3.org/2000/svg">
<path d="M102.421 142H103.901V154.72H111.741V156H102.421V142ZM120.045 156.12C118.658 156.12 117.398 155.813 116.265 155.2C115.145 154.573 114.265 153.72 113.625 152.64C112.998 151.56 112.685 150.347 112.685 149C112.685 147.653 112.998 146.44 113.625 145.36C114.265 144.28 115.145 143.433 116.265 142.82C117.398 142.193 118.658 141.88 120.045 141.88C121.431 141.88 122.678 142.187 123.785 142.8C124.905 143.413 125.785 144.267 126.425 145.36C127.065 146.44 127.385 147.653 127.385 149C127.385 150.347 127.065 151.567 126.425 152.66C125.785 153.74 124.905 154.587 123.785 155.2C122.678 155.813 121.431 156.12 120.045 156.12ZM120.045 154.8C121.151 154.8 122.151 154.553 123.045 154.06C123.938 153.553 124.638 152.86 125.145 151.98C125.651 151.087 125.905 150.093 125.905 149C125.905 147.907 125.651 146.92 125.145 146.04C124.638 145.147 123.938 144.453 123.045 143.96C122.151 143.453 121.151 143.2 120.045 143.2C118.938 143.2 117.931 143.453 117.025 143.96C116.131 144.453 115.425 145.147 114.905 146.04C114.398 146.92 114.145 147.907 114.145 149C114.145 150.093 114.398 151.087 114.905 151.98C115.425 152.86 116.131 153.553 117.025 154.06C117.931 154.553 118.938 154.8 120.045 154.8ZM139.287 152.26H131.487L129.807 156H128.267L134.667 142H136.127L142.527 156H140.967L139.287 152.26ZM138.747 151.06L135.387 143.54L132.027 151.06H138.747ZM144.843 142H150.543C152.023 142 153.329 142.3 154.463 142.9C155.596 143.487 156.476 144.313 157.103 145.38C157.729 146.433 158.043 147.64 158.043 149C158.043 150.36 157.729 151.573 157.103 152.64C156.476 153.693 155.596 154.52 154.463 155.12C153.329 155.707 152.023 156 150.543 156H144.843V142ZM150.463 154.72C151.689 154.72 152.763 154.48 153.683 154C154.603 153.507 155.316 152.833 155.823 151.98C156.329 151.113 156.583 150.12 156.583 149C156.583 147.88 156.329 146.893 155.823 146.04C155.316 145.173 154.603 144.5 153.683 144.02C152.763 143.527 151.689 143.28 150.463 143.28H146.323V154.72H150.463ZM161.366 142H162.846V156H161.366V142ZM179.101 142V156H177.881L168.881 144.64V156H167.401V142H168.621L177.641 153.36V142H179.101ZM193.531 149H194.951V154.34C194.297 154.913 193.524 155.353 192.631 155.66C191.737 155.967 190.797 156.12 189.811 156.12C188.411 156.12 187.151 155.813 186.031 155.2C184.911 154.587 184.031 153.74 183.391 152.66C182.751 151.567 182.431 150.347 182.431 149C182.431 147.653 182.751 146.44 183.391 145.36C184.031 144.267 184.911 143.413 186.031 142.8C187.151 142.187 188.417 141.88 189.831 141.88C190.897 141.88 191.877 142.053 192.771 142.4C193.664 142.733 194.417 143.233 195.031 143.9L194.111 144.84C193.004 143.747 191.597 143.2 189.891 143.2C188.757 143.2 187.731 143.453 186.811 143.96C185.904 144.453 185.191 145.147 184.671 146.04C184.151 146.92 183.891 147.907 183.891 149C183.891 150.093 184.151 151.08 184.671 151.96C185.191 152.84 185.904 153.533 186.811 154.04C187.717 154.547 188.737 154.8 189.871 154.8C191.311 154.8 192.531 154.44 193.531 153.72V149Z" fill="white"/>
<path d="M247.963 258.707C227.101 277.73 201.237 290.395 173.418 295.21C145.598 300.025 116.982 296.79 90.94 285.885C64.8979 274.981 42.5143 256.861 26.4257 233.661C10.3371 210.461 1.2136 183.146 0.129864 154.933L11.7683 154.486C12.7669 180.48 21.173 205.648 35.9966 227.024C50.8202 248.4 71.4439 265.095 95.4385 275.142C119.433 285.189 145.799 288.17 171.431 283.734C197.063 279.297 220.894 267.628 240.116 250.101L247.963 258.707Z" fill="white"/>
<path d="M48.9622 38.7928C69.8715 19.8217 95.7669 7.22107 123.598 2.47499C151.429 -2.27109 180.037 1.0351 206.052 12.0041C232.067 22.9732 254.406 41.1482 270.437 64.3885C286.468 87.6287 295.524 114.966 296.537 143.181L284.898 143.599C283.964 117.603 275.62 92.4148 260.85 71.0018C246.079 49.5888 225.497 32.8428 201.527 22.7362C177.558 12.6296 151.199 9.58339 125.556 13.9563C99.913 18.3292 76.0537 29.9391 56.7884 47.4186L48.9622 38.7928Z" fill="white"/>
<path d="M174.109 265.431C153.706 270.424 132.363 270.108 112.116 264.513C91.869 258.918 73.3924 248.231 58.4474 233.47C43.5024 218.708 32.5873 200.365 26.7424 180.189C20.8975 160.013 20.3176 138.676 25.0582 118.212L31.7736 119.767C27.2988 139.084 27.8461 159.225 33.3634 178.271C38.8807 197.316 49.1841 214.631 63.2914 228.565C77.3987 242.499 94.8398 252.588 113.952 257.869C133.064 263.15 153.211 263.448 172.471 258.735L174.109 265.431Z" fill="white"/>
<path d="M112.114 31.4388C132.535 26.517 153.876 26.9076 174.104 32.5733C194.331 38.2391 212.77 48.9912 227.663 63.8046C242.557 78.6181 253.407 96.9992 259.182 117.196C264.956 137.392 265.461 158.731 260.649 179.179L253.939 177.6C258.481 158.298 258.005 138.155 252.554 119.091C247.103 100.026 236.861 82.6752 222.802 68.692C208.744 54.7088 191.338 44.5593 172.245 39.2111C153.151 33.8629 133.006 33.4942 113.729 38.1402L112.114 31.4388Z" fill="white"/>
<path d="M220.84 118.624C226.186 132.806 227.655 148.157 225.096 163.096C222.537 178.035 216.043 192.022 206.282 203.617C196.521 215.212 183.845 223.996 169.561 229.064C155.277 234.132 139.9 235.301 125.014 232.452L126.378 225.326C139.998 227.933 154.066 226.863 167.135 222.226C180.204 217.589 191.801 209.553 200.731 198.945C209.662 188.336 215.603 175.539 217.945 161.872C220.286 148.204 218.941 134.159 214.05 121.183L220.84 118.624Z" fill="white"/>
<path d="M61.0251 178.158C55.7893 163.934 54.4392 148.572 57.1137 133.653C59.7882 118.735 66.3907 104.798 76.2414 93.2795C86.0921 81.7606 98.8349 73.0754 113.158 68.1182C127.481 63.1609 142.866 62.1108 157.73 65.076L156.31 72.1912C142.711 69.4784 128.635 70.4392 115.531 74.9746C102.427 79.5101 90.7681 87.4563 81.7555 97.995C72.743 108.534 66.7023 121.284 64.2553 134.934C61.8084 148.583 63.0436 162.638 67.834 175.651L61.0251 178.158Z" fill="white"/>
</svg>
