<svg width="125" height="59" viewBox="0 0 125 59" fill="none" xmlns="http://www.w3.org/2000/svg">
<path d="M0.54982 58.1463H4.34182V4.36882H0.54982V58.1463Z" fill="white"/>
<path d="M51.968 47.8045C48.7506 47.8045 45.7821 47.2874 43.0626 46.2532C40.3431 45.219 37.9683 43.7635 35.9382 41.8866C33.9465 39.9715 32.3952 37.7499 31.2844 35.2219C30.1736 32.6939 29.6182 29.9169 29.6182 26.891C29.6182 23.8651 30.1736 21.0881 31.2844 18.5601C32.3952 16.0321 33.9465 13.8297 35.9382 11.9528C37.9683 10.0377 40.3431 8.563 43.0626 7.52882C45.7821 6.49464 48.7506 5.97755 51.968 5.97755C55.2238 5.97755 58.1923 6.49464 60.8735 7.52882C63.593 8.563 65.9486 10.0185 67.9404 11.8954C69.9322 13.7722 71.4834 15.9938 72.5942 18.5601C73.7433 21.0881 74.3179 23.8651 74.3179 26.891C74.3179 29.9169 73.7433 32.7131 72.5942 35.2794C71.4834 37.8074 69.9322 40.0098 67.9404 41.8866C65.9486 43.7635 63.593 45.219 60.8735 46.2532C58.1923 47.2874 55.2238 47.8045 51.968 47.8045ZM65.1251 56.7099C63.4015 56.7099 61.7928 56.5184 60.299 56.1354C58.8051 55.7906 57.3305 55.2161 55.875 54.4117C54.4577 53.6074 52.9639 52.5157 51.3935 51.1368C49.8614 49.7579 48.1377 48.0534 46.2226 46.0234L58.1157 43.0357C59.0733 44.4529 59.9351 45.5637 60.7011 46.3681C61.4672 47.1725 62.2141 47.747 62.9419 48.0917C63.7079 48.4365 64.5123 48.6088 65.355 48.6088C67.5765 48.6088 69.6066 47.6704 71.4451 45.7935L76.3862 51.6539C73.5901 55.0246 69.8364 56.7099 65.1251 56.7099ZM51.968 38.3819C53.5002 38.3819 54.9174 38.1138 56.2197 37.5775C57.5603 37.0413 58.7094 36.2752 59.667 35.2794C60.6628 34.2452 61.4289 33.0195 61.9651 31.6023C62.5397 30.1851 62.827 28.6146 62.827 26.891C62.827 25.1291 62.5397 23.5586 61.9651 22.1797C61.4289 20.7625 60.6628 19.556 59.667 18.5601C58.7094 17.5259 57.5603 16.7407 56.2197 16.2045C54.9174 15.6682 53.5002 15.4001 51.968 15.4001C50.4359 15.4001 48.9996 15.6682 47.659 16.2045C46.3567 16.7407 45.2076 17.5259 44.2117 18.5601C43.2541 19.556 42.488 20.7625 41.9135 22.1797C41.3773 23.5586 41.1091 25.1291 41.1091 26.891C41.1091 28.6146 41.3773 30.1851 41.9135 31.6023C42.488 33.0195 43.2541 34.2452 44.2117 35.2794C45.2076 36.2752 46.3567 37.0413 47.659 37.5775C48.9996 38.1138 50.4359 38.3819 51.968 38.3819Z" fill="white"/>
<path d="M79.759 47.0001V15.8597H90.6753V47.0001H79.759ZM85.2172 12.4125C83.2254 12.4125 81.6167 11.8571 80.391 10.7463C79.1653 9.63549 78.5524 8.25658 78.5524 6.60955C78.5524 4.96252 79.1653 3.58361 80.391 2.47282C81.6167 1.36203 83.2254 0.806641 85.2172 0.806641C87.2089 0.806641 88.8176 1.34288 90.0434 2.41537C91.2691 3.44955 91.8819 4.79016 91.8819 6.43719C91.8819 8.16082 91.2691 9.59719 90.0434 10.7463C88.856 11.8571 87.2472 12.4125 85.2172 12.4125Z" fill="white"/>
<path d="M96.1609 47.0001V40.5652L113.627 20.4561L115.466 23.9608H96.5631V15.8597H124.314V22.2372L106.79 42.4037L104.951 38.8415H124.888V47.0001H96.1609Z" fill="white"/>
</svg>
