<svg width="282" height="215" viewBox="0 0 282 215" fill="none" xmlns="http://www.w3.org/2000/svg">
<g style="mix-blend-mode:multiply" opacity="0.3">
<path opacity="0.02" d="M69.1636 209.995V88.2769H34.0082V61.3694H35.9551C48.6276 61.3694 58.7431 58.964 66.3014 54.1532C73.8598 49.3424 78.8963 42.1279 81.4111 32.5098H108.551V209.995H69.1636Z" fill="#FCFAFA"/>
<path opacity="0.04" d="M68.5395 209.535V87.8222H33.3894V60.9042H35.3363C48.0088 60.9042 58.1225 58.5005 65.6773 53.6932C73.2321 48.8859 78.2705 41.6715 80.7923 32.0498H107.933V209.535H68.5395Z" fill="#F9F5F5"/>
<path opacity="0.06" d="M67.931 209.07V87.3512H32.7651V60.4437H34.712C47.381 60.4437 57.4964 58.0383 65.0583 53.2275C72.6202 48.4167 77.6585 41.204 80.1732 31.5894H107.308V209.07H67.931Z" fill="#F6F1F1"/>
<path opacity="0.08" d="M67.3013 208.61V86.8912H32.1459V59.9837H34.0717C46.7442 59.9837 56.8578 57.5783 64.4127 52.7674C71.9675 47.9566 77.0199 40.7421 79.57 31.124H106.71V208.61H67.3013Z" fill="#F3ECEC"/>
<path opacity="0.1" d="M66.6772 208.149V86.4305H31.5271V59.5178H33.474C46.1465 59.5178 56.2602 57.1141 63.815 52.3068C71.3698 47.4995 76.4081 40.2921 78.93 30.6846H106.07V208.149H66.6772Z" fill="#F0E7E7"/>
<path opacity="0.12" d="M66.0584 207.683V85.965H30.8977V59.0575H32.8446C45.5136 59.0575 55.629 56.6521 63.1909 51.8413C70.7528 47.0304 75.7911 39.8177 78.3059 30.2031H105.441V207.683H66.0584Z" fill="#EDE2E2"/>
<path opacity="0.14" d="M65.4337 207.223V85.5049H30.2836V58.5975H32.2305C44.903 58.5975 55.0167 56.192 62.5715 51.3812C70.1264 46.5704 75.1647 39.3559 77.6865 29.7378H104.827V207.223H65.4337Z" fill="#EADEDE"/>
<path opacity="0.16" d="M64.8149 206.763V85.0445H29.6648V58.1317H31.6064C44.2754 58.1317 54.3908 55.7281 61.9527 50.9208C69.5146 46.1135 74.5529 38.899 77.0677 29.2773H104.208V206.763H64.8149Z" fill="#E7D9D9"/>
<path opacity="0.18" d="M64.1958 206.298V84.5792H29.0404V57.6664H30.9873C43.6598 57.6664 53.7753 55.261 61.3336 50.4501C68.892 45.6393 73.9303 38.4266 76.4486 28.812H103.584V206.298H64.1958Z" fill="#E4D4D4"/>
<path opacity="0.2" d="M63.5717 205.837V84.1187H28.4216V57.2112H30.3685C43.041 57.2112 53.1547 54.8058 60.7095 49.995C68.2644 45.1842 73.3027 37.9697 75.8245 28.3516H102.965V205.837H63.5717Z" fill="#E1CFCF"/>
<path opacity="0.22" d="M62.9526 205.377V83.6583H27.7972V56.7455H29.7441C42.4131 56.7455 52.5285 54.3418 60.0904 49.5345C67.6523 44.7272 72.6906 37.5128 75.2054 27.8911H102.319V205.377H62.9526Z" fill="#DECBCB"/>
<path opacity="0.24" d="M62.3337 204.911V83.193H27.1942V56.2855H29.1411C41.8136 56.2855 51.929 53.8801 59.4874 49.0693C67.0458 44.2585 72.0841 37.0458 74.6024 27.4312H101.737V204.911H62.3337Z" fill="#DBC6C6"/>
<path opacity="0.25" d="M61.7093 204.451V82.7327H26.5593V55.8252H28.5062C41.1751 55.8252 51.2888 53.4198 58.8472 48.609C66.4055 43.7982 71.4439 36.589 73.9621 26.9814H101.102V204.451H61.7093Z" fill="#D9C1C1"/>
<path opacity="0.27" d="M61.0903 203.991V82.2725H25.9349V55.3597H27.8818C40.5543 55.3597 50.6698 52.9561 58.2281 48.1488C65.7865 43.3415 70.8248 36.127 73.3431 26.5054H100.478V203.991H61.0903Z" fill="#D6BCBC"/>
<path opacity="0.29" d="M60.4712 203.525V81.8068H25.3158V54.8993H27.2627C39.9352 54.8993 50.0506 52.4939 57.609 47.6831C65.1673 42.8722 70.2039 35.6595 72.7186 26.0449H99.8589V203.525H60.4712Z" fill="#D3B8B8"/>
<path opacity="0.31" d="M59.847 203.065V81.3467H24.697V54.4393H26.665C39.334 54.4393 49.4476 52.0338 57.006 47.223C64.5644 42.4122 69.6027 35.1977 72.121 25.5796H99.2612V203.065H59.847Z" fill="#D0B3B3"/>
<path opacity="0.33" d="M59.2282 202.626V80.8861H24.0729V53.9628H26.0198C38.6923 53.9628 48.8077 51.5591 56.3661 46.7518C63.9245 41.9445 68.9628 34.7301 71.4811 25.1084H98.616V202.626H59.2282Z" fill="#CDAEAE"/>
<path opacity="0.35" d="M58.6092 202.139V80.4153H23.4538V53.5131H25.4007C38.0697 53.5131 48.1834 51.1077 55.7417 46.2968C63.3001 41.486 68.3384 34.2733 70.8567 24.6587H97.9969V202.139H58.6092Z" fill="#CAA9A9"/>
<path opacity="0.37" d="M57.985 201.679V79.9605H22.835V53.053H24.7819C37.4508 53.053 47.5645 50.6476 55.1229 45.8368C62.6812 41.026 67.7195 33.8115 70.2378 24.1934H97.3781V201.679H57.985Z" fill="#C7A4A4"/>
<path opacity="0.39" d="M57.3501 201.219V79.5001H22.2106V52.5873H24.1575C36.83 52.5873 46.9454 50.1836 54.5038 45.3763C62.0621 40.569 67.1004 33.3546 69.6187 23.7329H96.7537V201.219H57.3501Z" fill="#C4A0A0"/>
<path opacity="0.41" d="M56.7415 200.753V79.0344H21.5914V52.1269H23.5384C36.2073 52.1269 46.321 49.7215 53.8794 44.9107C61.4377 40.0999 66.4743 32.8889 68.989 23.2778H96.1293V200.753H56.7415Z" fill="#C19B9B"/>
<path opacity="0.43" d="M56.1227 200.293V78.5743H20.9726V51.6668H22.9142C35.5867 51.6668 45.7022 49.2614 53.2605 44.4506C60.8189 39.6397 65.8572 32.4253 68.3755 22.8071H95.5157V200.293H56.1227Z" fill="#BE9696"/>
<path opacity="0.45" d="M55.5036 199.832V78.1138H20.3483V51.2011H22.2952C34.9677 51.2011 45.0831 48.7974 52.6415 43.9901C60.1998 39.1828 65.2381 31.9683 67.7564 22.3467H94.9126V199.832H55.5036Z" fill="#BB9191"/>
<path opacity="0.47" d="M54.8792 199.367V77.6486H19.7291V50.7411H21.676C34.345 50.7411 44.4587 48.3357 52.017 43.5249C59.5754 38.714 64.6137 31.5013 67.132 21.8867H94.2722V199.367H54.8792Z" fill="#B88D8D"/>
<path opacity="0.49" d="M54.2604 198.923V77.1882H19.105V50.2596H21.0519C33.7244 50.2596 43.8399 47.8542 51.3982 43.0433C58.9566 38.2325 63.9949 31.018 66.5132 21.3999H93.6481V198.923H54.2604Z" fill="#B58888"/>
<path opacity="0.51" d="M53.6469 198.447V76.7122H18.4862V49.8153H20.4331C33.1021 49.8153 43.2175 47.4117 50.7794 42.6044C58.3413 37.7971 63.3796 30.5826 65.8944 20.9609H93.0293V198.447H53.6469Z" fill="#B28383"/>
<path opacity="0.53" d="M53.0169 197.981V76.2623H17.8668V49.3549H19.8137C32.4862 49.3549 42.5999 46.9495 50.1547 42.1386C57.7096 37.3278 62.7532 30.1151 65.2856 20.5005H92.4258V197.981H53.0169Z" fill="#AF7E7E"/>
<path opacity="0.55" d="M52.3981 197.521V75.8023H17.2427V48.8948H19.1896C31.8621 48.8948 41.9776 46.4894 49.5359 41.6786C57.0943 36.8678 62.1326 29.6533 64.6509 20.0352H91.7859V197.521H52.3981Z" fill="#AC7A7A"/>
<path opacity="0.57" d="M51.779 197.06V75.3419H16.6131V48.4291H18.56C31.229 48.4291 41.3444 46.0254 48.9063 41.2181C56.4682 36.4108 61.5083 29.1964 64.0265 19.5747H91.1668V197.06H51.779Z" fill="#A97575"/>
<path opacity="0.59" d="M51.1546 196.595V74.8761H16.0045V47.9686H17.9514C30.624 47.9686 40.7376 45.5632 48.2924 40.7524C55.8473 35.9416 60.8856 28.7289 63.4074 19.1143H90.5476V196.595H51.1546Z" fill="#A67070"/>
<path opacity="0.61" d="M50.5358 196.135V74.4161H15.3804V47.5086H17.3273C29.9963 47.5086 40.1118 45.1032 47.6737 40.2924C55.2355 35.4815 60.2739 28.2671 62.7886 18.6489H89.9236V196.135H50.5358Z" fill="#A36B6B"/>
<path opacity="0.63" d="M49.9434 195.674V73.9556H14.7616V47.0429H16.7085C29.381 47.0429 39.4947 44.6392 47.0495 39.8319C54.6044 35.0246 59.6426 27.8101 62.1644 18.1885H89.3047V195.674H49.9434Z" fill="#A06767"/>
<path opacity="0.65" d="M49.2925 195.219V73.4899H14.1425V46.5824H16.0841C28.7566 46.5824 38.8702 44.177 46.4251 39.3662C53.9799 34.5553 59.0182 27.3426 61.54 17.728H88.6803V195.219H49.2925Z" fill="#9D6262"/>
<path opacity="0.67" d="M48.6735 194.748V73.0087H13.5181V46.1224H15.465C28.134 46.1224 38.2494 43.7169 45.8113 38.9061C53.3732 34.0953 58.4115 26.8808 60.9263 17.2627H88.0612V194.748H48.6735Z" fill="#9A5D5D"/>
<path opacity="0.69" d="M48.0493 194.288V72.5694H12.9099V45.6566H14.8568C27.5293 45.6566 37.6429 43.253 45.1978 38.4457C52.7526 33.6384 57.7909 26.4239 60.3127 16.8022H87.453V194.288H48.0493Z" fill="#975858"/>
<path opacity="0.71" d="M47.4302 193.823V72.1041H12.2802V45.1967H14.2218C26.8907 45.1967 37.0062 42.7913 44.5681 37.9804C52.13 33.1696 57.1683 25.9569 59.683 16.3423H86.8233V193.823H47.4302Z" fill="#945353"/>
<path opacity="0.73" d="M46.8112 193.362V71.6435H11.6558V44.7361H13.6027C26.2752 44.7361 36.3907 42.3306 43.949 37.5198C51.5074 32.709 56.5457 25.4927 59.064 15.8711H86.199V193.362H46.8112Z" fill="#914F4F"/>
<path opacity="0.75" d="M46.1871 192.902V71.1836H11.037V44.2709H12.9839C25.6564 44.2709 35.7701 41.8672 43.3249 37.0599C50.8797 32.2526 55.918 25.0382 58.4398 15.4165H85.5801V192.902H46.1871Z" fill="#8E4A4A"/>
<path opacity="0.76" d="M45.5682 192.436V70.7179H10.4128V43.8104H12.3809C25.0499 43.8104 35.1653 41.405 42.7272 36.5942C50.2891 31.7834 55.3274 24.5707 57.8421 14.9561H84.9771V192.436H45.5682Z" fill="#8C4545"/>
<path opacity="0.78" d="M44.9488 191.976V70.2579H9.79346V43.3504H11.7404C24.4129 43.3504 34.5283 40.945 42.0867 36.1342C49.645 31.3233 54.6833 24.1088 57.2016 14.4907H84.3313V191.976H44.9488Z" fill="#894040"/>
<path opacity="0.8" d="M44.3247 191.516V69.7974H9.17462V42.8846H11.1215C23.794 42.8846 33.9077 40.481 41.4625 35.6737C49.0173 30.8664 54.0557 23.6519 56.5775 14.0303H83.7178V191.516H44.3247Z" fill="#863C3C"/>
<path opacity="0.82" d="M43.7059 191.05V69.3317H8.55054V42.4242H10.4974C23.1664 42.4242 33.2818 40.0188 40.8437 35.208C48.4056 30.3971 53.4439 23.1844 55.9587 13.5698H83.0936V191.05H43.7059Z" fill="#833737"/>
<path opacity="0.84" d="M43.0656 190.59V68.8716H7.93146V41.9642H9.87836C22.5509 41.9642 32.6663 39.5587 40.2246 34.7479C47.783 29.9371 52.8196 22.7226 55.3343 13.1045H82.4746V190.59H43.0656Z" fill="#803232"/>
<path opacity="0.86" d="M42.4627 190.13V68.4112H7.31262V41.4984H9.25952C21.9285 41.4984 32.0422 39.0948 39.6006 34.2875C47.1589 29.4802 52.1937 22.2657 54.7049 12.644H81.8452V190.13H42.4627Z" fill="#7D2D2D"/>
<path opacity="0.88" d="M41.8436 189.664V67.9457H6.68823V41.0382H8.63513C21.3076 41.0382 31.4231 38.6328 38.9815 33.822C46.5398 29.0112 51.5781 21.7931 54.0964 12.168H81.2314V189.664H41.8436Z" fill="#7A2929"/>
<path opacity="0.9" d="M41.2245 189.204V67.4854H6.06915V40.5779H8.01605C20.6886 40.5779 30.8022 38.1725 38.357 33.3617C45.9119 28.5509 50.9502 21.3364 53.472 11.7183H80.6281V189.204H41.2245Z" fill="#772424"/>
<path opacity="0.92" d="M40.6004 188.743V67.025H5.45032V40.1122H7.39722C20.0662 40.1122 30.1799 37.7085 37.7382 32.9012C45.2966 28.0939 50.3349 20.8795 52.8532 11.2578H79.9934V188.743H40.6004Z" fill="#741F1F"/>
<path opacity="0.94" d="M39.9815 188.278V66.5596H4.82617V39.6786H6.7731C19.4456 39.6786 29.561 37.2732 37.1194 32.4624C44.6778 27.6515 49.7161 20.4388 52.2344 10.8242H79.3693V188.278H39.9815Z" fill="#711A1A"/>
<path opacity="0.96" d="M39.3622 187.812V66.0992H4.20685V39.1917H6.15375C18.8227 39.1917 28.9364 36.7863 36.4948 31.9755C44.0531 27.1646 49.0915 19.9502 51.6097 10.332H78.75V187.812H39.3622Z" fill="#6E1616"/>
<path opacity="0.98" d="M38.7381 187.358V65.6392H3.58801V38.7264H5.52962C18.2021 38.7264 28.3176 36.3228 35.8759 31.5155C43.4343 26.7082 48.4761 19.4937 51.0015 9.87207H78.1417V187.358H38.7381Z" fill="#6B1111"/>
<path d="M38.1194 186.892V65.1735H2.96399V38.266H4.91089C17.5834 38.266 27.6988 35.8606 35.2572 31.0498C42.8155 26.2389 47.8539 19.0262 50.3721 9.41162H77.5071V186.892H38.1194Z" fill="#680C0C"/>
</g>
<path d="M35.2307 183.458V61.7399H0.0753174V34.8324H2.02222C14.6947 34.8324 24.8102 32.427 32.3685 27.6162C39.9269 22.8053 44.9652 15.5926 47.4835 5.97803H74.6184V183.458H35.2307Z" fill="#AAA59F"/>
<path d="M35.2307 179.454V57.7301H0.0753174V30.8226H2.02222C14.6947 30.8226 24.8102 28.419 32.3685 23.6117C39.9269 18.8044 44.9652 11.5899 47.4835 1.96826H74.6184V179.454H35.2307Z" fill="#F1F1F0"/>
<g style="mix-blend-mode:multiply" opacity="0.3">
<path opacity="0.02" d="M153.542 208.028V86.3091H118.386V59.4017H120.333C133.006 59.4017 143.121 56.9962 150.679 52.1854C158.238 47.3746 163.28 40.1601 165.805 30.542H192.94V208.028H153.542Z" fill="#FCFAFA"/>
<path opacity="0.04" d="M152.923 207.568V85.8492H117.767V58.9364H119.714C132.387 58.9364 142.501 56.5328 150.055 51.7255C157.61 46.9182 162.649 39.7037 165.17 30.082H192.311V207.568H152.923Z" fill="#F9F5F5"/>
<path opacity="0.06" d="M152.298 207.102V85.3835H117.133V58.476H119.079C131.748 58.476 141.862 56.0706 149.42 51.2598C156.979 46.449 162.022 39.238 164.551 29.627H191.691V207.102H152.298Z" fill="#F6F1F1"/>
<path opacity="0.08" d="M151.679 206.642V84.9234H116.524V58.0159H118.471C131.143 58.0159 141.259 55.6105 148.817 50.7997C156.376 45.9888 161.414 38.7744 163.932 29.1562H191.067V206.642H151.679Z" fill="#F3ECEC"/>
<path opacity="0.1" d="M151.055 206.181V84.4629H115.905V57.5502H117.852C130.521 57.5502 140.635 55.1465 148.193 50.3392C155.751 45.5319 160.79 38.3175 163.308 28.6958H190.448V206.181H151.055Z" fill="#F0E7E7"/>
<path opacity="0.12" d="M150.463 205.716V83.9972H115.286V57.0897H117.233C129.902 57.0897 140.016 54.6843 147.574 49.8735C155.132 45.0627 160.171 37.85 162.689 28.2354H189.829V205.716H150.463Z" fill="#EDE2E2"/>
<path opacity="0.14" d="M149.817 205.271V83.5368H114.662V56.6082H116.604C129.276 56.6082 139.391 54.2028 146.95 49.392C154.508 44.5811 159.547 37.3667 162.065 27.7485H189.2V205.271H149.817Z" fill="#EADEDE"/>
<path opacity="0.16" d="M149.193 204.795V83.0608H114.043V56.1639H115.99C128.659 56.1639 138.773 53.7603 146.331 48.953C153.889 44.1457 158.928 36.9312 161.446 27.3096H188.586V204.795H149.193Z" fill="#E7D9D9"/>
<path opacity="0.18" d="M148.574 204.33V82.6115H113.429V55.704H115.376C128.049 55.704 138.164 53.2986 145.722 48.4877C153.281 43.6769 158.319 36.4642 160.837 26.8496H187.972V204.33H148.574Z" fill="#E4D4D4"/>
<path opacity="0.2" d="M147.955 203.869V82.1509H112.8V55.2435H114.747C127.419 55.2435 137.534 52.838 145.093 48.0272C152.651 43.2164 157.689 36.0019 160.208 26.3838H187.343V203.869H147.955Z" fill="#E1CFCF"/>
<path opacity="0.22" d="M147.331 203.409V81.691H112.181V54.7782H114.128C126.797 54.7782 136.91 52.3746 144.469 47.5673C152.027 42.76 157.065 35.5455 159.584 25.9238H186.724V203.409H147.331Z" fill="#DECBCB"/>
<path opacity="0.24" d="M146.711 202.944V81.2252H111.556V54.3178H113.503C126.176 54.3178 136.291 51.9123 143.849 47.1015C151.408 42.2907 156.446 35.078 158.964 25.4634H186.099V202.944H146.711Z" fill="#DBC6C6"/>
<path opacity="0.25" d="M146.093 202.483V80.7647H110.937V53.8572H112.9C125.569 53.8572 135.685 51.4518 143.246 46.641C150.808 41.8302 155.841 34.6157 158.345 24.9976H185.48V202.483H146.093Z" fill="#D9C1C1"/>
<path opacity="0.27" d="M145.469 202.023V80.3047H110.318V53.392H112.265C124.938 53.392 135.052 50.9883 142.606 46.181C150.161 41.3737 155.2 34.1593 157.721 24.5376H184.851V202.023H145.469Z" fill="#D6BCBC"/>
<path opacity="0.29" d="M144.849 201.568V79.839H109.694V52.9315H111.641C124.313 52.9315 134.429 50.5261 141.987 45.7153C149.546 40.9045 154.584 33.6917 157.102 24.0771H184.237V201.568H144.849Z" fill="#D3B8B8"/>
<path opacity="0.31" d="M144.231 201.097V79.3578H109.075V52.4715H111.022C123.691 52.4715 133.805 50.0661 141.363 45.2552C148.922 40.4444 153.96 33.2299 156.478 23.6118H183.618V201.097H144.231Z" fill="#D0B3B3"/>
<path opacity="0.33" d="M143.585 200.637V78.9185H108.456V52.0057H110.403C123.076 52.0057 133.189 49.6021 140.744 44.7948C148.299 39.9875 153.337 32.773 155.859 23.1514H182.999V200.637H143.585Z" fill="#CDAEAE"/>
<path opacity="0.35" d="M142.987 200.171V78.4528H107.832V51.5453H109.779C122.448 51.5453 132.563 49.1399 140.125 44.3291C147.687 39.5182 152.72 32.3055 155.224 22.6909H182.359V200.171H142.987Z" fill="#CAA9A9"/>
<path opacity="0.37" d="M142.363 199.711V77.9927H107.213V51.0852H109.16C121.832 51.0852 131.946 48.6798 139.501 43.8689C147.056 39.0581 152.094 31.8419 154.616 22.2202H181.756V199.711H142.363Z" fill="#C7A4A4"/>
<path opacity="0.39" d="M141.744 199.251V77.5323H106.594V50.6195H108.536C121.208 50.6195 131.324 48.2159 138.882 43.4086C146.44 38.6013 151.479 31.3868 153.997 21.7651H181.148V199.251H141.744Z" fill="#C4A0A0"/>
<path opacity="0.41" d="M141.125 198.786V77.067H105.969V50.1596H107.916C120.585 50.1596 130.701 47.7541 138.263 42.9433C145.825 38.1325 150.863 30.9198 153.378 21.3052H180.513V198.786H141.125Z" fill="#C19B9B"/>
<path opacity="0.43" d="M140.501 198.325V76.6065H105.351V49.699H107.298C119.97 49.699 130.084 47.2936 137.639 42.4828C145.193 37.672 150.232 30.4575 152.754 20.8394H179.894V198.325H140.501Z" fill="#BE9696"/>
<path opacity="0.45" d="M139.882 197.865V76.146H104.726V49.2333H106.673C119.342 49.2333 129.458 46.8296 137.019 42.0223C144.581 37.215 149.62 30.0006 152.134 20.3789H179.269V197.865H139.882Z" fill="#BB9191"/>
<path opacity="0.47" d="M139.263 197.399V75.6808H104.107V48.7733H106.054C118.727 48.7733 128.842 46.3679 136.4 41.5571C143.959 36.7463 148.999 29.5335 151.521 19.9189H178.656V197.399H139.263Z" fill="#B88D8D"/>
<path opacity="0.49" d="M138.638 196.939V75.2203H103.488V48.3128H105.435C118.108 48.3128 128.221 45.9074 135.776 41.0966C143.331 36.2857 148.369 29.0713 150.891 19.4531H178.031V196.939H138.638Z" fill="#B58888"/>
<path opacity="0.51" d="M138.019 196.479V74.7603H102.848V47.8475H104.795C117.464 47.8475 127.579 45.4439 135.141 40.6366C142.703 35.8293 147.747 28.6148 150.272 18.9932H177.407V196.479H138.019Z" fill="#B28383"/>
<path opacity="0.53" d="M137.4 196.013V74.2948H102.245V47.3873H104.192C116.864 47.3873 126.98 44.9819 134.538 40.1711C142.096 35.3603 147.135 28.1423 149.653 18.5171H176.788V196.013H137.4Z" fill="#AF7E7E"/>
<path opacity="0.55" d="M136.776 195.553V73.8345H101.626V46.927H103.573C116.245 46.927 126.359 44.5216 133.914 39.7108C141.469 34.9 146.507 27.6855 149.029 18.0674H176.169V195.553H136.776Z" fill="#AC7A7A"/>
<path opacity="0.57" d="M136.178 195.093V73.3741H101.002V46.4613H102.949C115.618 46.4613 125.733 44.0577 133.295 39.2504C140.857 34.4431 145.895 27.2286 148.41 17.6069H175.545V195.093H136.178Z" fill="#A97575"/>
<path opacity="0.59" d="M135.538 194.627V72.9083H100.383V46.0272H102.319C114.991 46.0272 125.105 43.6218 132.66 38.811C140.215 34.0002 145.253 26.7875 147.775 17.1729H174.915V194.627H135.538Z" fill="#A67070"/>
<path opacity="0.61" d="M134.914 194.161V72.4483H99.7637V45.5408H101.711C114.38 45.5408 124.493 43.1354 132.052 38.3246C139.61 33.5138 144.648 26.2993 147.167 16.6812H174.307V194.161H134.914Z" fill="#A36B6B"/>
<path opacity="0.63" d="M134.295 193.706V71.9878H99.1449V45.0751H101.092C113.764 45.0751 123.88 42.6714 131.438 37.8641C138.996 33.0568 144.033 25.8424 146.548 16.2207H173.683V193.706H134.295Z" fill="#A06767"/>
<path opacity="0.65" d="M133.671 193.241V71.5226H98.5205V44.6151H100.467C113.14 44.6151 123.254 42.2097 130.808 37.3989C138.363 32.5881 143.402 25.3753 145.923 15.7607H173.064V193.241H133.671Z" fill="#9D6262"/>
<path opacity="0.67" d="M133.052 192.781V71.0621H97.9017V44.1546H99.8433C112.512 44.1546 122.628 41.7492 130.19 36.9383C137.751 32.1275 142.79 24.913 145.305 15.2949H172.445V192.781H133.052Z" fill="#9A5D5D"/>
<path opacity="0.69" d="M132.433 192.32V70.6018H97.2773V43.689H99.2242C111.897 43.689 122.012 41.2854 129.571 36.4781C137.129 31.6708 142.167 24.4492 144.685 14.8135H171.82V192.32H132.433Z" fill="#975858"/>
<path opacity="0.71" d="M131.808 191.855V70.1364H96.6582V43.2289H98.6157C111.285 43.2289 121.398 40.8235 128.957 36.0126C136.515 31.2018 141.553 23.9891 144.072 14.3745H171.212V191.855H131.808Z" fill="#945353"/>
<path opacity="0.73" d="M131.189 191.394V69.6758H96.0338V42.7684H97.9807C110.653 42.7684 120.769 40.3629 128.327 35.5521C135.885 30.7413 140.924 23.5268 143.442 13.9087H170.566V191.394H131.189Z" fill="#914F4F"/>
<path opacity="0.75" d="M130.571 190.934V69.2159H95.4416V42.3243H97.3885C110.043 42.3243 120.152 39.9136 127.714 35.0922C135.276 30.2708 140.314 23.0563 142.829 13.4487H169.964V190.934H130.571Z" fill="#8E4A4A"/>
<path opacity="0.76" d="M129.946 190.458V68.7766H94.7959V41.8427H96.7428C109.412 41.8427 119.525 39.4372 127.084 34.6264C134.642 29.8156 139.68 22.6029 142.199 12.9883H169.339V190.458H129.946Z" fill="#8C4545"/>
<path opacity="0.78" d="M129.327 190.009V68.2901H94.1718V41.3826H96.1187C108.791 41.3826 118.907 38.9772 126.465 34.1664C134.023 29.3556 139.062 22.1411 141.58 12.5229H168.715V190.009H129.327Z" fill="#894040"/>
<path opacity="0.8" d="M128.708 189.548V67.8296H93.5529V40.9169H95.4998C108.169 40.9169 118.284 38.5132 125.846 33.7059C133.408 28.8986 138.439 21.6842 140.94 12.0625H168.075V189.548H128.708Z" fill="#863C3C"/>
<path opacity="0.82" d="M128.084 189.082V67.3639H92.9338V40.4564H94.8807C107.55 40.4564 117.663 38.051 125.222 33.2402C132.78 28.4294 137.818 21.2167 140.337 11.6021H167.477V189.082H128.084Z" fill="#833737"/>
<path opacity="0.84" d="M127.465 188.622V66.9039H92.3094V39.9964H94.2563C106.929 39.9964 117.044 37.591 124.603 32.7801C132.161 27.9693 137.199 20.7548 139.718 11.1367H166.863V188.622H127.465Z" fill="#803232"/>
<path opacity="0.86" d="M126.846 188.162V66.4434H91.6906V39.5306H93.6375C106.307 39.5306 116.42 37.127 123.979 32.3197C131.537 27.5124 136.575 20.2979 139.093 10.6763H166.234V188.162H126.846Z" fill="#7D2D2D"/>
<path opacity="0.88" d="M126.222 187.697V65.9782H91.0715V39.0707H93.0184C105.691 39.0707 115.805 36.6653 123.359 31.8544C130.914 27.0436 135.953 19.8309 138.474 10.2163H165.615V187.697H126.222Z" fill="#7A2929"/>
<path opacity="0.9" d="M125.597 187.236V65.5178H90.4471V38.6209H92.394C105.067 38.6209 115.182 36.2155 122.74 31.4047C130.299 26.5938 135.337 19.3794 137.855 9.76123H164.99V187.236H125.597Z" fill="#772424"/>
<path opacity="0.92" d="M124.978 186.755V65.0731H89.8283V38.1444H91.7752C104.444 38.1444 114.558 35.7408 122.116 30.9335C129.675 26.1262 134.715 18.9117 137.236 9.29004H164.377V186.755H124.978Z" fill="#741F1F"/>
<path opacity="0.94" d="M124.359 186.31V64.5919H89.2092V37.6845H91.1509C103.823 37.6845 113.939 35.279 121.497 30.4682C129.056 25.6574 134.094 18.4447 136.612 8.83008H163.752V186.31H124.359Z" fill="#711A1A"/>
<path opacity="0.96" d="M123.741 185.85V64.1314H88.564V37.2239H90.5109C103.18 37.2239 113.295 34.8185 120.857 30.0077C128.419 25.1969 133.457 17.9824 135.972 8.36426H163.107V185.85H123.741Z" fill="#6E1616"/>
<path opacity="0.98" d="M123.116 185.39V63.6714H87.966V36.7587H89.9129C102.585 36.7587 112.699 34.355 120.254 29.5477C127.809 24.7404 132.847 17.5259 135.369 7.9043H162.509V185.39H123.116Z" fill="#6B1111"/>
<path d="M122.497 184.924V63.2057H87.342V36.2982H89.2889C101.961 36.2982 112.077 33.8928 119.635 29.082C127.194 24.2712 132.232 17.0584 134.75 7.44385H161.885V184.924H122.497Z" fill="#680C0C"/>
</g>
<path d="M119.609 181.491V59.7827H84.4586V32.8646H86.4055C99.078 32.8646 109.192 30.4592 116.746 25.6484C124.301 20.8376 129.34 13.6249 131.861 4.01025H159.002V181.491H119.609Z" fill="#AAA59F"/>
<path d="M119.609 177.486V55.7619H84.4586V28.8544H86.4055C99.078 28.8544 109.192 26.4507 116.746 21.6434C124.301 16.8361 129.34 9.62165 131.861 0H159.002V177.486H119.609Z" fill="#F1F1F0"/>
<path style="mix-blend-mode:multiply" opacity="0.15" d="M132.859 198.886C160.207 191.261 180.111 176.95 177.315 166.922C174.519 156.894 150.082 154.946 122.733 162.572C95.3846 170.197 75.4809 184.508 78.277 194.536C81.0732 204.564 105.51 206.512 132.859 198.886Z" fill="url(#paint0_radial_212_2790)"/>
<path style="mix-blend-mode:multiply" opacity="0.15" d="M140.616 196.724C167.964 189.099 187.868 174.788 185.072 164.76C182.276 154.732 157.839 152.784 130.49 160.41C103.142 168.035 83.238 182.346 86.0341 192.374C88.8302 202.402 113.267 204.35 140.616 196.724Z" fill="url(#paint1_radial_212_2790)"/>
<path style="mix-blend-mode:multiply" opacity="0.15" d="M151.413 193.595C177.649 182.743 195.692 166.148 191.713 156.528C187.735 146.907 163.24 147.905 137.004 158.757C110.768 169.608 92.7248 186.204 96.7037 195.824C100.683 205.444 125.177 204.446 151.413 193.595Z" fill="url(#paint2_radial_212_2790)"/>
<path style="mix-blend-mode:multiply" opacity="0.15" d="M162.835 185.74C186.231 169.655 200.415 149.661 194.517 141.082C188.619 132.504 164.872 138.589 141.476 154.674C118.08 170.76 103.896 190.754 109.794 199.332C115.692 207.911 139.439 201.825 162.835 185.74Z" fill="url(#paint3_radial_212_2790)"/>
<path d="M144.241 93.9537C97.2458 125.739 182.407 160.402 95.6904 191.034C201.442 184.823 160.928 127.395 150.056 90.6577C148.038 91.6102 146.095 92.7119 144.241 93.9537Z" fill="url(#paint4_linear_212_2790)"/>
<path d="M156.002 63.2533C154.359 64.4543 152.903 65.8912 151.68 67.5175C144.855 74.8607 132.063 91.3247 129.38 113.836C130.518 107.127 134.591 100.483 144.241 93.9541C146.096 92.7121 148.042 91.6104 150.061 90.6581C184.978 73.9983 248.707 93.9541 248.707 93.9541L281.075 57.0264C281.075 57.0264 190.634 37.6262 156.002 63.2533Z" fill="url(#paint5_linear_212_2790)"/>
<g opacity="0.3">
<path d="M241.417 76.9558C242.42 78.03 243.672 78.8405 245.063 79.3153C246.65 79.8444 247.708 79.3524 248.073 78.2837C248.438 77.215 247.888 76.4743 246.184 75.1094C243.814 73.2154 242.359 70.9511 243.084 68.4963C243.936 65.6394 247.284 64.6236 251.422 66.2425C252.928 66.7819 254.313 67.6144 255.495 68.692C254.633 69.639 254.215 70.1204 253.379 71.0992C252.463 70.2053 251.369 69.5149 250.168 69.0729C248.485 68.4434 247.401 68.856 247.115 69.6813C246.755 70.7077 247.56 71.5383 249.39 73.0567C251.887 75.1253 252.527 76.9029 251.654 79.1196C250.628 81.7648 248.052 83.6218 243.951 82.4103C242.426 81.9542 241.039 81.125 239.915 79.9978C240.507 78.7704 240.804 78.1567 241.417 76.9558Z" fill="black"/>
</g>
<path d="M241.406 76.3152C242.408 77.3883 243.658 78.1986 245.046 78.6748C246.633 79.1774 247.692 78.7118 248.062 77.6167C248.432 76.5216 247.877 75.8073 246.173 74.4424C243.798 72.5484 242.348 70.2841 243.073 67.8293C243.919 64.9724 247.274 63.9566 251.405 65.5755C252.913 66.1115 254.299 66.9445 255.479 68.025C254.622 68.972 254.204 69.4482 253.363 70.4322C252.45 69.5366 251.357 68.8458 250.157 68.4059C248.474 67.7764 247.39 68.189 247.104 69.0143C246.745 70.0407 247.549 70.8713 249.379 72.3897C251.876 74.4583 252.511 76.2359 251.644 78.4526C250.617 81.0714 248.041 82.9495 243.941 81.7433C242.415 81.2872 241.028 80.458 239.904 79.3308C240.496 78.1299 240.793 77.5162 241.406 76.3152Z" fill="white"/>
<g opacity="0.3">
<path d="M169.398 76.1516L166.657 76.8182L167.16 72.8768L163.906 65.7928L166.551 65.0786L168.885 69.6601L172.546 63.4491L175.291 62.7031L169.9 72.1202L169.398 76.1516Z" fill="black"/>
<path d="M190.364 73.4477L180.349 74.1989L183.64 61.2637L193.3 60.2056L192.724 62.6392L185.846 63.3587L185.153 66.1309L191.337 65.5384L190.745 68.0143L184.544 68.5434L183.82 71.4585L190.962 70.8712L190.364 73.4477Z" fill="black"/>
<path d="M211.732 74.5377L208.299 74.2679L208.177 71.411L201.828 70.9613L199.792 73.6066L196.707 73.3632L207.494 59.9941L210.669 60.1105L211.732 74.5377ZM208.076 68.7764L207.844 63.2531L203.754 68.5013L208.076 68.7764Z" fill="black"/>
<path d="M231.969 78.7119L228.08 77.8389L227.71 73.0775L224.334 72.3686L222.34 76.5586L219.102 75.8338L225.98 61.4648L232.328 62.5706C233.349 62.7279 234.327 63.0877 235.206 63.6287C235.582 63.8579 235.909 64.1591 236.167 64.5151C236.426 64.871 236.612 65.2745 236.714 65.7025C236.871 66.7729 236.674 67.8651 236.153 68.8134C235.706 69.8767 235.009 70.8165 234.121 71.5533C233.233 72.29 232.181 72.802 231.053 73.0457L231.969 78.7119ZM228.699 70.2471C230.646 70.6386 232.018 69.9896 232.815 68.3002C233.582 66.6601 232.979 65.6549 231.027 65.3005L227.958 64.7344L225.636 69.6334L228.699 70.2471Z" fill="black"/>
</g>
<path d="M168.948 75.6541L166.208 76.3207L166.737 72.3793L163.478 65.2953L166.123 64.5811L168.456 69.1627L172.085 62.9569L174.837 62.2109L169.44 71.628L168.948 75.6541Z" fill="white"/>
<path d="M189.914 72.9506L179.899 73.7019L183.19 60.7666L192.85 59.7085L192.274 62.1421L185.396 62.8563L184.698 65.6603L190.888 65.0731L190.295 67.5543L184.095 68.0834L183.37 70.9984L190.512 70.4112L189.914 72.9506Z" fill="white"/>
<path d="M211.304 74.0669L207.87 73.797L207.754 70.9402L201.405 70.4905L199.368 73.1357L196.284 72.8924L207.071 59.481L210.246 59.5973L211.304 74.0669ZM207.648 68.3108L207.415 62.7875L203.326 68.0357L207.648 68.3108Z" fill="white"/>
<path d="M231.519 78.2149L227.63 77.3419L227.26 72.5805L223.885 71.8769L221.895 76.0669L218.652 75.3421L225.53 60.9731L231.878 62.0789C232.899 62.2362 233.877 62.596 234.756 63.137C235.515 63.6011 236.059 64.3467 236.27 65.2108C236.424 66.2817 236.225 67.3738 235.703 68.3216C235.255 69.3842 234.557 70.3234 233.67 71.06C232.782 71.7966 231.731 72.309 230.603 72.554L231.519 78.2149ZM228.249 69.7501C230.196 70.1416 231.568 69.4926 232.365 67.8032C233.132 66.1631 232.529 65.1579 230.582 64.8035L227.509 64.2374L225.186 69.1364L228.249 69.7501Z" fill="white"/>
<defs>
<radialGradient id="paint0_radial_212_2790" cx="0" cy="0" r="1" gradientUnits="userSpaceOnUse" gradientTransform="translate(130.973 192.123) rotate(164.42) scale(51.4078 19.0209)">
<stop stop-color="#63530D"/>
<stop offset="0.03" stop-color="#6B5C19"/>
<stop offset="0.24" stop-color="#978D5E"/>
<stop offset="0.44" stop-color="#BCB597"/>
<stop offset="0.62" stop-color="#D9D5C4"/>
<stop offset="0.78" stop-color="#EEECE4"/>
<stop offset="0.91" stop-color="#FAFAF8"/>
<stop offset="1" stop-color="white"/>
</radialGradient>
<radialGradient id="paint1_radial_212_2790" cx="0" cy="0" r="1" gradientUnits="userSpaceOnUse" gradientTransform="translate(138.73 189.961) rotate(164.42) scale(51.4078 19.0209)">
<stop stop-color="#63530D"/>
<stop offset="0.03" stop-color="#6B5C19"/>
<stop offset="0.24" stop-color="#978D5E"/>
<stop offset="0.44" stop-color="#BCB597"/>
<stop offset="0.62" stop-color="#D9D5C4"/>
<stop offset="0.78" stop-color="#EEECE4"/>
<stop offset="0.91" stop-color="#FAFAF8"/>
<stop offset="1" stop-color="white"/>
</radialGradient>
<radialGradient id="paint2_radial_212_2790" cx="0" cy="0" r="1" gradientUnits="userSpaceOnUse" gradientTransform="translate(148.827 187.341) rotate(157.53) scale(51.4078 19.0209)">
<stop stop-color="#63530D"/>
<stop offset="0.03" stop-color="#6B5C19"/>
<stop offset="0.24" stop-color="#978D5E"/>
<stop offset="0.44" stop-color="#BCB597"/>
<stop offset="0.62" stop-color="#D9D5C4"/>
<stop offset="0.78" stop-color="#EEECE4"/>
<stop offset="0.91" stop-color="#FAFAF8"/>
<stop offset="1" stop-color="white"/>
</radialGradient>
<radialGradient id="paint3_radial_212_2790" cx="0" cy="0" r="1" gradientUnits="userSpaceOnUse" gradientTransform="translate(159.082 180.282) rotate(145.49) scale(51.4078 19.0209)">
<stop stop-color="#63530D"/>
<stop offset="0.03" stop-color="#6B5C19"/>
<stop offset="0.24" stop-color="#978D5E"/>
<stop offset="0.44" stop-color="#BCB597"/>
<stop offset="0.62" stop-color="#D9D5C4"/>
<stop offset="0.78" stop-color="#EEECE4"/>
<stop offset="0.91" stop-color="#FAFAF8"/>
<stop offset="1" stop-color="white"/>
</radialGradient>
<linearGradient id="paint4_linear_212_2790" x1="146.128" y1="111.417" x2="140.657" y2="177.954" gradientUnits="userSpaceOnUse">
<stop stop-color="#B20022"/>
<stop offset="0.24" stop-color="#CD1832"/>
<stop offset="0.53" stop-color="#E72F42"/>
<stop offset="0.79" stop-color="#F73D4C"/>
<stop offset="1" stop-color="#FC424F"/>
</linearGradient>
<linearGradient id="paint5_linear_212_2790" x1="258.974" y1="106.989" x2="167.13" y2="54.056" gradientUnits="userSpaceOnUse">
<stop stop-color="#B20022"/>
<stop offset="0.24" stop-color="#CD1832"/>
<stop offset="0.53" stop-color="#E72F42"/>
<stop offset="0.79" stop-color="#F73D4C"/>
<stop offset="1" stop-color="#FC424F"/>
</linearGradient>
</defs>
</svg>
