<svg width="27" height="40" viewBox="0 0 27 40" fill="none" xmlns="http://www.w3.org/2000/svg">
<path d="M24.6695 37.2401C24.6695 37.2401 16.1369 40.0002 13.2923 40.0002C10.4478 40.0002 1.9161 37.2401 1.9161 37.2401C1.71569 37.2382 1.5242 37.1567 1.3836 37.0135C1.243 36.8704 1.16476 36.6772 1.16603 36.4763V23.8537C1.16603 23.4351 1.91848 23.1587 2.3309 23.1587C2.3309 23.1587 5.29163 23.7272 13.2928 23.7272C22.0445 23.7272 23.7985 23.2389 23.7985 23.2389C24.2114 23.2389 25.4201 23.4351 25.4201 23.8537V36.4787C25.4207 36.6792 25.3421 36.8719 25.2015 37.0146C25.0609 37.1572 24.8696 37.2383 24.6695 37.2401Z" fill="#D58D21"/>
<path d="M24.6695 36.7957C24.6695 36.7957 16.1369 39.5559 13.2923 39.5559C10.4478 39.5559 1.91609 36.7957 1.91609 36.7957C1.71609 36.7938 1.52496 36.7127 1.38443 36.57C1.2439 36.4274 1.16538 36.2348 1.16602 36.0343V23.4099C1.16602 22.9912 1.91847 22.7144 2.33088 22.7144C2.33088 22.7144 5.29162 23.2829 13.2928 23.2829C22.0445 23.2829 23.7985 22.795 23.7985 22.795C24.2114 22.795 25.4201 22.9912 25.4201 23.4099V36.0343C25.4207 36.2349 25.3421 36.4276 25.2015 36.5702C25.0608 36.7129 24.8696 36.794 24.6695 36.7957Z" fill="url(#paint0_linear_300_4173)"/>
<g style="mix-blend-mode:multiply" opacity="0.68">
<path d="M21.0781 22.9721L21.1524 23.0594H21.3244C21.6577 23.0594 22.2392 23.2084 22.4073 23.3296V33.7233C22.4042 33.8007 22.3712 33.8739 22.3153 33.9273C22.2594 33.9808 22.185 34.0103 22.1078 34.0098H22.0501L21.9958 34.027C21.9196 34.0513 15.8434 36.4362 13.3703 36.4362C10.8972 36.4362 4.82147 34.0494 4.74527 34.027L4.69098 34.0098H4.63431C4.55706 34.0103 4.48262 33.9808 4.42672 33.9273C4.37082 33.8739 4.33784 33.8007 4.33476 33.7233V23.269C4.39429 23.1664 4.7567 22.9859 5.0072 22.9859H5.11244L5.20198 22.931C5.20198 22.931 5.22198 22.9186 5.25722 22.8995C4.26523 22.7964 2.33077 22.7124 2.33077 22.7124H2.32029C2.17493 22.8547 2.09142 23.0487 2.08789 23.2523V35.2232C2.08744 35.4915 2.18942 35.7498 2.3729 35.945C2.55639 36.1403 2.80747 36.2578 3.07465 36.2734C3.79328 36.4992 10.8644 38.7018 13.3708 38.7018C15.8772 38.7018 22.9488 36.4973 23.6693 36.2715C23.9366 36.256 24.1878 36.1386 24.3714 35.9433C24.555 35.748 24.657 35.4897 24.6565 35.2213V23.2547C24.6564 23.1201 24.6098 22.9897 24.5246 22.8857C24.2413 22.8251 22.4645 22.7955 22.3044 22.7955C22.3021 22.7955 22.0116 22.8761 21.0781 22.9721Z" fill="#7D0B99"/>
</g>
<g style="mix-blend-mode:multiply">
<path d="M23.7985 9.49962C23.7985 9.49962 22.0445 9.98749 13.2928 9.98749C5.29209 9.98749 2.33088 9.41895 2.33088 9.41895C1.91846 9.41895 1.16602 9.69582 1.16602 10.1145V26.0194L13.5004 33.1579L25.4201 26.26V10.1149C25.4201 9.6963 24.2114 9.49962 23.7985 9.49962Z" fill="#D58D21"/>
</g>
<path d="M13.4998 1.11621L0 8.9288V24.5544L13.4998 32.367L27 24.5544V24.5425V8.9288L13.4998 1.11621Z" fill="#572600"/>
<path d="M13.4998 0L0 7.81259V23.4387L13.4998 31.2508L27.0024 23.4387V7.81259L13.4998 0ZM21.0138 19.974L13.4998 24.3223L5.98624 19.974V11.2768L13.4998 6.9285L21.0138 11.2768V19.974Z" fill="url(#paint1_linear_300_4173)"/>
<path style="mix-blend-mode:multiply" opacity="0.5" d="M13.5 6.9285L21.014 11.2768V19.974L13.5 24.3223V31.2508L27.0002 23.4382V7.81259L13.5 0V6.9285Z" fill="url(#paint2_linear_300_4173)"/>
<path style="mix-blend-mode:multiply" d="M26.9946 7.80957L24.5215 9.24931L24.4258 21.9406L27.0003 23.4261V7.81243L26.9946 7.80957Z" fill="url(#paint3_linear_300_4173)"/>
<g style="mix-blend-mode:overlay" opacity="0.51">
<path d="M2.57451 9.29481L0.00523856 7.80972L0 7.81259L13.4998 0V2.97209L2.57451 9.29481Z" fill="white"/>
</g>
<path style="mix-blend-mode:multiply" opacity="0.49" d="M2.57451 21.9409L0 23.4265L13.4998 31.251V28.1271L2.57451 21.9409Z" fill="url(#paint4_linear_300_4173)"/>
<path d="M13.4995 2.97217L2.57422 9.29489V21.9408L13.4995 28.264L24.4252 21.9408V9.29489L13.4995 2.97217ZM22.1921 20.6472L13.4995 25.6767L4.80965 20.6472V10.5886L13.4995 5.5595L22.1921 10.5886V20.6472Z" fill="url(#paint5_linear_300_4173)"/>
<path style="mix-blend-mode:multiply" d="M4.80918 20.6472V10.5886L13.4995 5.5595V2.97217L2.57422 9.29489V21.9408L13.4995 28.264V25.6767L4.80918 20.6472Z" fill="url(#paint6_linear_300_4173)"/>
<path d="M23.3074 21.2938V9.94152L13.4994 4.26562L3.69141 9.94152V21.2938L13.4994 26.9701L23.3074 21.2938Z" fill="url(#paint7_linear_300_4173)"/>
<g style="mix-blend-mode:multiply" opacity="0.68">
<path d="M4.1805 10.0986L13.4794 4.77736L23.3074 10.3492V9.94152L13.4994 4.26562L3.69141 9.94152V21.2938L4.1805 21.5769V10.0986Z" fill="#990D0A"/>
</g>
<path d="M24.4258 9.29462L24.2486 21.7854L13.5 27.9936L2.73479 21.7854L0.898438 22.8996L2.57478 22.1119L13.4448 28.3086L13.5 31.1766L13.5848 28.3029L24.4258 22.0012L27.0003 23.438L24.4815 21.8876L24.551 9.33711L27.0003 7.8124L24.4258 9.14425L13.5848 2.92177L13.5 0.0556641L13.4157 3.02059L24.4258 9.29462Z" fill="#FFFFA9"/>
<defs>
<linearGradient id="paint0_linear_300_4173" x1="13.2928" y1="37.5342" x2="13.2928" y2="31.6168" gradientUnits="userSpaceOnUse">
<stop offset="0.25" stop-color="#F7E436"/>
<stop offset="1" stop-color="#D58D21"/>
</linearGradient>
<linearGradient id="paint1_linear_300_4173" x1="8.1831" y1="4.73071" x2="22.0111" y2="32.9324" gradientUnits="userSpaceOnUse">
<stop offset="0.06" stop-color="#E38250"/>
<stop offset="0.45" stop-color="#BD6E50"/>
<stop offset="1" stop-color="#572600"/>
</linearGradient>
<linearGradient id="paint2_linear_300_4173" x1="13.5" y1="15.6256" x2="27.0002" y2="15.6256" gradientUnits="userSpaceOnUse">
<stop stop-color="#E38250"/>
<stop offset="0.5" stop-color="#BD6E50"/>
<stop offset="1" stop-color="#572600"/>
</linearGradient>
<linearGradient id="paint3_linear_300_4173" x1="24.4258" y1="15.6179" x2="27.0003" y2="15.6179" gradientUnits="userSpaceOnUse">
<stop offset="0.25" stop-color="#F7E436"/>
<stop offset="1" stop-color="#D58D21"/>
</linearGradient>
<linearGradient id="paint4_linear_300_4173" x1="0" y1="26.5962" x2="13.4998" y2="26.5962" gradientUnits="userSpaceOnUse">
<stop offset="0.25" stop-color="#F7E436"/>
<stop offset="1" stop-color="#D58D21"/>
</linearGradient>
<linearGradient id="paint5_linear_300_4173" x1="20.1791" y1="28.0841" x2="7.85165" y2="5.1863" gradientUnits="userSpaceOnUse">
<stop offset="0.06" stop-color="#E38250"/>
<stop offset="0.45" stop-color="#BD6E50"/>
<stop offset="1" stop-color="#572600"/>
</linearGradient>
<linearGradient id="paint6_linear_300_4173" x1="2.57422" y1="15.6181" x2="13.4995" y2="15.6181" gradientUnits="userSpaceOnUse">
<stop offset="0.25" stop-color="#F7E436"/>
<stop offset="1" stop-color="#D58D21"/>
</linearGradient>
<linearGradient id="paint7_linear_300_4173" x1="21.8721" y1="36.8297" x2="9.47102" y2="5.56134" gradientUnits="userSpaceOnUse">
<stop offset="0.06" stop-color="#E38250"/>
<stop offset="0.45" stop-color="#BD6E50"/>
<stop offset="1" stop-color="#572600"/>
</linearGradient>
</defs>
</svg>
