<svg width="27" height="40" viewBox="0 0 27 40" fill="none" xmlns="http://www.w3.org/2000/svg">
<g clip-path="url(#clip0_300_4235)">
<path d="M24.4308 35.1885V24.9556H2.57086V35.1885C2.57086 35.4403 2.41893 36.2612 3.10842 36.3358C3.73528 36.4038 11.9951 34.3176 13.5017 34.1267C15.0088 34.3167 23.2687 36.4038 23.8951 36.3358C24.5827 36.2612 24.4308 35.4417 24.4308 35.1885Z" fill="#880000"/>
<path d="M24.4308 34.7723V24.9556H2.57086V34.7723C2.57086 35.0246 2.41893 35.8455 3.10842 35.9201C3.73528 35.988 11.9951 33.9019 13.5017 33.7105C15.0088 33.9005 23.2687 35.988 23.8951 35.9201C24.5827 35.8455 24.4308 35.0246 24.4308 34.7723Z" fill="url(#paint0_linear_300_4235)"/>
<g style="mix-blend-mode:multiply" opacity="0.44">
<path d="M6.77539 35.1887C9.40995 34.5863 12.6447 33.8171 13.5329 33.7045C14.421 33.8171 17.6553 34.5882 20.2899 35.1882V25.0688H6.77539V35.1887Z" fill="#391356"/>
</g>
<path d="M18.5673 37.8415C18.5673 37.8415 14.7673 40.0022 13.5005 40.0022C12.2338 40.0022 8.43384 37.8439 8.43384 37.8439C8.25013 37.8439 8.09961 37.576 8.09961 37.2486V24.9553C8.09961 24.6275 8.43477 24.9553 8.61848 24.9553H18.1793C18.363 24.9553 18.9015 24.6275 18.9015 24.9553V37.2467C18.9015 37.5736 18.751 37.8415 18.5673 37.8415Z" fill="#880000"/>
<path d="M18.5673 37.4258C18.5673 37.4258 14.7673 39.5836 13.5005 39.5836C12.2338 39.5836 8.43384 37.4258 8.43384 37.4258C8.25013 37.4258 8.09961 37.1578 8.09961 36.8305V24.9533C8.09961 24.6255 8.43477 24.9533 8.61848 24.9533H18.1793C18.363 24.9533 18.9015 24.6255 18.9015 24.9533V36.8305C18.9015 37.1578 18.751 37.4258 18.5673 37.4258Z" fill="url(#paint1_linear_300_4235)"/>
<path d="M17.4109 36.3881C17.4109 36.3881 14.4772 38.1236 13.4993 38.1236C12.5214 38.1236 9.58764 36.3881 9.58764 36.3881C9.44741 36.3881 9.33008 36.1401 9.33008 35.837V24.9575C9.33008 24.6544 9.58858 24.9575 9.73068 24.9575H17.1113C17.2515 24.9575 17.6685 24.6544 17.6685 24.9575V35.837C17.6689 36.1401 17.5526 36.3881 17.4109 36.3881Z" fill="url(#paint2_linear_300_4235)"/>
<g style="mix-blend-mode:multiply" opacity="0.44">
<path d="M18.1781 25.7971H17.669C17.669 25.494 17.2534 25.7971 17.1118 25.7971H9.73073C9.5905 25.7971 9.33013 25.494 9.33013 25.7971H8.61727C8.43356 25.7971 8.09839 25.4693 8.09839 25.7971H2.57031V26.8622L13.5007 33.2759L24.4321 26.8622V25.7971H18.9003C18.9003 25.4712 18.3618 25.7971 18.1781 25.7971Z" fill="#391356"/>
</g>
<path d="M13.4989 1.40039L0.248047 9.17567V24.7262L13.4989 32.502L26.7502 24.7262V24.7148V9.17567L13.4989 1.40039Z" fill="#A54700"/>
<path d="M13.4989 0.290039L0.248047 8.06532V23.6159L13.4989 31.3917L26.7502 23.6159V8.06532L13.4989 0.290039ZM20.8743 20.1682L13.4989 24.4958L6.12298 20.1682V11.513L13.498 7.18546L20.8734 11.513L20.8743 20.1682Z" fill="url(#paint3_linear_300_4235)"/>
<g style="mix-blend-mode:multiply" opacity="0.53">
<path d="M13.5 7.18546L20.8755 11.513V20.1682L13.5 24.4958V31.3917L26.7513 23.6159V8.06532L13.5 0.290039V7.18546Z" fill="#D58D21"/>
</g>
<g style="mix-blend-mode:multiply">
<path d="M26.746 8.06152L24.319 9.49439L24.2246 22.1255L26.7517 23.604V8.06485L26.746 8.06152Z" fill="#D58D21"/>
</g>
<g style="mix-blend-mode:overlay" opacity="0.51">
<path d="M2.77509 9.54047L0.253189 8.062L0.248047 8.06532L13.4989 0.290039V3.24793L2.77509 9.54047Z" fill="white"/>
</g>
<path d="M13.4992 3.24756L2.77539 9.54009V22.1256L13.4992 28.4182L24.2235 22.1256V9.54009L13.4992 3.24756ZM22.0293 20.8382L13.4992 25.8446L4.96914 20.8382V10.8276L13.4992 5.82206L22.0293 10.8276V20.8382Z" fill="url(#paint4_linear_300_4235)"/>
<path d="M4.96914 20.8382V10.8276L13.4992 5.82206V3.24756L2.77539 9.54009V22.1256L13.4992 28.4182V25.8432L4.96914 20.8382Z" fill="#D58D21"/>
<path d="M23.1274 21.482V10.1839L13.5002 4.53467L3.87305 10.1839V21.482L13.5002 27.1308L23.1274 21.482Z" fill="url(#paint5_linear_300_4235)"/>
<path d="M4.35312 10.3398L13.4806 5.04396L23.1274 10.5897V10.1839L13.5002 4.53467L3.87305 10.1839V21.482L4.35312 21.7637V10.3398Z" fill="#A54700"/>
<path d="M24.2244 9.54005L24.0505 21.9707L13.5001 28.1492L2.93335 21.9707L1.13086 23.08L2.77629 22.2961L13.4459 28.4633L13.5001 31.3171L13.5833 28.4571L24.2244 22.1859L26.7514 23.6155L24.2791 22.0724L24.3478 9.58186L26.7514 8.0649L24.2244 9.3904L13.5833 3.19715L13.5001 0.344727L13.4174 3.29597L24.2244 9.54005Z" fill="#FAFF8F"/>
<path d="M0 7.96875V12.0835L4.62543 10.681L0 7.96875Z" fill="#D58D21"/>
<path d="M0 7.96905L3.5129 5.92285L4.61562 10.6984L0 7.96905Z" fill="url(#paint6_linear_300_4235)"/>
<path d="M0 7.969L0.105177 7.90771L4.61562 10.6984L0 8.08967V7.969Z" fill="#FAFF8F"/>
<path d="M27.0004 7.96875V12.0835L22.375 10.681L27.0004 7.96875Z" fill="#D58D21"/>
<path d="M27.0004 7.96905L23.4875 5.92285L22.3848 10.6984L27.0004 7.96905Z" fill="url(#paint7_linear_300_4235)"/>
<path d="M27.0004 7.969L26.8952 7.90771L22.3848 10.6984L27.0004 8.08967V7.969Z" fill="#FAFF8F"/>
<path d="M27.0004 23.6079V19.4932L22.375 20.8951L27.0004 23.6079Z" fill="url(#paint8_linear_300_4235)"/>
<path d="M27.0004 23.6078L23.4875 25.654L22.3848 20.8779L27.0004 23.6078Z" fill="#D58D21"/>
<path d="M27.0004 23.6078L26.8952 23.6691L22.3848 20.8779L27.0004 23.4871V23.6078Z" fill="#FAFF8F"/>
<path d="M13.4043 31.7946L16.9541 29.8159L13.5198 26.3687L13.4043 31.7946Z" fill="url(#paint9_linear_300_4235)"/>
<path d="M13.4037 31.7946L9.94922 29.6487L13.5392 26.3691L13.4037 31.7946Z" fill="#D58D21"/>
<path d="M13.4041 31.7946L13.3008 31.7305L13.5396 26.3691L13.5083 31.7367L13.4041 31.7946Z" fill="#FAFF8F"/>
<path d="M13.499 0L9.94922 1.97874L13.3836 5.42598L13.499 0Z" fill="url(#paint10_linear_300_4235)"/>
<path d="M13.4988 0L16.9533 2.14645L13.3633 5.42598L13.4988 0Z" fill="#D58D21"/>
<path d="M13.4988 0L13.6021 0.0646119L13.3633 5.42598L13.3946 0.0584358L13.4988 0Z" fill="#FAFF8F"/>
<path d="M0 23.6079V19.4932L4.62543 20.8951L0 23.6079Z" fill="url(#paint11_linear_300_4235)"/>
<path d="M0 23.6078L3.5129 25.654L4.61562 20.8779L0 23.6078Z" fill="#D58D21"/>
<path d="M0 23.6078L0.105177 23.6691L4.61562 20.8779L0 23.4871V23.6078Z" fill="#FAFF8F"/>
<path d="M14.2041 11.9785V22H12.6182V13.9199C12.3311 14.125 12.0212 14.3005 11.6885 14.4463C11.3604 14.5876 10.9844 14.7129 10.5605 14.8223V13.4688C10.8249 13.3822 11.0801 13.291 11.3262 13.1953C11.5723 13.0996 11.8138 12.9925 12.0508 12.874C12.2923 12.7555 12.5339 12.6234 12.7754 12.4775C13.0215 12.3317 13.2744 12.1654 13.5342 11.9785H14.2041Z" fill="white"/>
</g>
<defs>
<linearGradient id="paint0_linear_300_4235" x1="13.4999" y1="31.6923" x2="13.4999" y2="41.2321" gradientUnits="userSpaceOnUse">
<stop stop-color="#880000"/>
<stop offset="1" stop-color="#D60000"/>
</linearGradient>
<linearGradient id="paint1_linear_300_4235" x1="13.5005" y1="32.8939" x2="13.5005" y2="39.3276" gradientUnits="userSpaceOnUse">
<stop stop-color="#880000"/>
<stop offset="1" stop-color="#D60000"/>
</linearGradient>
<linearGradient id="paint2_linear_300_4235" x1="13.4993" y1="37.7806" x2="13.4993" y2="30.5459" gradientUnits="userSpaceOnUse">
<stop offset="0.25" stop-color="#F7E436"/>
<stop offset="1" stop-color="#D58D21"/>
</linearGradient>
<linearGradient id="paint3_linear_300_4235" x1="19.0606" y1="26.8978" x2="7.60741" y2="4.85309" gradientUnits="userSpaceOnUse">
<stop stop-color="#CE7C1D"/>
<stop offset="1" stop-color="#F7E436"/>
</linearGradient>
<linearGradient id="paint4_linear_300_4235" x1="18.4949" y1="24.7533" x2="8.37862" y2="7.26474" gradientUnits="userSpaceOnUse">
<stop offset="0.25" stop-color="#F7E436"/>
<stop offset="1" stop-color="#D58D21"/>
</linearGradient>
<linearGradient id="paint5_linear_300_4235" x1="11.5935" y1="10.2338" x2="18.9975" y2="31.2801" gradientUnits="userSpaceOnUse">
<stop stop-color="#CE7C1D"/>
<stop offset="1" stop-color="#F7E436"/>
</linearGradient>
<linearGradient id="paint6_linear_300_4235" x1="2.35783" y1="9.27127" x2="5.25993" y2="5.75271" gradientUnits="userSpaceOnUse">
<stop offset="0.25" stop-color="#F7E436"/>
<stop offset="1" stop-color="#D58D21"/>
</linearGradient>
<linearGradient id="paint7_linear_300_4235" x1="24.643" y1="9.27127" x2="21.7409" y2="5.75271" gradientUnits="userSpaceOnUse">
<stop offset="0.25" stop-color="#F7E436"/>
<stop offset="1" stop-color="#D58D21"/>
</linearGradient>
<linearGradient id="paint8_linear_300_4235" x1="23.1958" y1="19.1031" x2="28.4927" y2="22.8533" gradientUnits="userSpaceOnUse">
<stop offset="0.25" stop-color="#F7E436"/>
<stop offset="1" stop-color="#D58D21"/>
</linearGradient>
<linearGradient id="paint9_linear_300_4235" x1="15.4604" y1="26.2379" x2="14.6485" y2="32.746" gradientUnits="userSpaceOnUse">
<stop offset="0.25" stop-color="#F7E436"/>
<stop offset="1" stop-color="#D58D21"/>
</linearGradient>
<linearGradient id="paint10_linear_300_4235" x1="11.4427" y1="5.56018" x2="12.2546" y2="-0.947829" gradientUnits="userSpaceOnUse">
<stop offset="0.25" stop-color="#F7E436"/>
<stop offset="1" stop-color="#D58D21"/>
</linearGradient>
<linearGradient id="paint11_linear_300_4235" x1="2.95196" y1="19.7222" x2="-2.29643" y2="23.4733" gradientUnits="userSpaceOnUse">
<stop offset="0.25" stop-color="#F7E436"/>
<stop offset="1" stop-color="#D58D21"/>
</linearGradient>
<clipPath id="clip0_300_4235">
<rect width="27" height="40" fill="white"/>
</clipPath>
</defs>
</svg>
