<svg width="174" height="32" viewBox="0 0 174 32" fill="none" xmlns="http://www.w3.org/2000/svg">
<path d="M12.536 26.448C10.744 26.448 9.09067 26.16 7.576 25.584C6.06133 25.008 4.73867 24.1973 3.608 23.152C2.49867 22.0853 1.63467 20.848 1.016 19.44C0.397333 18.032 0.0880001 16.4853 0.0880001 14.8C0.0880001 13.1147 0.397333 11.568 1.016 10.16C1.63467 8.752 2.49867 7.52533 3.608 6.48C4.73867 5.41333 6.06133 4.592 7.576 4.016C9.09067 3.44 10.744 3.152 12.536 3.152C14.3493 3.152 16.0027 3.44 17.496 4.016C19.0107 4.592 20.3227 5.40267 21.432 6.448C22.5413 7.49333 23.4053 8.73067 24.024 10.16C24.664 11.568 24.984 13.1147 24.984 14.8C24.984 16.4853 24.664 18.0427 24.024 19.472C23.4053 20.88 22.5413 22.1067 21.432 23.152C20.3227 24.1973 19.0107 25.008 17.496 25.584C16.0027 26.16 14.3493 26.448 12.536 26.448ZM19.864 31.408C18.904 31.408 18.008 31.3013 17.176 31.088C16.344 30.896 15.5227 30.576 14.712 30.128C13.9227 29.68 13.0907 29.072 12.216 28.304C11.3627 27.536 10.4027 26.5867 9.336 25.456L15.96 23.792C16.4933 24.5813 16.9733 25.2 17.4 25.648C17.8267 26.096 18.2427 26.416 18.648 26.608C19.0747 26.8 19.5227 26.896 19.992 26.896C21.2293 26.896 22.36 26.3733 23.384 25.328L26.136 28.592C24.5787 30.4693 22.488 31.408 19.864 31.408ZM12.536 21.2C13.3893 21.2 14.1787 21.0507 14.904 20.752C15.6507 20.4533 16.2907 20.0267 16.824 19.472C17.3787 18.896 17.8053 18.2133 18.104 17.424C18.424 16.6347 18.584 15.76 18.584 14.8C18.584 13.8187 18.424 12.944 18.104 12.176C17.8053 11.3867 17.3787 10.7147 16.824 10.16C16.2907 9.584 15.6507 9.14667 14.904 8.848C14.1787 8.54933 13.3893 8.4 12.536 8.4C11.6827 8.4 10.8827 8.54933 10.136 8.848C9.41067 9.14667 8.77067 9.584 8.216 10.16C7.68267 10.7147 7.256 11.3867 6.936 12.176C6.63733 12.944 6.488 13.8187 6.488 14.8C6.488 15.76 6.63733 16.6347 6.936 17.424C7.256 18.2133 7.68267 18.896 8.216 19.472C8.77067 20.0267 9.41067 20.4533 10.136 20.752C10.8827 21.0507 11.6827 21.2 12.536 21.2ZM28.0145 26V8.656H34.0945V26H28.0145ZM31.0545 6.736C29.9452 6.736 29.0492 6.42666 28.3665 5.808C27.6838 5.18933 27.3425 4.42133 27.3425 3.504C27.3425 2.58667 27.6838 1.81867 28.3665 1.2C29.0492 0.581333 29.9452 0.271999 31.0545 0.271999C32.1638 0.271999 33.0598 0.570666 33.7425 1.168C34.4252 1.744 34.7665 2.49067 34.7665 3.408C34.7665 4.368 34.4252 5.168 33.7425 5.808C33.0812 6.42666 32.1852 6.736 31.0545 6.736ZM37.1497 26V22.416L46.8778 11.216L47.9018 13.168H37.3738V8.656H52.8298V12.208L43.0698 23.44L42.0458 21.456H53.1498V26H37.1497ZM73.2995 26.448C71.4648 26.448 69.6942 26.224 67.9875 25.776C66.3022 25.3067 64.9262 24.7093 63.8595 23.984L65.9395 19.312C66.9422 19.952 68.0942 20.4853 69.3955 20.912C70.7182 21.3173 72.0302 21.52 73.3315 21.52C74.2062 21.52 74.9102 21.4453 75.4435 21.296C75.9768 21.1253 76.3608 20.912 76.5955 20.656C76.8515 20.3787 76.9795 20.0587 76.9795 19.696C76.9795 19.184 76.7448 18.7787 76.2755 18.48C75.8062 18.1813 75.1982 17.936 74.4515 17.744C73.7048 17.552 72.8728 17.36 71.9555 17.168C71.0595 16.976 70.1528 16.7307 69.2355 16.432C68.3395 16.1333 67.5182 15.7493 66.7715 15.28C66.0248 14.7893 65.4168 14.16 64.9475 13.392C64.4782 12.6027 64.2435 11.6107 64.2435 10.416C64.2435 9.072 64.6062 7.856 65.3315 6.768C66.0782 5.68 67.1875 4.80533 68.6595 4.144C70.1315 3.48267 71.9662 3.152 74.1635 3.152C75.6355 3.152 77.0755 3.32267 78.4835 3.664C79.9128 3.984 81.1822 4.464 82.2915 5.104L80.3395 9.808C79.2728 9.232 78.2168 8.80533 77.1715 8.528C76.1262 8.22933 75.1128 8.08 74.1315 8.08C73.2568 8.08 72.5528 8.176 72.0195 8.368C71.4862 8.53867 71.1022 8.77333 70.8675 9.072C70.6328 9.37067 70.5155 9.712 70.5155 10.096C70.5155 10.5867 70.7395 10.9813 71.1875 11.28C71.6568 11.5573 72.2648 11.792 73.0115 11.984C73.7795 12.1547 74.6115 12.336 75.5075 12.528C76.4248 12.72 77.3315 12.9653 78.2275 13.264C79.1448 13.5413 79.9768 13.9253 80.7235 14.416C81.4702 14.8853 82.0675 15.5147 82.5155 16.304C82.9848 17.072 83.2195 18.0427 83.2195 19.216C83.2195 20.5173 82.8462 21.7227 82.0995 22.832C81.3742 23.92 80.2755 24.7947 78.8035 25.456C77.3528 26.1173 75.5182 26.448 73.2995 26.448ZM93.6023 26.288C91.3836 26.288 89.6556 25.744 88.4183 24.656C87.1809 23.5467 86.5623 21.8827 86.5623 19.664V4.784H92.6423V19.6C92.6423 20.2187 92.8129 20.7093 93.1543 21.072C93.4956 21.4133 93.9329 21.584 94.4663 21.584C95.1916 21.584 95.8103 21.4027 96.3223 21.04L97.8263 25.296C97.3143 25.6373 96.6849 25.8827 95.9383 26.032C95.1916 26.2027 94.4129 26.288 93.6023 26.288ZM84.0343 13.84V9.296H96.6103V13.84H84.0343ZM107.467 26.288C106.059 26.288 104.789 26.0107 103.659 25.456C102.549 24.9013 101.675 24.0373 101.035 22.864C100.416 21.6693 100.107 20.1653 100.107 18.352V8.656H106.187V17.36C106.187 18.704 106.432 19.664 106.923 20.24C107.435 20.816 108.149 21.104 109.067 21.104C109.664 21.104 110.208 20.9653 110.699 20.688C111.189 20.4107 111.584 19.9733 111.883 19.376C112.181 18.7573 112.331 17.968 112.331 17.008V8.656H118.411V26H112.619V21.104L113.739 22.48C113.141 23.76 112.277 24.72 111.147 25.36C110.016 25.9787 108.789 26.288 107.467 26.288ZM129.879 26.288C128.3 26.288 126.86 25.9253 125.559 25.2C124.279 24.4533 123.255 23.4187 122.487 22.096C121.719 20.752 121.335 19.152 121.335 17.296C121.335 15.4613 121.719 13.8827 122.487 12.56C123.255 11.216 124.279 10.1813 125.559 9.456C126.86 8.73067 128.3 8.368 129.879 8.368C131.372 8.368 132.631 8.688 133.655 9.328C134.7 9.968 135.49 10.9493 136.023 12.272C136.556 13.5947 136.823 15.2693 136.823 17.296C136.823 19.3653 136.567 21.0613 136.055 22.384C135.543 23.7067 134.775 24.688 133.751 25.328C132.727 25.968 131.436 26.288 129.879 26.288ZM131.159 21.456C131.842 21.456 132.45 21.296 132.983 20.976C133.538 20.656 133.975 20.1867 134.295 19.568C134.615 18.928 134.775 18.1707 134.775 17.296C134.775 16.4213 134.615 15.6853 134.295 15.088C133.975 14.4693 133.538 14 132.983 13.68C132.45 13.36 131.842 13.2 131.159 13.2C130.455 13.2 129.826 13.36 129.271 13.68C128.738 14 128.311 14.4693 127.991 15.088C127.671 15.6853 127.511 16.4213 127.511 17.296C127.511 18.1707 127.671 18.928 127.991 19.568C128.311 20.1867 128.738 20.656 129.271 20.976C129.826 21.296 130.455 21.456 131.159 21.456ZM134.967 26V23.024L134.999 17.296L134.679 11.568V2.256H140.759V26H134.967ZM144.671 26V8.656H150.751V26H144.671ZM147.711 6.736C146.601 6.736 145.705 6.42666 145.023 5.808C144.34 5.18933 143.999 4.42133 143.999 3.504C143.999 2.58667 144.34 1.81867 145.023 1.2C145.705 0.581333 146.601 0.271999 147.711 0.271999C148.82 0.271999 149.716 0.570666 150.399 1.168C151.081 1.744 151.423 2.49067 151.423 3.408C151.423 4.368 151.081 5.168 150.399 5.808C149.737 6.42666 148.841 6.736 147.711 6.736ZM163.406 26.288C161.507 26.288 159.822 25.904 158.35 25.136C156.878 24.368 155.715 23.312 154.862 21.968C154.03 20.6027 153.614 19.0453 153.614 17.296C153.614 15.5467 154.03 14 154.862 12.656C155.715 11.312 156.878 10.2667 158.35 9.52C159.822 8.752 161.507 8.368 163.406 8.368C165.305 8.368 166.99 8.752 168.462 9.52C169.955 10.2667 171.118 11.312 171.95 12.656C172.782 14 173.198 15.5467 173.198 17.296C173.198 19.0453 172.782 20.6027 171.95 21.968C171.118 23.312 169.955 24.368 168.462 25.136C166.99 25.904 165.305 26.288 163.406 26.288ZM163.406 21.456C164.11 21.456 164.729 21.296 165.262 20.976C165.817 20.656 166.254 20.1867 166.574 19.568C166.894 18.928 167.054 18.1707 167.054 17.296C167.054 16.4213 166.894 15.6853 166.574 15.088C166.254 14.4693 165.817 14 165.262 13.68C164.729 13.36 164.11 13.2 163.406 13.2C162.723 13.2 162.105 13.36 161.55 13.68C161.017 14 160.579 14.4693 160.238 15.088C159.918 15.6853 159.758 16.4213 159.758 17.296C159.758 18.1707 159.918 18.928 160.238 19.568C160.579 20.1867 161.017 20.656 161.55 20.976C162.105 21.296 162.723 21.456 163.406 21.456Z" fill="white"/>
</svg>
