<svg width="20" height="20" viewBox="0 0 20 20" fill="none" xmlns="http://www.w3.org/2000/svg">
<path d="M6.08896 12.9321L6.08837 17.45C6.08833 17.7498 5.76372 17.9372 5.50399 17.7873L2.24005 15.9035C1.48099 15.4627 1.00962 14.6448 1.00903 13.7675V10.0002C1.00903 9.69941 1.33466 9.51141 1.59517 9.66184L5.50298 11.9185C5.86532 12.1277 6.08899 12.5137 6.08896 12.9321Z" fill="#A6F216"/>
<path d="M5.50716 6.72964L2.14673 4.78761H2.14669C2.14661 4.78757 2.14649 4.78749 2.14642 4.78741C1.86548 4.62507 1.50614 4.72124 1.34384 5.00218C1.12962 5.37143 1.01146 5.7937 1.01024 6.23335L1.00903 10.0003L5.50392 12.5987C5.76438 12.7492 6.09013 12.5614 6.09028 12.2605L6.09247 7.74421C6.0927 7.32577 5.86942 6.93901 5.50716 6.72964Z" fill="#46C5FD"/>
<path d="M13.9109 12.9317L13.9115 17.4495C13.9115 17.7494 14.2361 17.9367 14.4958 17.7868L17.7598 15.903C18.5189 15.4622 18.9902 14.6443 18.9908 13.767V9.99971C18.9908 9.69893 18.6652 9.51092 18.4047 9.66135L14.4969 11.918C14.1345 12.1272 13.9108 12.5132 13.9109 12.9317Z" fill="#BE0028"/>
<path d="M14.4925 6.72915L17.853 4.78712H17.853C17.8531 4.78708 17.8532 4.787 17.8533 4.78692C18.1342 4.62458 18.4936 4.72075 18.6559 5.00169C18.8701 5.37094 18.9882 5.79321 18.9895 6.23286L18.9907 9.99981L14.4958 12.5982C14.2353 12.7488 13.9096 12.5609 13.9094 12.26L13.9072 7.74372C13.907 7.32524 14.1303 6.93848 14.4925 6.72915Z" fill="#C2D1EC"/>
<path d="M10.5866 19.4103L10.5863 15.5291C10.5862 15.1106 10.3631 14.7238 10.0007 14.5146L6.08914 12.257C5.82859 12.1066 5.50293 12.2947 5.50293 12.5955L5.50398 17.7875L8.76621 19.671C9.1475 19.8899 9.57223 19.9989 9.99914 19.9981C10.3236 19.9981 10.5866 19.7351 10.5866 19.4107C10.5866 19.4105 10.5865 19.4104 10.5866 19.4103Z" fill="#F7F3FB"/>
<path d="M10.0028 9.33107L6.0889 7.06806C5.82835 6.91767 5.50269 7.10571 5.50269 7.40657L5.50276 12.5952L9.9996 15.2002C10.2601 15.3507 10.5858 15.1628 10.586 14.862L10.5882 10.3456C10.5883 9.9272 10.3651 9.54044 10.0028 9.33107Z" fill="#FFE600"/>
<path d="M14.495 12.5971L14.4939 12.5978C14.4919 12.2985 14.1676 12.1119 13.9079 12.2619L10.5827 14.1783C10.2204 14.3877 9.99712 14.7745 9.99731 15.1929L9.99962 19.9998C10.4265 19.9998 10.8532 19.8897 11.2334 19.6698L14.4958 17.7865L14.495 12.5971Z" fill="#002F84"/>
<path d="M10.5855 8.98401L13.9107 7.06757C14.1713 6.91718 14.4969 7.10523 14.4969 7.40608L14.4959 12.598L10 15.1997L10.0002 9.99862C9.99996 9.58011 10.2232 9.19339 10.5855 8.98401Z" fill="#009A7E"/>
<path d="M14.4952 2.20999L11.2315 0.32835C10.4712 -0.109307 9.52717 -0.109463 8.76616 0.327959L5.50393 2.21472C5.24432 2.36487 5.24448 2.73964 5.50428 2.88944L9.41788 5.14647C9.78038 5.35554 10.2265 5.35452 10.5887 5.14507L14.4956 2.88675C14.756 2.73624 14.7558 2.36022 14.4952 2.20999Z" fill="#FFE600"/>
<path d="M10.0002 0V5.30262C10.2034 5.30289 10.4067 5.25035 10.5888 5.14504L14.4956 2.88676C14.7561 2.73621 14.7558 2.3602 14.4952 2.20996L11.2315 0.32832C10.8517 0.109687 10.426 0.000273438 10.0002 0V0Z" fill="#FFA046"/>
<path d="M6.68069 7.4042C6.31644 7.61451 5.86788 7.61541 5.5028 7.4065L1.34155 4.99916C1.55499 4.62943 1.86358 4.3149 2.24417 4.09553L5.50604 2.21143L10.0001 4.80627C10.2621 4.95756 10.2614 5.3367 9.99944 5.48795L6.68069 7.4042Z" fill="#F7F3FB"/>
<path d="M13.3205 7.40269C13.6847 7.61301 14.1333 7.61391 14.4984 7.405L18.6596 4.99766C18.4462 4.62793 18.1376 4.3134 17.757 4.09402L14.4951 2.20996L10.001 4.8048C9.73912 4.95609 9.73978 5.33523 10.0017 5.48648L13.3205 7.40269Z" fill="#F52842"/>
<path d="M5.50391 7.40277L10.0002 9.99891L14.4965 7.40277L10.0002 4.80664L5.50391 7.40277Z" fill="#0080D5"/>
<path d="M10.0002 9.99891L14.4965 7.40277L10.0002 4.80664V9.99891Z" fill="#002F84"/>
</svg>
