<svg width="209" height="176" viewBox="0 0 209 176" fill="none" xmlns="http://www.w3.org/2000/svg">
<g clip-path="url(#clip0_186_720)">
<path d="M201.477 144.015H7.5227C3.37475 144.015 0 140.66 0 136.536V113.327H209V136.536C209 140.66 205.625 144.015 201.477 144.015Z" fill="#E6E6E6"/>
<path d="M129.602 140.133H80.1414V175.258H129.602V140.133Z" fill="#E6E6E6"/>
<path d="M132.577 170.822H77.1663V175.259H132.577V170.822Z" fill="#E6E6E6"/>
<path d="M208.814 123.125H0V5.13272C0 2.3026 2.31593 0 5.16246 0H203.652C206.498 0 208.814 2.3026 208.814 5.13272V123.125Z" fill="#3F3D56"/>
<path d="M203.793 5.36133H4.83447V116.654H203.793V5.36133Z" fill="white"/>
<path d="M43.3652 71.6951C44.888 70.4441 46.7716 70.2112 47.5722 71.1749C48.3728 72.1385 47.7872 73.9335 46.2637 75.1848C45.6621 75.6929 44.9467 76.0504 44.1776 76.2273L37.6582 81.4469L35.2598 78.353L41.9414 73.5358C42.2613 72.818 42.7496 72.1868 43.3652 71.6951H43.3652Z" fill="#FFB6B6"/>
<path d="M5.68363 83.4719C5.68032 83.2411 5.6825 81.2276 7.1818 79.9549C8.90409 78.493 11.3343 79.0847 12.1867 79.2923C14.1557 79.7717 14.3172 80.6115 16.1664 81.4744C19.6259 83.0887 15.2912 82.2624 17.3497 81.7448C18.0623 81.5656 28.3132 80.8588 30.8649 79.2973C35.8276 76.2605 39.2089 74.4189 39.2089 74.4189L41.4194 78.8144C41.4194 78.8144 38.2231 83.2333 33.7245 86.5069C29.1099 89.8648 26.8027 91.5438 23.2962 92.1925C22.9943 92.2484 15.5679 93.509 9.58663 89.0661C8.22231 88.0527 5.72258 86.1959 5.68362 83.4719L5.68363 83.4719Z" fill="#0077E4"/>
<path d="M12.5405 72.2931C16.7933 72.2931 20.2409 68.8653 20.2409 64.637C20.2409 60.4087 16.7933 56.981 12.5405 56.981C8.28768 56.981 4.84009 60.4087 4.84009 64.637C4.84009 68.8653 8.28768 72.2931 12.5405 72.2931Z" fill="#FFB6B6"/>
<path d="M72.8473 116.073L64.917 108.002L60.8232 112.248L66.7316 119.987L72.5922 120.653L72.8473 116.073Z" fill="#FFB6B6"/>
<path d="M27.5647 100.938C28.0285 100.977 29.5025 101.27 30.9114 100.5C31.873 99.9738 32.3661 99.1917 32.5326 98.943C34.5989 95.8575 42.5298 91.0461 49.6475 90.75C51.2594 90.683 52.3204 90.8687 53.2847 91.3684C54.6521 92.0771 55.198 93.0923 56.9332 95.4703C57.8824 96.7711 58.9327 97.9966 59.8933 99.289C65.5171 106.856 67.6491 107.45 67.4312 109.876C67.1894 112.567 64.2698 115.121 62.3294 114.826C61.5347 114.705 61.2269 114.156 60.1652 113.044C57.0521 109.783 55.7641 110.385 53.5477 107.887C50.96 104.971 51.2988 102.553 49.9487 102.46C48.6967 102.373 48.1647 104.436 45.4918 107.176C44.2687 108.43 43.3978 109.005 40.7445 110.835C30.4118 117.962 30.2468 118.463 28.1616 119.032C27.2492 119.28 20.7739 121.045 18.4672 118.236C14.8575 113.841 23.3851 100.593 27.5647 100.938V100.938Z" fill="#2F2E41"/>
<path d="M70.4228 117.897C71.006 117.637 71.688 117.332 71.9074 116.632C72.0559 116.158 71.9704 115.574 71.6635 115.17C71.3094 114.705 70.7853 114.643 70.8065 114.561C70.8388 114.435 72.0781 114.484 73.4386 114.963C73.6953 115.053 74.8583 115.475 76.3378 116.624C77.5231 117.544 77.3636 117.728 78.1069 118.259C80.3885 119.887 82.5284 118.604 83.763 120.131C84.2395 120.72 84.4427 121.557 84.2422 122.234C83.8395 123.592 81.8813 124.06 80.811 124.301C78.2335 124.883 76.2826 124.408 74.2454 124.067C67.3174 122.906 63.4249 123.963 62.9039 122.368C62.8053 122.066 62.9655 122.091 63.4997 119.875C64.0269 117.687 64.0096 117.087 64.4586 116.912C65.1345 116.648 65.5883 117.847 67.291 118.258C68.7998 118.622 70.0449 118.066 70.4228 117.897H70.4228Z" fill="#2F2E41"/>
<path d="M58.7483 142.476L56.7447 131.371L50.9595 132.598L51.4777 142.3L55.9507 146.123L58.7483 142.476Z" fill="#FFB6B6"/>
<path d="M29.8271 104.672C30.1893 104.962 31.2431 106.028 32.8442 106.177C33.9368 106.279 34.7866 105.907 35.0649 105.794C38.5173 104.395 47.7971 104.841 53.8539 108.57C55.2256 109.414 55.9986 110.16 56.5143 111.112C57.2455 112.462 57.1238 113.607 57.2165 116.543C57.2673 118.15 57.4441 119.75 57.509 121.356C57.8888 130.757 59.3175 132.439 57.7671 134.324C56.0469 136.416 52.1888 136.899 50.7496 135.572C50.1603 135.028 50.2159 134.402 49.9655 132.889C49.2314 128.453 47.8254 128.232 47.4021 124.928C46.908 121.07 48.554 119.258 47.4896 118.427C46.5026 117.657 44.8973 119.066 41.138 119.842C39.4178 120.196 38.3723 120.186 35.1431 120.219C22.568 120.347 22.1487 120.67 20.1022 119.976C19.2068 119.672 12.8519 117.518 12.5297 113.906C12.0254 108.253 26.5637 102.052 29.8271 104.672H29.8271Z" fill="#2F2E41"/>
<path d="M55.7122 142.632C56.3419 142.742 57.0781 142.871 57.6551 142.414C58.0455 142.105 58.3047 141.574 58.2788 141.068C58.2488 140.485 57.8498 140.142 57.9139 140.086C58.0115 140 59.0093 140.732 59.8649 141.887C60.0264 142.105 60.7501 143.104 61.3257 144.881C61.7869 146.304 61.5507 146.367 61.8661 147.221C62.8343 149.842 65.3299 149.975 65.4889 151.928C65.5503 152.682 65.2458 153.488 64.6978 153.936C63.5971 154.835 61.7127 154.129 60.6908 153.731C58.2296 152.773 56.8834 151.291 55.3905 149.871C50.3135 145.043 46.4955 143.745 46.9657 142.133C47.0547 141.828 47.1727 141.939 48.8665 140.403C50.5382 138.888 50.8632 138.381 51.3337 138.487C52.0419 138.646 51.74 139.892 52.917 141.182C53.9601 142.325 55.3042 142.56 55.7122 142.632Z" fill="#2F2E41"/>
<path d="M13.5904 66.1006C13.8901 65.0344 13.5136 64.6459 13.8974 64.1673C13.8974 64.1673 14.0518 63.9747 15.4325 63.455C15.0252 61.1051 15.3302 60.7077 15.3302 60.7077C15.6817 60.2498 16.3859 60.139 16.8653 60.199C17.8792 60.3257 18.0587 61.2369 18.7075 61.2165C19.6037 61.1882 20.6786 59.4046 20.3449 57.8586C20.0728 56.5976 18.8993 55.6611 18.6051 55.8236C18.3135 55.9847 17.2635 55.2742 16.8653 55.4166C16.5934 55.5138 15.3134 55.3845 15.0232 55.5183C14.7062 55.6645 13.7985 56.5748 13.7117 56.4601C13.1087 55.6631 13.1215 55.3849 12.7716 55.2131C12.1517 54.9087 11.4776 55.4713 10.3154 56.0271C7.92415 57.1707 7.22395 56.4885 6.11941 57.4516C5.56145 57.9382 5.26225 58.868 4.68662 60.7077C3.88161 63.2806 3.47911 64.567 3.86789 65.7953C4.26437 67.048 4.84825 66.7754 5.71004 68.5427C6.66935 70.51 6.33872 71.6535 7.24517 72.104C7.94574 72.4522 9.07161 72.2306 9.4967 71.5952C10.2245 70.5074 8.34337 69.0359 8.98499 67.3216C9.37883 66.2693 10.5938 65.4714 11.3389 65.6936C12.1813 65.9448 12.2433 67.4466 12.7716 67.4234C13.224 67.4035 13.5381 66.2864 13.5904 66.1006H13.5904Z" fill="#2F2E41"/>
<path d="M7.75697 73.4268C9.33275 71.6701 15.7512 73.4883 16.3537 76.2759C16.6015 77.4224 15.6867 77.9065 15.9443 79.2267C16.3211 81.1576 18.4545 81.026 20.038 82.9915C22.2861 85.7821 19.9701 88.5099 22.4942 93.1668C23.0336 94.1619 23.4882 95.0006 24.4387 95.8124C26.6199 97.675 28.6498 97.0362 29.7605 98.7632C30.591 100.055 30.2498 101.646 30.1699 102.019C29.8421 103.548 28.9537 103.921 28.3277 105.174C27.2862 107.258 28.4654 108.788 28.5324 111.279C28.6162 114.395 26.9507 118.714 23.62 120.131C19.878 121.723 15.365 119.086 13.1811 116.468C11.8779 114.906 11.4997 113.465 10.9296 111.686C8.38165 103.736 6.9422 104.455 4.99373 98.1527C2.76628 90.9483 2.32839 82.508 4.99373 79.8372C5.34701 79.4832 6.31924 78.665 6.93823 77.1916C7.77116 75.2091 7.05158 74.2132 7.75696 73.4268L7.75697 73.4268Z" fill="#0077E4"/>
<path d="M31.0405 114.319C32.2622 115.863 32.4516 117.74 31.4636 118.513C30.4756 119.286 28.6846 118.661 27.4627 117.117C26.9661 116.507 26.6236 115.788 26.464 115.019L21.3706 108.415L24.0025 106.419L29.2235 112.86C29.9377 113.195 30.5607 113.696 31.0405 114.319H31.0405Z" fill="#FFB6B6"/>
<path d="M12.3868 80.1216C12.6134 80.0712 14.5965 79.6625 16.1555 80.8621C17.9464 82.2402 17.8596 84.7263 17.8292 85.5983C17.7589 87.6126 16.965 87.9412 16.4927 89.917C15.609 93.6137 17.2919 97.0491 18.2216 98.947C18.5434 99.604 19.5773 101.614 21.6355 103.779C25.6382 107.99 29.2097 110.205 29.2097 110.205L25.3729 113.596C25.3729 113.596 19.2613 111.744 15.1202 108.034C10.8723 104.227 4.33973 90.7603 2.98551 87.4798C2.86889 87.1973 4.52085 91.7902 7.67505 85.0619C8.39451 83.5272 9.71273 80.7153 12.3868 80.1216H12.3868Z" fill="#0077E4"/>
<path d="M110.586 76.9625L106.005 74.8049C107.884 77.412 109.503 81.4837 110.37 84.7237C111.837 81.7056 114.203 78.0128 116.545 75.8069L111.703 77.0453C114.687 62.5079 125.908 52.0715 138.758 52.0715L138.94 51.5464C125.518 51.5464 113.632 61.8381 110.586 76.9625Z" fill="#3F3D56"/>
<path d="M131.671 99.113H102.726C101.498 99.113 100.499 98.1199 100.499 96.8993C100.499 95.6786 101.498 94.6855 102.726 94.6855H131.671C132.898 94.6855 133.897 95.6786 133.897 96.8993C133.897 98.1199 132.898 99.113 131.671 99.113Z" fill="#0077E4"/>
<path d="M170.186 99.113H141.241C140.013 99.113 139.014 98.1199 139.014 96.8993C139.014 95.6786 140.013 94.6855 141.241 94.6855H170.186C171.413 94.6855 172.412 95.6786 172.412 96.8993C172.412 98.1199 171.413 99.113 170.186 99.113Z" fill="#E6E6E6"/>
<path d="M153.05 38.8909H124.914C124.205 38.8909 123.628 38.3171 123.628 37.6118C123.628 36.9066 124.205 36.333 124.914 36.333H153.05C153.76 36.333 154.337 36.9066 154.337 37.6118C154.337 38.3171 153.76 38.8909 153.05 38.8909V38.8909Z" fill="#3F3D56"/>
<path d="M168.148 52.5364H109.817C109.107 52.5364 108.53 51.9626 108.53 51.2573C108.53 50.5521 109.107 49.9785 109.817 49.9785H168.148C168.858 49.9785 169.435 50.5521 169.435 51.2573C169.435 51.9626 168.858 52.5364 168.148 52.5364Z" fill="#3F3D56"/>
<path d="M12.6472 175.586C12.6472 175.815 12.8328 176 13.0639 176H195.936C196.167 176 196.353 175.815 196.353 175.586C196.353 175.356 196.167 175.171 195.936 175.171H13.0639C12.8328 175.171 12.6472 175.356 12.6472 175.586Z" fill="#3F3D56"/>
<path d="M57.5513 77.3854C57.5017 77.3854 57.4523 77.3836 57.4025 77.3805C54.4722 77.1934 44.4457 75.7828 38.46 65.4929C37.9667 64.6457 38.0639 63.5686 38.7017 62.813L49.787 49.6814C50.2403 49.1443 50.9406 48.8349 51.6498 48.8434C52.14 48.855 53.3006 48.9781 53.526 49.8677C54.8577 55.1231 60.4808 61.3023 67.2433 62.1214C67.9288 62.2042 68.4791 62.8122 68.7153 63.7477C68.8996 64.4759 68.7293 65.2266 68.248 65.8073L59.3677 76.5286C58.9166 77.0731 58.2546 77.3854 57.5513 77.3854V77.3854ZM51.6072 49.3717C51.0656 49.3717 50.5387 49.613 50.1942 50.021L39.109 63.1526C38.6143 63.7387 38.5385 64.5727 38.9201 65.2282C44.7738 75.2912 54.5729 76.67 57.4367 76.853C58.0215 76.892 58.583 76.6442 58.9573 76.1926L67.8377 65.4713C68.2106 65.0215 68.3424 64.4403 68.1998 63.8765C68.0604 63.3245 67.719 62.7113 67.179 62.6458C60.1929 61.7998 54.3851 55.4214 53.0105 49.9967C52.8992 49.5575 52.2289 49.3859 51.6388 49.3719C51.6283 49.3717 51.6178 49.3717 51.6072 49.3717H51.6072Z" fill="#3F3D56"/>
<path d="M45.1779 65.9256L53.1699 57.8237C53.7162 57.2699 52.8603 56.4176 52.3133 56.9721L44.3213 65.0739C43.775 65.6278 44.6309 66.4801 45.1779 65.9256Z" fill="#E6E6E6"/>
<path d="M50.0015 68.2077C52.2072 66.2421 54.1239 63.9662 55.6934 61.4689C56.1078 60.8097 55.0601 60.2044 54.6475 60.861C53.1301 63.2754 51.2771 65.456 49.1449 67.356C48.5632 67.8745 49.4222 68.7239 50.0015 68.2077H50.0015Z" fill="#E6E6E6"/>
<path d="M54.3489 70.9408C56.3571 68.729 58.0665 66.2606 59.4124 63.5979C59.7615 62.9071 58.7169 62.2966 58.3664 62.99C57.0661 65.5626 55.433 67.9517 53.4923 70.0891C52.9711 70.6632 53.8252 71.5176 54.3489 70.9408H54.3489Z" fill="#E6E6E6"/>
<path d="M50.9247 56.3551C55.3748 56.3551 58.9823 52.844 58.9823 48.5128C58.9823 44.1815 55.3748 40.6704 50.9247 40.6704C46.4747 40.6704 42.8672 44.1815 42.8672 48.5128C42.8672 52.844 46.4747 56.3551 50.9247 56.3551Z" fill="#0077E4"/>
<path d="M55.1174 52.2327C53.8782 49.2035 52.6389 46.1743 51.3997 43.1451C51.2286 42.7267 50.6924 42.7118 50.5254 43.1451C49.301 46.321 48.5008 49.6349 48.1162 53.0137C48.0507 53.5893 48.9579 53.5846 49.0229 53.0137C49.1734 51.6915 49.3969 50.3792 49.6838 49.0809C50.7049 49.1341 51.7344 49.0202 52.7198 48.749C53.2276 49.9901 53.7353 51.2312 54.2431 52.4724C54.46 53.0027 55.3375 52.7708 55.1174 52.2327ZM49.8894 48.1896C50.1948 46.9467 50.5609 45.7186 50.9858 44.5101L52.3755 47.9071C51.5615 48.1195 50.7291 48.214 49.8894 48.1896Z" fill="white"/>
</g>
<defs>
<clipPath id="clip0_186_720">
<rect width="209" height="176" fill="white"/>
</clipPath>
</defs>
</svg>
