<svg width="231" height="231" viewBox="0 0 231 231" fill="none" xmlns="http://www.w3.org/2000/svg">
<path d="M118.336 76.0373L114.36 68.8909C113.712 67.7123 112.758 66.729 111.598 66.0439C110.439 65.3587 109.116 64.9968 107.768 64.9961H48.1551C46.1598 64.9961 44.2462 65.7867 42.8353 67.1939C41.4244 68.6011 40.6318 70.5098 40.6318 72.4999V186.128C40.6318 188.204 41.4584 190.194 42.9298 191.662C44.4011 193.129 46.3967 193.954 48.4775 193.954H183.896C185.977 193.954 187.972 193.129 189.444 191.662C190.915 190.194 191.742 188.204 191.742 186.128V86.9C191.742 84.9099 190.949 83.0012 189.538 81.594C188.127 80.1868 186.214 79.3962 184.219 79.3962H124.068C122.899 79.4006 121.749 79.0911 120.741 78.5002C119.732 77.9092 118.902 77.0585 118.336 76.0373Z" fill="white"/>
<path opacity="0.3" d="M115.997 76.0373L112.021 68.8909C111.373 67.7123 110.419 66.729 109.259 66.0439C108.1 65.3587 106.777 64.9968 105.429 64.9961H45.8162C43.8209 64.9961 41.9073 65.7867 40.4964 67.1939C39.0856 68.6011 38.293 70.5098 38.293 72.4999V186.128C38.293 188.204 39.1196 190.194 40.5909 191.662C42.0623 193.129 44.0579 193.954 46.1387 193.954H181.557C183.638 193.954 185.634 193.129 187.105 191.662C188.576 190.194 189.403 188.204 189.403 186.128V86.9C189.403 84.9099 188.61 83.0012 187.199 81.594C185.789 80.1868 183.875 79.3962 181.88 79.3962H121.729C120.56 79.4006 119.41 79.0911 118.402 78.5002C117.394 77.9092 116.563 77.0585 115.997 76.0373Z" fill="#B8C0CF"/>
<g filter="url(#filter0_d_199_3928)">
<path d="M131.945 44.3039L71.1147 49.6418C70.0399 49.7335 68.9946 50.044 68.0384 50.5556C67.0822 51.0671 66.2339 51.7697 65.5422 52.6229C64.8505 53.4762 64.3288 54.4635 64.0071 55.5283C63.6855 56.5931 63.57 57.7145 63.6674 58.8283L73.9016 175.365C73.9979 176.479 74.3054 177.565 74.8065 178.559C75.3077 179.553 75.9926 180.436 76.8221 181.157C77.6516 181.879 78.6093 182.424 79.6403 182.763C80.6714 183.101 81.7555 183.226 82.8306 183.13L160.686 176.298C161.759 176.205 162.803 175.894 163.758 175.382C164.713 174.87 165.559 174.167 166.249 173.314C166.939 172.46 167.458 171.473 167.778 170.409C168.098 169.345 168.211 168.224 168.112 167.112L159.457 68.2147L131.945 44.3039Z" fill="white"/>
<path d="M131.955 44.3071L133.506 61.9544C133.603 63.0671 133.911 64.1504 134.411 65.1426C134.912 66.1347 135.596 67.0162 136.423 67.7367C137.251 68.4572 138.207 69.0026 139.236 69.3418C140.265 69.6809 141.347 69.8071 142.42 69.7132L159.467 68.218L131.955 44.3071Z" fill="#B8C0CF"/>
<path opacity="0.7" d="M131.955 44.3071L133.506 61.9544C133.603 63.0671 133.911 64.1504 134.411 65.1426C134.912 66.1347 135.596 67.0162 136.423 67.7367C137.251 68.4572 138.207 69.0026 139.236 69.3418C140.265 69.6809 141.347 69.8071 142.42 69.7132L159.467 68.218L131.955 44.3071Z" fill="url(#paint0_linear_199_3928)" fill-opacity="0.9"/>
<rect width="52.3331" height="2.34163" rx="1.17081" transform="matrix(0.996113 -0.0880836 0.0884344 0.996082 71.209 62.2012)" fill="#E8EDF8"/>
<rect width="78.5733" height="2.34163" rx="1.17082" transform="matrix(0.996113 -0.0880837 0.0884344 0.996082 74.4531 96.0581)" fill="#E8EDF8"/>
<rect width="53.0269" height="2.34163" rx="1.17082" transform="matrix(0.996113 -0.0880837 0.0884343 0.996082 71.8965 73.4922)" fill="#E8EDF8"/>
<rect width="78.5733" height="2.34163" rx="1.17081" transform="matrix(0.996113 -0.0880836 0.0884344 0.996082 75.542 107.34)" fill="#E8EDF8"/>
<rect width="78.5733" height="2.34163" rx="1.17082" transform="matrix(0.996108 -0.0881418 0.0883823 0.996087 73.0352 84.7817)" fill="#E8EDF8"/>
<rect width="78.5733" height="2.34163" rx="1.17082" transform="matrix(0.996108 -0.0881418 0.0883823 0.996087 75.9961 118.624)" fill="#E8EDF8"/>
</g>
<path d="M204.551 94.2771H125.33C123.713 94.1992 122.098 94.4601 120.587 95.0432C119.076 95.6263 117.702 96.5189 116.552 97.6644L111.392 103.934C110.453 104.931 109.309 105.711 108.041 106.221C106.774 106.731 105.411 106.959 104.047 106.889H26.6538C21.2792 106.889 17.6962 109.808 18.6278 113.411C26.188 142.924 29.986 157.662 37.5461 187.138C38.2257 189.127 39.5062 190.852 41.2085 192.074C42.9109 193.295 44.9501 193.95 47.0411 193.949H181.333C183.424 193.95 185.463 193.295 187.165 192.074C188.868 190.852 190.148 189.127 190.828 187.138L212.971 100.835C213.867 97.2319 210.14 94.2771 204.551 94.2771Z" fill="white"/>
<g opacity="0.6" filter="url(#filter1_d_199_3928)">
<path opacity="0.1" d="M204.891 94.9621H125.667C124.05 94.8847 122.435 95.1441 120.924 95.7239C119.412 96.3037 118.038 97.1913 116.888 98.3303L111.728 104.565C110.789 105.556 109.646 106.332 108.378 106.839C107.11 107.346 105.747 107.573 104.383 107.503H26.9862C21.6114 107.503 18.0282 110.406 18.9598 113.989C26.5203 143.335 30.3185 157.99 37.879 187.301C38.5586 189.278 39.8391 190.994 41.5416 192.208C43.244 193.423 45.2833 194.074 47.3744 194.073H181.672C183.763 194.074 185.803 193.423 187.505 192.208C189.207 190.994 190.488 189.278 191.168 187.301L213.312 101.483C214.207 97.9003 210.481 94.9621 204.891 94.9621Z" fill="url(#paint1_linear_199_3928)"/>
</g>
<path d="M138.784 179.089L142.405 175.204L122.684 156.819L119.062 160.704L138.784 179.089Z" fill="url(#paint2_linear_199_3928)"/>
<path d="M149.772 191.207C150.401 191.794 151.388 191.76 151.975 191.13L155.331 187.534C155.919 186.904 155.885 185.917 155.255 185.329L141.696 172.687C141.066 172.1 140.08 172.135 139.492 172.764L136.136 176.36C135.548 176.99 135.583 177.978 136.213 178.565L149.772 191.207Z" fill="#0077E4"/>
<path d="M80.2896 140.167C80.6123 137.101 81.5389 134.129 83.0159 131.423C84.4929 128.717 86.4911 126.33 88.8952 124.4C89.2236 124.134 89.5563 123.881 89.8936 123.642C92.8282 121.526 96.2124 120.117 99.7817 119.525C103.351 118.934 107.009 119.175 110.469 120.232C113.93 121.288 117.099 123.13 119.73 125.614C122.36 128.097 124.381 131.156 125.634 134.55C127.71 140.206 127.546 146.442 125.175 151.981C122.953 157.142 118.952 161.335 113.9 163.797C108.849 166.259 103.081 166.826 97.6467 165.396C92.2122 163.965 87.4714 160.632 84.2862 156.003C81.101 151.373 79.6828 145.754 80.2896 140.167Z" fill="white"/>
<path d="M80.2929 140.166C81.9967 123.527 100.26 114.016 114.902 121.99C133.311 132.166 130.403 159.261 110.243 165.311C94.2096 169.97 78.4027 156.785 80.2929 140.166ZM80.2929 140.166C78.5025 156.712 94.2695 169.817 110.203 165.111C130.05 159.121 132.932 132.259 114.862 122.169C100.299 114.183 82.0899 123.62 80.3261 140.139L80.2929 140.166Z" fill="#0077E4"/>
<path d="M100.694 169.952C95.2991 169.371 90.1981 167.203 86.0356 163.722C81.8731 160.242 78.8361 155.605 77.3087 150.399C75.7813 145.192 75.832 139.65 77.4545 134.472C79.0769 129.295 82.1983 124.715 86.4238 121.311C90.6493 117.907 95.7892 115.833 101.194 115.35C106.598 114.868 112.024 115.999 116.786 118.6C121.547 121.201 125.431 125.156 127.945 129.964C130.459 134.772 131.491 140.218 130.91 145.613C130.124 152.845 126.501 159.469 120.836 164.032C115.171 168.596 107.927 170.725 100.694 169.952ZM101.033 166.831C105.811 167.349 110.634 166.44 114.895 164.216C119.155 161.993 122.66 158.556 124.966 154.341C127.273 150.125 128.278 145.32 127.853 140.533C127.428 135.747 125.594 131.194 122.581 127.45C119.568 123.706 115.513 120.94 110.928 119.501C106.343 118.063 101.434 118.016 96.8228 119.368C92.2114 120.719 88.1044 123.408 85.0213 127.094C81.9383 130.78 80.0177 135.298 79.5025 140.075C78.8193 146.477 80.702 152.888 84.738 157.903C88.774 162.918 94.6339 166.129 101.033 166.831Z" fill="url(#paint3_linear_199_3928)"/>
<path d="M127.417 134.577C126.463 131.804 125.033 129.218 123.191 126.936C119.264 122.092 113.664 118.894 107.496 117.973C101.328 117.052 95.0389 118.475 89.8679 121.961C84.6969 125.448 81.0194 130.744 79.5602 136.808C78.101 142.871 78.9659 149.261 81.9845 154.718C85.0031 160.176 89.9564 164.304 95.8682 166.291C101.78 168.277 108.221 167.976 113.923 165.449C119.624 162.921 124.172 158.35 126.67 152.636C129.167 146.921 129.434 140.478 127.417 134.577ZM126.985 145.226C126.409 150.635 123.974 155.678 120.097 159.493C116.219 163.308 111.138 165.661 105.72 166.149C100.302 166.638 94.882 165.232 90.3845 162.171C85.887 159.111 82.5902 154.585 81.0561 149.366C79.5219 144.147 79.8455 138.557 81.9716 133.55C84.0976 128.542 87.8946 124.427 92.7152 121.906C97.5358 119.385 103.082 118.614 108.407 119.724C113.733 120.834 118.508 123.757 121.92 127.995C125.807 132.836 127.621 139.019 126.965 145.193L126.985 145.226ZM127.417 134.577C126.463 131.804 125.033 129.218 123.191 126.936C119.264 122.092 113.664 118.894 107.496 117.973C101.328 117.052 95.0389 118.475 89.8679 121.961C84.6969 125.448 81.0194 130.744 79.5602 136.808C78.101 142.871 78.9659 149.261 81.9845 154.718C85.0031 160.176 89.9564 164.304 95.8682 166.291C101.78 168.277 108.221 167.976 113.923 165.449C119.624 162.921 124.172 158.35 126.67 152.636C129.167 146.921 129.434 140.478 127.417 134.577ZM126.985 145.226C126.409 150.635 123.974 155.678 120.097 159.493C116.219 163.308 111.138 165.661 105.72 166.149C100.302 166.638 94.882 165.232 90.3845 162.171C85.887 159.111 82.5902 154.585 81.0561 149.366C79.5219 144.147 79.8455 138.557 81.9716 133.55C84.0976 128.542 87.8946 124.427 92.7152 121.906C97.5358 119.385 103.082 118.614 108.407 119.724C113.733 120.834 118.508 123.757 121.92 127.995C125.807 132.836 127.621 139.019 126.965 145.193L126.985 145.226ZM130.392 133.599C128.758 128.807 125.867 124.542 122.02 121.251C118.173 117.959 113.512 115.763 108.524 114.89C103.537 114.018 98.4074 114.502 93.6714 116.292C88.9355 118.082 84.7677 121.112 81.6042 125.064C78.4407 129.017 76.3978 133.748 75.6892 138.761C74.9806 143.774 75.6324 148.885 77.5764 153.56C79.5204 158.235 82.6851 162.301 86.7394 165.333C90.7937 168.366 95.5885 170.253 100.622 170.797C105.343 171.305 110.117 170.615 114.501 168.791C118.885 166.967 122.739 164.067 125.706 160.36C128.673 156.653 130.658 152.257 131.477 147.58C132.296 142.902 131.923 138.094 130.392 133.599ZM130.113 145.579C129.413 152.101 126.33 158.136 121.454 162.525C116.579 166.914 110.254 169.348 103.694 169.361C97.1345 169.374 90.8007 166.964 85.9082 162.594C81.0156 158.224 77.9087 152.202 77.1834 145.682C76.4582 139.162 78.1656 132.604 81.9782 127.266C85.7909 121.928 91.4402 118.185 97.8426 116.756C104.245 115.327 110.95 116.312 116.671 119.522C122.391 122.732 126.725 127.942 128.842 134.151C130.079 137.807 130.502 141.689 130.08 145.525L130.113 145.579ZM123.191 126.99C119.253 122.151 113.645 118.964 107.472 118.057C101.3 117.15 95.0121 118.588 89.8481 122.088C84.6842 125.589 81.0192 130.897 79.5761 136.966C78.133 143.036 79.0164 149.425 82.0522 154.875C85.088 160.326 90.0557 164.44 95.9757 166.408C101.896 168.376 108.338 168.054 114.033 165.506C119.727 162.958 124.26 158.369 126.738 152.644C129.216 146.918 129.458 140.472 127.417 134.577C126.457 131.802 125.02 129.217 123.171 126.936L123.191 126.99ZM126.985 145.246C126.409 150.655 123.974 155.698 120.097 159.513C116.219 163.328 111.138 165.681 105.72 166.169C100.302 166.658 94.882 165.252 90.3845 162.191C85.887 159.131 82.5902 154.605 81.0561 149.386C79.5219 144.167 79.8455 138.577 81.9716 133.57C84.0976 128.562 87.8946 124.447 92.7152 121.926C97.5358 119.405 103.082 118.634 108.407 119.744C113.733 120.854 118.508 123.777 121.92 128.015C125.802 132.851 127.615 139.025 126.965 145.193L126.985 145.246Z" fill="url(#paint4_linear_199_3928)"/>
<path d="M87.8833 154.022C86.3731 152.012 85.2986 149.709 84.7286 147.26C84.4217 146.019 84.2411 144.75 84.1895 143.473C84.1432 142.179 84.2234 140.884 84.4291 139.606C84.8659 137.032 85.8386 134.579 87.2843 132.405C88.7027 130.263 90.5085 128.406 92.6087 126.927C90.9904 128.814 89.5656 130.859 88.3558 133.03C87.7837 134.099 87.2985 135.212 86.9049 136.358C86.4989 137.486 86.2003 138.649 86.0131 139.832C85.6244 142.198 85.6042 144.609 85.9532 146.98C86.3126 149.396 86.9606 151.76 87.8833 154.022Z" fill="url(#paint5_linear_199_3928)"/>
<path d="M121.433 137.129C122.337 139.476 122.743 141.985 122.624 144.497C122.577 145.787 122.401 147.069 122.099 148.324C121.787 149.58 121.357 150.804 120.814 151.978C119.688 154.331 118.083 156.423 116.102 158.121C114.138 159.792 111.881 161.085 109.446 161.935C111.519 160.562 113.448 158.983 115.203 157.223C116.046 156.353 116.818 155.418 117.513 154.427C118.21 153.453 118.814 152.414 119.316 151.326C120.336 149.154 121.01 146.837 121.313 144.457C121.649 142.028 121.689 139.568 121.433 137.129Z" fill="url(#paint6_linear_199_3928)"/>
<path d="M96.4434 139.763C96.4956 138.867 96.8332 137.977 97.4562 137.092C98.0792 136.208 98.9589 135.494 100.095 134.951C101.229 134.411 102.53 134.181 103.999 134.261C105.365 134.337 106.556 134.655 107.572 135.217C108.527 135.721 109.326 136.478 109.88 137.405C110.388 138.27 110.628 139.266 110.567 140.267C110.544 140.999 110.336 141.713 109.964 142.343C109.628 142.902 109.208 143.407 108.719 143.839C108.249 144.253 107.406 144.945 106.191 145.915C105.908 146.143 105.636 146.385 105.378 146.642C105.201 146.817 105.046 147.013 104.915 147.225C104.814 147.396 104.73 147.576 104.665 147.764C104.603 147.945 104.508 148.262 104.379 148.718C104.145 149.687 103.558 150.146 102.618 150.094C102.39 150.087 102.166 150.035 101.958 149.941C101.751 149.846 101.564 149.712 101.409 149.545C101.093 149.207 100.953 148.722 100.987 148.092C101.015 146.765 101.569 145.505 102.526 144.586C103.078 144.07 103.655 143.582 104.256 143.124C104.887 142.63 105.345 142.257 105.627 142.003C105.909 141.752 106.154 141.463 106.355 141.144C106.557 140.827 106.672 140.462 106.69 140.087C106.715 139.728 106.663 139.367 106.536 139.03C106.409 138.693 106.211 138.387 105.955 138.134C105.422 137.584 104.715 137.283 103.835 137.233C102.799 137.176 102.023 137.395 101.505 137.891C100.988 138.387 100.53 139.135 100.133 140.137C99.755 141.182 99.1201 141.682 98.2282 141.635C97.979 141.626 97.7344 141.566 97.51 141.457C97.2856 141.349 97.0863 141.194 96.9249 141.004C96.7664 140.84 96.6422 140.645 96.5595 140.432C96.4768 140.219 96.4374 139.992 96.4434 139.763ZM102.472 155.613C101.918 155.59 101.393 155.361 100.999 154.971C100.592 154.576 100.407 154.044 100.443 153.376C100.454 153.097 100.522 152.823 100.644 152.572C100.766 152.321 100.939 152.098 101.152 151.917C101.363 151.73 101.61 151.587 101.878 151.497C102.145 151.408 102.428 151.373 102.71 151.395C102.988 151.406 103.26 151.473 103.512 151.591C103.763 151.71 103.988 151.877 104.174 152.085C104.359 152.292 104.501 152.534 104.591 152.797C104.681 153.06 104.717 153.338 104.697 153.616C104.66 154.274 104.421 154.779 103.978 155.131C103.555 155.477 103.017 155.649 102.472 155.613Z" fill="url(#paint7_linear_199_3928)"/>
<defs>
<filter id="filter0_d_199_3928" x="53.6338" y="38.3037" width="124.513" height="158.858" filterUnits="userSpaceOnUse" color-interpolation-filters="sRGB">
<feFlood flood-opacity="0" result="BackgroundImageFix"/>
<feColorMatrix in="SourceAlpha" type="matrix" values="0 0 0 0 0 0 0 0 0 0 0 0 0 0 0 0 0 0 127 0" result="hardAlpha"/>
<feOffset dy="4"/>
<feGaussianBlur stdDeviation="5"/>
<feComposite in2="hardAlpha" operator="out"/>
<feColorMatrix type="matrix" values="0 0 0 0 0 0 0 0 0 0 0 0 0 0 0 0 0 0 0.2 0"/>
<feBlend mode="normal" in2="BackgroundImageFix" result="effect1_dropShadow_199_3928"/>
<feBlend mode="normal" in="SourceGraphic" in2="effect1_dropShadow_199_3928" result="shape"/>
</filter>
<filter id="filter1_d_199_3928" x="3.8125" y="83.9487" width="224.632" height="129.124" filterUnits="userSpaceOnUse" color-interpolation-filters="sRGB">
<feFlood flood-opacity="0" result="BackgroundImageFix"/>
<feColorMatrix in="SourceAlpha" type="matrix" values="0 0 0 0 0 0 0 0 0 0 0 0 0 0 0 0 0 0 127 0" result="hardAlpha"/>
<feOffset dy="4"/>
<feGaussianBlur stdDeviation="7.5"/>
<feComposite in2="hardAlpha" operator="out"/>
<feColorMatrix type="matrix" values="0 0 0 0 0 0 0 0 0 0 0 0 0 0 0 0 0 0 0.2 0"/>
<feBlend mode="normal" in2="BackgroundImageFix" result="effect1_dropShadow_199_3928"/>
<feBlend mode="normal" in="SourceGraphic" in2="effect1_dropShadow_199_3928" result="shape"/>
</filter>
<linearGradient id="paint0_linear_199_3928" x1="137.785" y1="51.6084" x2="177.893" y2="61.5972" gradientUnits="userSpaceOnUse">
<stop stop-color="white"/>
<stop offset="1" stop-color="white" stop-opacity="0"/>
</linearGradient>
<linearGradient id="paint1_linear_199_3928" x1="42.739" y1="188.557" x2="110.459" y2="69.6355" gradientUnits="userSpaceOnUse">
<stop offset="0.0977" stop-color="#C1C7D0"/>
<stop offset="1" stop-color="#EBECF0" stop-opacity="0.5"/>
</linearGradient>
<linearGradient id="paint2_linear_199_3928" x1="138.784" y1="179.089" x2="143.106" y2="171.607" gradientUnits="userSpaceOnUse">
<stop stop-color="#BEC7CF"/>
<stop offset="1" stop-color="#8D9293"/>
</linearGradient>
<linearGradient id="paint3_linear_199_3928" x1="76.1992" y1="142.675" x2="131.068" y2="142.675" gradientUnits="userSpaceOnUse">
<stop stop-color="#0077E4"/>
<stop offset="1" stop-color="#0060B8"/>
</linearGradient>
<linearGradient id="paint4_linear_199_3928" x1="75.4111" y1="142.713" x2="131.901" y2="142.713" gradientUnits="userSpaceOnUse">
<stop stop-color="#0077E4"/>
<stop offset="1" stop-color="#0060B8"/>
</linearGradient>
<linearGradient id="paint5_linear_199_3928" x1="85.2133" y1="152.514" x2="96.3331" y2="149.419" gradientUnits="userSpaceOnUse">
<stop offset="0.0977" stop-color="#C1C7D0"/>
<stop offset="1" stop-color="#EBECF0" stop-opacity="0.5"/>
</linearGradient>
<linearGradient id="paint6_linear_199_3928" x1="111.069" y1="160.554" x2="126.36" y2="153.278" gradientUnits="userSpaceOnUse">
<stop offset="0.0977" stop-color="#C1C7D0"/>
<stop offset="1" stop-color="#EBECF0" stop-opacity="0.5"/>
</linearGradient>
<linearGradient id="paint7_linear_199_3928" x1="96.4029" y1="150.375" x2="109.752" y2="137.025" gradientUnits="userSpaceOnUse">
<stop stop-color="#0077E4"/>
<stop offset="1" stop-color="#0060B8"/>
</linearGradient>
</defs>
</svg>
