<svg width="27" height="40" viewBox="0 0 27 40" fill="none" xmlns="http://www.w3.org/2000/svg">
<g clip-path="url(#clip0_300_4376)">
<path d="M25.0244 38.8421V23.9399H1.73973V38.8421C1.73973 39.0958 1.57799 39.9232 2.31236 39.9983C2.97988 40.0663 11.7773 37.9649 13.3821 37.7726C14.9868 37.964 23.7843 40.0663 24.4518 39.9983C25.1862 39.9232 25.0244 39.0977 25.0244 38.8421Z" fill="#0036A3"/>
<path d="M25.0244 38.3514V23.4492H1.73973V38.3514C1.73973 38.6055 1.57799 39.4325 2.31236 39.5076C2.97988 39.5765 11.7792 37.4747 13.3821 37.2818C14.9868 37.4733 23.7843 39.576 24.4518 39.5076C25.1862 39.4329 25.0244 38.6055 25.0244 38.3514Z" fill="url(#paint0_linear_300_4376)"/>
<path d="M23.4851 36.3554V23.4492H21.9425V34.2454C21.9425 34.4995 22.0617 35.3265 21.5218 35.4016C21.0301 35.47 14.547 33.3687 13.3643 33.1763C12.1817 33.3677 5.69813 35.47 5.20684 35.4016C4.66553 35.3265 4.78613 34.4995 4.78613 34.2454V23.4492H3.24354V36.3554C3.24354 36.609 3.10331 37.4364 3.74138 37.5116C4.32149 37.58 11.9685 35.4782 13.3662 35.2858C14.7615 35.4772 22.4109 37.58 22.991 37.5116C23.6258 37.4364 23.4851 36.6095 23.4851 36.3554Z" fill="url(#paint1_linear_300_4376)"/>
<g style="mix-blend-mode:multiply" opacity="0.68">
<path d="M1.74023 23.4385V26.2787L13.4994 33.2292L25.0249 26.416V23.4385H1.74023Z" fill="#535365"/>
</g>
<path d="M13.4989 1.11865L0.248047 8.95068V24.6152L13.4989 32.4472L26.7502 24.6152V24.6032V8.95068L13.4989 1.11865Z" fill="#5B5B6D"/>
<path d="M13.4989 0L0.248047 7.83203V23.497L13.4989 31.3286L26.7502 23.497V7.83203L13.4989 0ZM20.8743 20.0237L13.4989 24.3828L6.12298 20.0237V11.3049L13.498 6.94574L20.8734 11.3049L20.8743 20.0237Z" fill="url(#paint2_linear_300_4376)"/>
<g style="mix-blend-mode:multiply">
<path d="M13.5 6.94574L20.8755 11.3049V20.0237L13.5 24.3828V31.3286L26.7513 23.4966V7.83203L13.5 0V6.94574Z" fill="#9797A9"/>
</g>
<path d="M26.746 7.8291L24.319 9.27242L24.2246 21.9953L26.7517 23.4845V7.83197L26.746 7.8291Z" fill="#9797A9"/>
<g style="mix-blend-mode:overlay" opacity="0.51">
<path d="M2.77509 9.31794L0.253189 7.82916L0.248047 7.83203L13.4989 0V2.97948L2.77509 9.31794Z" fill="white"/>
</g>
<path opacity="0.36" d="M2.77509 21.9951L0.248047 23.4844L13.4989 31.3284V28.1967L2.77509 21.9951Z" fill="#9797A9"/>
<path d="M13.4992 2.97949L2.77539 9.31795V21.9953L13.4992 28.3343L24.2235 21.9953V9.31795L13.4992 2.97949ZM22.0293 20.6985L13.4992 25.7405L4.96914 20.6985V10.6148L13.4992 5.57326L22.0293 10.6148V20.6985Z" fill="url(#paint3_linear_300_4376)"/>
<path d="M4.96914 20.6985V10.6148L13.4992 5.57326V2.97949L2.77539 9.31795V21.9953L13.4992 28.3343V25.7405L4.96914 20.6985Z" fill="#9797A9"/>
<path d="M23.1274 21.3469V9.96638L13.5002 4.27637L3.87305 9.96638V21.3469L13.5002 27.0374L23.1274 21.3469Z" fill="url(#paint4_linear_300_4376)"/>
<g style="mix-blend-mode:multiply" opacity="0.68">
<path d="M4.35312 10.1238L13.4806 4.78938L23.1274 10.3751V9.96638L13.5002 4.27637L3.87305 9.96638V21.3469L4.35312 21.6307V10.1238Z" fill="#535365"/>
</g>
<path d="M24.2244 9.3181L24.0505 21.84L13.5001 28.0636L2.93335 21.84L1.13086 22.9569L2.77629 22.1673L13.4459 28.3794L13.5001 31.2546L13.5833 28.3737L24.2244 22.0563L26.7514 23.4967L24.2791 21.9424L24.3478 9.36069L26.7514 7.83219L24.2244 9.16736L13.5833 2.9294L13.5001 0.0561523L13.4174 3.02846L24.2244 9.3181Z" fill="white"/>
<path d="M0 7.73486V11.8801L4.62543 10.4674L0 7.73486Z" fill="#9797A9"/>
<path d="M0 7.73545L3.5129 5.67432L4.61562 10.4852L0 7.73545Z" fill="url(#paint5_linear_300_4376)"/>
<path d="M0 7.73556L0.105177 7.67383L4.61562 10.4853L0 7.85759V7.73556Z" fill="white"/>
<path d="M27.0004 7.73486V11.8801L22.375 10.4674L27.0004 7.73486Z" fill="#9797A9"/>
<path d="M27.0004 7.73545L23.4875 5.67432L22.3848 10.4852L27.0004 7.73545Z" fill="url(#paint6_linear_300_4376)"/>
<path d="M27.0004 7.73556L26.8952 7.67383L22.3848 10.4853L27.0004 7.85759V7.73556Z" fill="white"/>
<path d="M27.0004 23.4885V19.3438L22.375 20.7564L27.0004 23.4885Z" fill="url(#paint7_linear_300_4376)"/>
<path d="M27.0004 23.4885L23.4875 25.5492L22.3848 20.7388L27.0004 23.4885Z" fill="#9797A9"/>
<path d="M27.0004 23.4885L26.8952 23.5503L22.3848 20.7388L27.0004 23.3665V23.4885Z" fill="white"/>
<path d="M0 23.4885V19.3438L4.62543 20.7564L0 23.4885Z" fill="url(#paint8_linear_300_4376)"/>
<path d="M0 23.4885L3.5129 25.5492L4.61562 20.7388L0 23.4885Z" fill="#9797A9"/>
<path d="M0 23.4885L0.105177 23.5503L4.61562 20.7388L0 23.3665V23.4885Z" fill="white"/>
<path d="M16.8223 22H10.6699V21.2412C10.6699 20.9313 10.7132 20.6419 10.7998 20.373C10.8864 20.0996 11.0026 19.8444 11.1484 19.6074C11.2943 19.3659 11.4652 19.1403 11.6611 18.9307C11.8571 18.7165 12.0667 18.5114 12.29 18.3154C12.5133 18.1149 12.7412 17.9235 12.9736 17.7412C13.2061 17.5544 13.4339 17.3675 13.6572 17.1807C13.8669 17.0029 14.0583 16.8298 14.2314 16.6611C14.4046 16.488 14.5527 16.3102 14.6758 16.1279C14.7988 15.9456 14.8945 15.7542 14.9629 15.5537C15.0312 15.3486 15.0654 15.1276 15.0654 14.8906C15.0654 14.6309 15.0244 14.4053 14.9424 14.2139C14.8649 14.0179 14.7533 13.8561 14.6074 13.7285C14.4661 13.5964 14.2975 13.4984 14.1016 13.4346C13.9056 13.3662 13.6914 13.332 13.459 13.332C13.0579 13.332 12.6501 13.4255 12.2354 13.6123C11.8206 13.7992 11.4219 14.0794 11.0391 14.4531V12.9287C11.2396 12.7783 11.4424 12.6484 11.6475 12.5391C11.8525 12.4251 12.0645 12.3317 12.2832 12.2588C12.502 12.1813 12.7321 12.1243 12.9736 12.0879C13.2152 12.0514 13.4727 12.0332 13.7461 12.0332C14.1882 12.0332 14.5892 12.0924 14.9492 12.2109C15.3092 12.3249 15.6169 12.4958 15.8721 12.7236C16.1273 12.9469 16.3232 13.2272 16.46 13.5645C16.6012 13.9017 16.6719 14.2891 16.6719 14.7266C16.6719 15.123 16.6217 15.4808 16.5215 15.7998C16.4258 16.1143 16.2868 16.4082 16.1045 16.6816C15.9268 16.9551 15.7103 17.2148 15.4551 17.4609C15.1999 17.707 14.915 17.96 14.6006 18.2197C14.3363 18.4339 14.0719 18.6436 13.8076 18.8486C13.5479 19.0492 13.3132 19.2474 13.1035 19.4434C12.8939 19.6348 12.723 19.8285 12.5908 20.0244C12.4632 20.2158 12.3994 20.4095 12.3994 20.6055V20.6396H16.8223V22Z" fill="white"/>
</g>
<defs>
<linearGradient id="paint0_linear_300_4376" x1="13.3241" y1="15.6646" x2="13.4118" y2="41.2352" gradientUnits="userSpaceOnUse">
<stop stop-color="#001AA4"/>
<stop offset="1" stop-color="#4ABAFF"/>
</linearGradient>
<linearGradient id="paint1_linear_300_4376" x1="13.3625" y1="18.7058" x2="13.3625" y2="36.1127" gradientUnits="userSpaceOnUse">
<stop stop-color="#212133"/>
<stop offset="1" stop-color="#A0A0B2"/>
</linearGradient>
<linearGradient id="paint2_linear_300_4376" x1="19.0606" y1="26.8024" x2="7.4757" y2="4.66576" gradientUnits="userSpaceOnUse">
<stop stop-color="#8A8A9C"/>
<stop offset="1" stop-color="#D7D7E8"/>
</linearGradient>
<linearGradient id="paint3_linear_300_4376" x1="18.4949" y1="24.6427" x2="8.26798" y2="7.09045" gradientUnits="userSpaceOnUse">
<stop offset="0.25" stop-color="#D7D7E8"/>
<stop offset="1" stop-color="#9797A9"/>
</linearGradient>
<linearGradient id="paint4_linear_300_4376" x1="9.29361" y1="4.78746" x2="17.8594" y2="25.9043" gradientUnits="userSpaceOnUse">
<stop stop-color="#212133"/>
<stop offset="1" stop-color="#A0A0B2"/>
</linearGradient>
<linearGradient id="paint5_linear_300_4376" x1="2.35783" y1="9.04717" x2="5.28508" y2="5.52383" gradientUnits="userSpaceOnUse">
<stop offset="0.25" stop-color="#D7D7E8"/>
<stop offset="1" stop-color="#9797A9"/>
</linearGradient>
<linearGradient id="paint6_linear_300_4376" x1="24.6426" y1="9.04717" x2="21.7158" y2="5.52381" gradientUnits="userSpaceOnUse">
<stop offset="0.25" stop-color="#D7D7E8"/>
<stop offset="1" stop-color="#9797A9"/>
</linearGradient>
<linearGradient id="paint7_linear_300_4376" x1="23.1958" y1="18.9509" x2="28.5183" y2="22.6924" gradientUnits="userSpaceOnUse">
<stop offset="0.25" stop-color="#D7D7E8"/>
<stop offset="1" stop-color="#9797A9"/>
</linearGradient>
<linearGradient id="paint8_linear_300_4376" x1="2.95196" y1="19.5749" x2="-2.32217" y2="23.3167" gradientUnits="userSpaceOnUse">
<stop offset="0.25" stop-color="#D7D7E8"/>
<stop offset="1" stop-color="#9797A9"/>
</linearGradient>
<clipPath id="clip0_300_4376">
<rect width="27" height="40" fill="white"/>
</clipPath>
</defs>
</svg>
