<svg width="26" height="22" viewBox="0 0 26 22" fill="none" xmlns="http://www.w3.org/2000/svg">
<rect x="1.33301" y="6.38721" width="16" height="14.1935" fill="#EFF1F3"/>
<path fill-rule="evenodd" clip-rule="evenodd" d="M6 4.96729H0.75H0V5.76567V11.3544H0.75V5.76567H6V4.96729Z" fill="#BDC1C6"/>
<path fill-rule="evenodd" clip-rule="evenodd" d="M0 15.6129L0 21.2016L0 22H0.75H6V21.2016H0.75L0.75 15.6129H0Z" fill="#BDC1C6"/>
<path fill-rule="evenodd" clip-rule="evenodd" d="M18.667 11.3544V5.76567V4.96729H17.917H12.667V5.76567H17.917V11.3544H18.667Z" fill="#BDC1C6"/>
<path fill-rule="evenodd" clip-rule="evenodd" d="M12.667 22H17.917H18.667V21.2016V15.6129H17.917V21.2016H12.667V22Z" fill="#BDC1C6"/>
<rect x="8.66699" y="6.38721" width="8.66667" height="9.22581" fill="#E3E6E9"/>
<rect x="11" y="1.10889" width="13.9996" height="9.97952" fill="#D1E4FF"/>
<path d="M13.9985 6.2096C14.8809 6.2096 15.5984 5.41385 15.5984 4.43537C15.5984 3.45688 14.8809 2.66113 13.9985 2.66113C13.1161 2.66113 12.3984 3.45688 12.3984 4.43537C12.3984 5.41385 13.1161 6.2096 13.9985 6.2096Z" fill="#405FA6"/>
<path d="M23.9999 0H11.9999C10.8977 0 10 0.995377 10 2.21783V11.9757C10 13.1982 10.8977 14.1935 11.9999 14.1935H23.9999C25.1023 14.1935 26 13.1982 26 11.9757V2.21783C26 0.995377 25.1023 0 23.9999 0ZM11.9999 1.77423H23.9999C24.2208 1.77423 24.4 1.97289 24.4 2.21783V8.51528L21.8728 5.24539C21.6047 4.89681 21.2167 4.7105 20.8 4.69994C20.3856 4.70254 19.9968 4.90655 19.7312 5.25968L16.7599 9.21423L15.792 8.14348C15.2449 7.5368 14.3544 7.5368 13.808 8.14348L11.6 10.591V2.21783C11.6 1.97289 11.7792 1.77423 11.9999 1.77423Z" fill="#0077E4"/>
</svg>
