<svg width="20" height="20" viewBox="0 0 20 20" fill="none" xmlns="http://www.w3.org/2000/svg">
<g clip-path="url(#clip0_188_738)">
<path d="M14.4758 12.0583C14.2516 12.0583 14.0358 11.9375 13.9233 11.7258C13.7616 11.4208 13.8775 11.0425 14.1833 10.8808C16.5775 9.61167 18.19 7.54167 18.7233 5.05167C18.7958 4.71417 18.7191 4.37417 18.5108 4.11667C18.3191 3.88083 18.0475 3.75 17.7441 3.75H16.0166C15.6716 3.75 15.3916 3.47 15.3916 3.125C15.3916 2.78 15.6716 2.5 16.0166 2.5H17.745C18.4225 2.5 19.0566 2.80333 19.4841 3.3325C19.93 3.885 20.0983 4.6075 19.9458 5.315C19.3341 8.17083 17.4958 10.5408 14.7691 11.985C14.675 12.035 14.575 12.0583 14.4758 12.0583Z" fill="#FFB300"/>
<path d="M16.3366 0.445C16.0691 0.161667 15.6908 0 15.2999 0H4.69994C4.30911 0 3.93078 0.161667 3.66328 0.445C3.37911 0.744167 3.23828 1.13 3.26744 1.51417L3.30911 2.37583C3.59161 7.65417 5.25911 14.67 7.79328 17.2775C7.91161 17.3983 8.07244 17.4675 8.24161 17.4675H11.7583C11.9274 17.4675 12.0891 17.3992 12.2066 17.2775C14.7408 14.67 16.4083 7.65417 16.6908 2.3725L16.7316 1.53C16.7616 1.12917 16.6208 0.744167 16.3366 0.445Z" fill="#FFC107"/>
<path d="M11.4034 13.3418C11.2909 13.3418 11.1776 13.3118 11.0751 13.2484C10.7809 13.0668 10.6909 12.6818 10.8726 12.3884C12.0251 10.5251 12.8626 6.63261 12.8626 3.13428C12.8626 2.78928 13.1426 2.50928 13.4876 2.50928C13.8326 2.50928 14.1126 2.78928 14.1126 3.13428C14.1126 6.89844 13.2176 10.9751 11.9359 13.0468C11.8176 13.2368 11.6126 13.3418 11.4034 13.3418Z" fill="#FFE082"/>
<path d="M5.52411 12.2668C5.42495 12.2668 5.32495 12.2435 5.23161 12.1943C2.50495 10.7493 0.666614 8.38016 0.0541141 5.52266C-0.0975526 4.816 0.0699474 4.0935 0.516614 3.541C0.943281 3.01183 1.57745 2.7085 2.25578 2.7085H3.98328C4.32828 2.7085 4.60828 2.9885 4.60828 3.3335C4.60828 3.6785 4.32828 3.9585 3.98328 3.9585H2.25578C1.95328 3.9585 1.68078 4.08933 1.48995 4.326C1.28161 4.5835 1.20411 4.9235 1.27661 5.26016C1.81078 7.751 3.42328 9.821 5.81745 11.0902C6.12245 11.2518 6.23828 11.6302 6.07745 11.9352C5.96411 12.1468 5.74745 12.2668 5.52411 12.2668Z" fill="#FFB300"/>
<path d="M9.99992 15.8335C7.70242 15.8335 5.83325 17.4227 5.83325 19.3752C5.83325 19.7202 6.11325 20.0002 6.45825 20.0002H13.5416C13.8866 20.0002 14.1666 19.7202 14.1666 19.3752C14.1666 17.4227 12.2974 15.8335 9.99992 15.8335Z" fill="#FFB300"/>
<path d="M3.32913 2.7085H2.25579C1.57746 2.7085 0.944128 3.01183 0.516628 3.541C0.0707948 4.0935 -0.0975386 4.816 0.0549614 5.52266C0.656628 8.3335 2.44663 10.6727 5.10163 12.1235C4.90829 11.536 4.72913 10.9252 4.56496 10.301C2.86163 9.036 1.71246 7.28766 1.27746 5.26016C1.20413 4.9235 1.28163 4.5835 1.48913 4.326C1.68079 4.08933 1.95246 3.9585 2.25579 3.9585H3.43079C3.38913 3.53433 3.35496 3.11683 3.32913 2.7085Z" fill="#DE9C00"/>
<path d="M9.99994 0H4.69994C4.30911 0 3.93078 0.161667 3.66328 0.445C3.37911 0.744167 3.23828 1.13 3.26744 1.51417L3.30911 2.37583C3.31494 2.48583 3.32161 2.5975 3.32828 2.70917C3.35411 3.1175 3.38828 3.535 3.42994 3.95917C3.63328 6.02083 4.01911 8.23917 4.56328 10.3017C4.72828 10.9267 4.90744 11.5375 5.09994 12.1242C5.70328 13.9608 6.44078 15.5708 7.28911 16.6883C8.01911 16.155 8.96578 15.8333 9.99994 15.8333V0Z" fill="#DEA806"/>
<path d="M9.99992 15.8335C8.96575 15.8335 8.01909 16.1552 7.28992 16.6877C6.39825 17.3377 5.83325 18.301 5.83325 19.3752C5.83325 19.7202 6.11325 20.0002 6.45825 20.0002H9.99992V15.8335Z" fill="#DE9C00"/>
</g>
<defs>
<clipPath id="clip0_188_738">
<rect width="20" height="20" fill="white"/>
</clipPath>
</defs>
</svg>
